SplineFontDB: 3.0
FontName: RuslanDisplay
FullName: RuslanDisplay
FamilyName: Ruslan Display
Weight: Book
Copyright: Copyright (c) 2010, 2011, Denis Masharov <denis.masharov@gmail.com>, Vladimir Rabdu. This Font Software is licensed under the SIL Open Font License, Version 1.1. This license is available with a FAQ at: http://scripts.sil.org/OFL
Version: 1.000
ItalicAngle: 0
UnderlinePosition: -50
UnderlineWidth: 50
Ascent: 800
Descent: 200
sfntRevision: 0x00010000
LayerCount: 2
Layer: 0 1 "Back"  1
Layer: 1 1 "Fore"  0
XUID: [1021 288 713564382 12327314]
FSType: 0
OS2Version: 2
OS2_WeightWidthSlopeOnly: 0
OS2_UseTypoMetrics: 1
CreationTime: 1304885817
ModificationTime: 1304900305
PfmFamily: 17
TTFWeight: 400
TTFWidth: 5
LineGap: 0
VLineGap: 0
Panose: 2 0 0 0 0 0 0 0 0 0
OS2TypoAscent: -112
OS2TypoAOffset: 1
OS2TypoDescent: -197
OS2TypoDOffset: 1
OS2TypoLinegap: 0
OS2WinAscent: 0
OS2WinAOffset: 1
OS2WinDescent: 0
OS2WinDOffset: 1
HheadAscent: 0
HheadAOffset: 1
HheadDescent: 0
HheadDOffset: 1
OS2SubXSize: 700
OS2SubYSize: 650
OS2SubXOff: 0
OS2SubYOff: 140
OS2SupXSize: 700
OS2SupYSize: 650
OS2SupXOff: 0
OS2SupYOff: 477
OS2StrikeYSize: 50
OS2StrikeYPos: 250
OS2Vendor: 'pyrs'
OS2CodePages: 00000097.00000000
OS2UnicodeRanges: a000022f.0000004a.00000000.00000000
Lookup: 258 0 0 "'kern' Horizontal Kerning lookup 0"  {"'kern' Horizontal Kerning lookup 0 subtable"  } ['kern' ('cyrl' <'dflt' > 'latn' <'dflt' > ) ]
DEI: 91125
TtTable: prep
PUSHW_1
 511
SCANCTRL
PUSHB_1
 4
SCANTYPE
EndTTInstrs
ShortTable: maxp 16
  1
  0
  454
  66
  7
  0
  0
  2
  0
  1
  1
  0
  64
  0
  0
  0
EndShort

StartChar: exclam
Encoding: 33 33 6
Width: 302
Flags: W
LayerCount: 2
Fore
SplineSet
15 549 m 1,0,-1
 283 517 l 1,1,2
 278 420 278 420 250 310.5 c 128,-1,3
 222 201 222 201 188 138 c 1,4,5
 128 142 128 142 88 154 c 1,6,7
 81 373 81 373 15 549 c 1,0,-1
190 92 m 2,8,-1
 223 92 l 1,9,10
 208 33 208 33 188 -5 c 1,11,12
 177 -6 177 -6 123.5 -6 c 128,-1,13
 70 -6 70 -6 33 0 c 1,14,15
 53 45 53 45 55 102 c 1,16,17
 112 92 112 92 190 92 c 2,8,-1
EndSplineSet
EndChar

StartChar: quotedbl
Encoding: 34 34 7
Width: 231
Flags: W
LayerCount: 2
Fore
SplineSet
145 353 m 1,0,1
 152 437 152 437 152 455 c 128,-1,2
 152 473 152 473 144 574 c 1,3,-1
 211 574 l 1,4,5
 206 527 206 527 206 467 c 128,-1,6
 206 407 206 407 212 353 c 1,7,-1
 145 353 l 1,0,1
22 353 m 1,8,9
 29 437 29 437 29 455 c 128,-1,10
 29 473 29 473 21 574 c 1,11,-1
 88 574 l 1,12,13
 83 526 83 526 83 466.5 c 128,-1,14
 83 407 83 407 89 353 c 1,15,-1
 22 353 l 1,8,9
EndSplineSet
EndChar

StartChar: numbersign
Encoding: 35 35 8
Width: 383
Flags: W
LayerCount: 2
Fore
SplineSet
173 167 m 1,0,-1
 136 166 l 1,1,2
 129 122 129 122 120 50 c 1,3,-1
 53 50 l 1,4,5
 62 88 62 88 78 164 c 1,6,7
 32 162 32 162 7 160 c 1,8,-1
 19 227 l 1,9,-1
 90 224 l 1,10,11
 95 248 95 248 103 296 c 1,12,13
 57 294 57 294 35 292 c 1,14,15
 39 310 39 310 48 359 c 1,16,-1
 114 356 l 1,17,18
 126 432 126 432 131 469 c 1,19,-1
 198 469 l 1,20,21
 180 393 180 393 172 355 c 1,22,23
 184 354 184 354 208.5 354 c 128,-1,24
 233 354 233 354 245 355 c 1,25,26
 250 381 250 381 255.5 418.5 c 128,-1,27
 261 456 261 456 263 469 c 1,28,-1
 330 469 l 1,29,30
 314 401 314 401 304 356 c 1,31,-1
 376 359 l 1,32,33
 367 310 367 310 363 292 c 1,34,35
 340 294 340 294 292 296 c 1,36,37
 282 248 282 248 278 224 c 1,38,-1
 347 227 l 1,39,-1
 335 160 l 1,40,41
 314 162 314 162 268 164 c 1,42,43
 256 88 256 88 252 50 c 1,44,-1
 184 50 l 1,45,46
 194 88 194 88 210 166 c 1,47,-1
 173 167 l 1,0,-1
146 223 m 1,48,49
 158 222 158 222 183.5 222 c 128,-1,50
 209 222 209 222 222 223 c 1,51,52
 226 248 226 248 236 298 c 1,53,-1
 160 298 l 1,54,55
 150 248 150 248 146 223 c 1,48,49
EndSplineSet
EndChar

StartChar: dollar
Encoding: 36 36 9
Width: 652
Flags: W
LayerCount: 2
Fore
SplineSet
236 -58 m 1,0,-1
 238 -22 l 1,1,2
 99 -19 99 -19 12 1 c 1,3,4
 32 95 32 95 46 133 c 1,5,6
 113 136 113 136 175 137 c 1,7,8
 164 109 164 109 164 92 c 0,9,10
 164 44 164 44 247 44 c 128,-1,11
 330 44 330 44 398 55 c 1,12,13
 371 84 371 84 315.5 122 c 128,-1,14
 260 160 260 160 213.5 190.5 c 128,-1,15
 167 221 167 221 120.5 273.5 c 128,-1,16
 74 326 74 326 54 388 c 1,17,18
 85 450 85 450 120 499 c 1,19,20
 177 511 177 511 238 517 c 1,21,22
 236 531 236 531 236 560 c 1,23,-1
 300 560 l 1,24,25
 299 547 299 547 299 521 c 1,26,27
 335 523 335 523 355 523 c 1,28,29
 354 535 354 535 354 560 c 1,30,-1
 417 560 l 1,31,-1
 416 522 l 1,32,33
 523 517 523 517 613 499 c 1,34,35
 596 416 596 416 583 379 c 1,36,37
 558 378 558 378 518 376.5 c 128,-1,38
 478 375 478 375 454 374 c 1,39,40
 464 402 464 402 464 415 c 0,41,42
 464 440 464 440 442 448 c 128,-1,43
 420 456 420 456 358 456 c 128,-1,44
 296 456 296 456 248 445 c 1,45,46
 297 374 297 374 393 332 c 0,47,48
 434 314 434 314 476 296 c 0,49,50
 581 253 581 253 642 183 c 1,51,52
 619 81 619 81 568 1 c 1,53,54
 513 -14 513 -14 416 -20 c 1,55,56
 416 -46 416 -46 417 -58 c 1,57,-1
 354 -58 l 1,58,59
 354 -34 354 -34 355 -22 c 1,60,61
 336 -23 336 -23 299 -23 c 1,62,63
 299 -47 299 -47 300 -58 c 1,64,-1
 236 -58 l 1,0,-1
EndSplineSet
EndChar

StartChar: percent
Encoding: 37 37 10
Width: 540
Flags: W
LayerCount: 2
Fore
SplineSet
372 204 m 1,0,1
 365 176 365 176 365 143.5 c 128,-1,2
 365 111 365 111 379.5 72.5 c 128,-1,3
 394 34 394 34 417 19 c 1,4,5
 428 44 428 44 428 79.5 c 128,-1,6
 428 115 428 115 413 151 c 128,-1,7
 398 187 398 187 372 204 c 1,0,1
124 -36 m 1,8,-1
 84 -13 l 1,9,10
 243 250 243 250 403 539 c 1,11,-1
 443 516 l 1,12,13
 270 234 270 234 124 -36 c 1,8,-1
115 476 m 1,14,15
 108 448 108 448 108 415 c 128,-1,16
 108 382 108 382 122.5 343.5 c 128,-1,17
 137 305 137 305 160 290 c 1,18,19
 171 315 171 315 171 350.5 c 128,-1,20
 171 386 171 386 156 422 c 128,-1,21
 141 458 141 458 115 476 c 1,14,15
45 268 m 1,22,23
 4 324 4 324 4 381.5 c 128,-1,24
 4 439 4 439 51 478.5 c 128,-1,25
 98 518 98 518 172 518 c 0,26,27
 205 518 205 518 241 509 c 1,28,29
 275 465 275 465 275 407.5 c 128,-1,30
 275 350 275 350 227 303.5 c 128,-1,31
 179 257 179 257 109 257 c 0,32,33
 80 257 80 257 45 268 c 1,22,23
303 -4 m 1,34,35
 262 50 262 50 262 108.5 c 128,-1,36
 262 167 262 167 309.5 207 c 128,-1,37
 357 247 357 247 431 247 c 0,38,39
 463 247 463 247 499 238 c 1,40,41
 533 192 533 192 533 136 c 128,-1,42
 533 80 533 80 484 33 c 128,-1,43
 435 -14 435 -14 365 -14 c 0,44,45
 333 -14 333 -14 303 -4 c 1,34,35
EndSplineSet
EndChar

StartChar: ampersand
Encoding: 38 38 11
Width: 745
Flags: W
LayerCount: 2
Fore
SplineSet
108 433 m 1,0,1
 132 494 132 494 169 537 c 1,2,-1
 398 537 l 1,3,4
 435 492 435 492 450 438 c 1,5,6
 439 412 439 412 415.5 394 c 128,-1,7
 392 376 392 376 384.5 370 c 128,-1,8
 377 364 377 364 353.5 349 c 128,-1,9
 330 334 330 334 329 333 c 1,10,11
 368 277 368 277 438 214 c 1,12,13
 442 224 442 224 458 271 c 1,14,-1
 565 271 l 1,15,16
 543 216 543 216 504 164 c 1,17,18
 614 71 614 71 740 0 c 1,19,-1
 459 0 l 1,20,21
 430 19 430 19 395 49 c 1,22,23
 376 32 376 32 334 0 c 1,24,-1
 96 0 l 1,25,26
 37 54 37 54 6 174 c 1,27,28
 57 245 57 245 180 308 c 1,29,30
 142 365 142 365 108 433 c 1,0,1
216 254 m 1,31,32
 199 236 199 236 199 204.5 c 128,-1,33
 199 173 199 173 234 128.5 c 128,-1,34
 269 84 269 84 312 54 c 1,35,36
 333 70 333 70 351 90 c 1,37,38
 284 158 284 158 216 254 c 1,31,32
297 374 m 1,39,40
 321 391 321 391 321 416 c 128,-1,41
 321 441 321 441 294 465.5 c 128,-1,42
 267 490 267 490 234 497 c 1,43,44
 256 430 256 430 297 374 c 1,39,40
EndSplineSet
EndChar

StartChar: quotesingle
Encoding: 39 39 12
Width: 128
Flags: W
LayerCount: 2
Fore
SplineSet
31 353 m 1,0,1
 38 437 38 437 38 455 c 128,-1,2
 38 473 38 473 30 574 c 1,3,-1
 97 574 l 1,4,5
 92 526 92 526 92 466.5 c 128,-1,6
 92 407 92 407 98 353 c 1,7,-1
 31 353 l 1,0,1
EndSplineSet
EndChar

StartChar: parenleft
Encoding: 40 40 13
Width: 203
Flags: W
LayerCount: 2
Fore
SplineSet
131 294 m 0,0,1
 131 74 131 74 204 -114 c 1,2,3
 164 -109 164 -109 92 -94 c 1,4,5
 5 40 5 40 5 243 c 128,-1,6
 5 446 5 446 102 605 c 1,7,-1
 169 605 l 1,8,9
 131 454 131 454 131 294 c 0,0,1
EndSplineSet
EndChar

StartChar: parenright
Encoding: 41 41 14
Width: 207
Flags: W
LayerCount: 2
Fore
SplineSet
73 197 m 0,0,1
 73 417 73 417 0 605 c 1,2,3
 30 601 30 601 112 585 c 1,4,5
 199 452 199 452 199 248.5 c 128,-1,6
 199 45 199 45 102 -114 c 1,7,-1
 35 -114 l 1,8,9
 73 37 73 37 73 197 c 0,0,1
EndSplineSet
EndChar

StartChar: asterisk
Encoding: 42 42 15
Width: 273
Flags: W
LayerCount: 2
Fore
SplineSet
9 232 m 1,0,-1
 9 285 l 1,1,2
 54 282 54 282 99 282 c 1,3,-1
 51 358 l 1,4,-1
 97 384 l 1,5,6
 110 356 110 356 138 302 c 1,7,8
 162 345 162 345 180 384 c 1,9,-1
 226 358 l 1,10,11
 194 310 194 310 178 282 c 1,12,-1
 268 285 l 1,13,-1
 268 232 l 1,14,15
 237 235 237 235 176 237 c 1,16,17
 208 185 208 185 226 160 c 1,18,-1
 180 134 l 1,19,20
 157 180 157 180 138 213 c 1,21,-1
 97 134 l 1,22,23
 81 142 81 142 51 160 c 1,24,25
 79 200 79 200 101 237 c 1,26,27
 41 235 41 235 9 232 c 1,0,-1
EndSplineSet
EndChar

StartChar: plus
Encoding: 43 43 16
Width: 272
Flags: W
LayerCount: 2
Fore
SplineSet
157 229 m 1,0,1
 157 181 157 181 162 121 c 1,2,-1
 109 121 l 1,3,4
 111 157 111 157 113 229 c 1,5,6
 66 229 66 229 6 224 c 1,7,-1
 6 277 l 1,8,9
 43 275 43 275 113 273 c 1,10,11
 111 343 111 343 109 380 c 1,12,-1
 162 380 l 1,13,14
 157 320 157 320 157 273 c 1,15,16
 229 275 229 275 265 277 c 1,17,-1
 265 224 l 1,18,19
 205 229 205 229 157 229 c 1,0,1
EndSplineSet
EndChar

StartChar: comma
Encoding: 44 44 17
Width: 215
Flags: W
LayerCount: 2
Fore
SplineSet
112 -6 m 1,0,1
 49 -6 49 -6 16 0 c 1,2,3
 36 45 36 45 38 102 c 1,4,5
 100 91 100 91 206 91 c 1,6,7
 188 -8 188 -8 136 -88 c 1,8,9
 111 -85 111 -85 89 -79 c 1,10,11
 112 -40 112 -40 112 -6 c 1,0,1
EndSplineSet
EndChar

StartChar: hyphen
Encoding: 45 45 18
Width: 381
Flags: W
LayerCount: 2
Fore
SplineSet
93 305 m 1,0,-1
 160 304 l 1,1,2
 314 304 314 304 366 321 c 1,3,4
 334 269 334 269 291 224 c 1,5,-1
 261 224 l 2,6,7
 110 224 110 224 12 245 c 1,8,-1
 27 258 l 2,9,10
 70 296 70 296 93 305 c 1,0,-1
EndSplineSet
EndChar

StartChar: period
Encoding: 46 46 19
Width: 219
Flags: W
LayerCount: 2
Fore
SplineSet
173 -5 m 1,0,1
 162 -6 162 -6 109.5 -6 c 128,-1,2
 57 -6 57 -6 18 0 c 1,3,4
 38 46 38 46 40 102 c 1,5,6
 97 92 97 92 208 92 c 1,7,8
 194 36 194 36 173 -5 c 1,0,1
EndSplineSet
EndChar

StartChar: slash
Encoding: 47 47 20
Width: 372
Flags: W
LayerCount: 2
Fore
SplineSet
284 587 m 1,0,1
 362 607 362 607 418 607 c 1,2,3
 256 322 256 322 73 -94 c 1,4,-1
 63 -96 l 1,5,6
 -11 -114 -11 -114 -60 -114 c 1,7,8
 108 183 108 183 284 587 c 1,0,1
EndSplineSet
EndChar

StartChar: zero
Encoding: 48 48 21
Width: 658
Flags: W
LayerCount: 2
Fore
SplineSet
123 3 m 1,0,1
 34 118 34 118 34 237.5 c 128,-1,2
 34 357 34 357 134 440 c 128,-1,3
 234 523 234 523 390 523 c 0,4,5
 473 523 473 523 555 498 c 1,6,7
 627 408 627 408 627 303 c 0,8,9
 627 172 627 172 519.5 75 c 128,-1,10
 412 -22 412 -22 261 -22 c 0,11,12
 195 -22 195 -22 123 3 c 1,0,1
275 436 m 1,13,14
 240 376 240 376 240 294.5 c 128,-1,15
 240 213 240 213 275.5 144.5 c 128,-1,16
 311 76 311 76 373 47 c 1,17,18
 420 107 420 107 420 186 c 128,-1,19
 420 265 420 265 381.5 333 c 128,-1,20
 343 401 343 401 275 436 c 1,13,14
EndSplineSet
EndChar

StartChar: one
Encoding: 49 49 22
Width: 432
Flags: W
LayerCount: 2
Fore
SplineSet
383 358 m 0,0,1
 383 159 383 159 362 0 c 1,2,-1
 135 0 l 1,3,4
 140 85 140 85 140 160.5 c 128,-1,5
 140 236 140 236 129 324 c 1,6,7
 101 302 101 302 62 278 c 1,8,9
 32 332 32 332 17 357 c 1,10,11
 156 409 156 409 263 500 c 1,12,-1
 381 500 l 1,13,14
 383 406 383 406 383 358 c 0,0,1
EndSplineSet
EndChar

StartChar: two
Encoding: 50 50 23
Width: 569
Flags: W
LayerCount: 2
Fore
SplineSet
201 71 m 1,0,1
 250 65 250 65 307 65 c 128,-1,2
 364 65 364 65 395 87 c 128,-1,3
 426 109 426 109 442 153 c 1,4,-1
 537 148 l 1,5,6
 523 58 523 58 497 0 c 1,7,-1
 22 0 l 1,8,-1
 29 6 l 1,9,10
 255 222 255 222 255 348 c 0,11,12
 255 404 255 404 206 442 c 1,13,14
 153 404 153 404 129 348 c 1,15,16
 114 352 114 352 82.5 362 c 128,-1,17
 51 372 51 372 34 377 c 1,18,19
 85 458 85 458 153 500 c 1,20,-1
 425 500 l 1,21,22
 499 444 499 444 528 364 c 1,23,24
 489 291 489 291 403.5 214.5 c 128,-1,25
 318 138 318 138 201 71 c 1,0,1
EndSplineSet
EndChar

StartChar: three
Encoding: 51 51 24
Width: 508
Flags: W
LayerCount: 2
Fore
SplineSet
272 429 m 1,0,1
 255 435 255 435 216.5 435 c 128,-1,2
 178 435 178 435 156 430 c 128,-1,3
 134 425 134 425 123.5 412.5 c 128,-1,4
 113 400 113 400 110 392 c 0,5,6
 106 384 106 384 100 355 c 1,7,8
 70 355 70 355 16 357 c 1,9,10
 31 434 31 434 48 500 c 1,11,-1
 492 500 l 1,12,13
 435 380 435 380 289 293 c 1,14,15
 414 258 414 258 500 198 c 1,16,17
 447 78 447 78 353 0 c 1,18,-1
 40 0 l 1,19,20
 107 42 107 42 178 110 c 128,-1,21
 249 178 249 178 276 228 c 1,22,23
 253 244 253 244 216 261 c 128,-1,24
 179 278 179 278 151 284 c 1,25,26
 227 328 227 328 272 429 c 1,0,1
EndSplineSet
EndChar

StartChar: four
Encoding: 52 52 25
Width: 590
Flags: W
LayerCount: 2
Fore
SplineSet
269 141 m 1,0,-1
 269 157 l 2,1,2
 269 207 269 207 258 276 c 1,3,-1
 509 276 l 1,4,5
 509 246 509 246 500 142 c 1,6,7
 546 151 546 151 588 176 c 1,8,9
 568 127 568 127 544 75 c 1,10,-1
 494 75 l 1,11,-1
 485 0 l 1,12,-1
 255 0 l 1,13,14
 259 17 259 17 265 75 c 1,15,-1
 40 75 l 1,16,17
 31 129 31 129 23 163 c 1,18,19
 85 225 85 225 130.5 321 c 128,-1,20
 176 417 176 417 189 500 c 1,21,-1
 407 500 l 1,22,23
 371 409 371 409 280 318 c 1,24,25
 216 252 216 252 125 174 c 1,26,-1
 107 159 l 1,27,28
 174 141 174 141 269 141 c 1,0,-1
EndSplineSet
EndChar

StartChar: five
Encoding: 53 53 26
Width: 485
Flags: W
LayerCount: 2
Fore
SplineSet
360 500 m 2,0,1
 404 500 404 500 482 523 c 1,2,3
 470 504 470 504 457.5 479 c 128,-1,4
 445 454 445 454 437 440 c 1,5,6
 415 435 415 435 386 435 c 2,7,-1
 234 435 l 1,8,9
 210 388 210 388 198 316 c 1,10,11
 266 316 266 316 348.5 304 c 128,-1,12
 431 292 431 292 482 271 c 1,13,14
 437 110 437 110 336 0 c 1,15,-1
 23 0 l 1,16,17
 174 97 174 97 238 234 c 1,18,19
 198 250 198 250 131.5 261 c 128,-1,20
 65 272 65 272 9 272 c 1,21,-1
 9 279 l 2,22,23
 9 338 9 338 19.5 400.5 c 128,-1,24
 30 463 30 463 48 500 c 1,25,-1
 360 500 l 2,0,1
EndSplineSet
EndChar

StartChar: six
Encoding: 54 54 27
Width: 540
Flags: W
LayerCount: 2
Fore
SplineSet
32 215 m 0,0,1
 32 392 32 392 132 500 c 1,2,-1
 432 500 l 1,3,4
 332 439 332 439 290 319 c 1,5,6
 391 315 391 315 516 276 c 1,7,8
 536 223 536 223 536 151.5 c 128,-1,9
 536 80 536 80 493 0 c 1,10,-1
 86 0 l 1,11,12
 62 31 62 31 47 89.5 c 128,-1,13
 32 148 32 148 32 215 c 0,0,1
274 264 m 1,14,15
 262 211 262 211 262 158.5 c 128,-1,16
 262 106 262 106 271 65 c 1,17,18
 300 99 300 99 321 146.5 c 128,-1,19
 342 194 342 194 344 230 c 1,20,21
 319 252 319 252 274 264 c 1,14,15
EndSplineSet
EndChar

StartChar: seven
Encoding: 55 55 28
Width: 547
Flags: W
LayerCount: 2
Fore
SplineSet
226 435 m 2,0,-1
 210 435 l 2,1,2
 155 435 155 435 130.5 418 c 128,-1,3
 106 401 106 401 96 354 c 1,4,-1
 12 357 l 1,5,6
 18 394 18 394 42 491 c 1,7,-1
 44 500 l 1,8,-1
 540 500 l 1,9,10
 505 365 505 365 453.5 227.5 c 128,-1,11
 402 90 402 90 352 0 c 1,12,-1
 41 0 l 1,13,14
 201 159 201 159 304 429 c 1,15,16
 266 435 266 435 226 435 c 2,0,-1
EndSplineSet
EndChar

StartChar: eight
Encoding: 56 56 29
Width: 532
Flags: W
LayerCount: 2
Fore
SplineSet
455 0 m 1,0,-1
 86 0 l 1,1,2
 31 72 31 72 4 158 c 1,3,4
 61 227 61 227 136 274 c 1,5,6
 90 335 90 335 62 403 c 1,7,8
 104 468 104 468 141 501 c 1,9,-1
 403 501 l 1,10,11
 458 446 458 446 469 382 c 1,12,13
 437 323 437 323 394 287 c 1,14,15
 436 267 436 267 472.5 227 c 128,-1,16
 509 187 509 187 527 142 c 1,17,18
 501 54 501 54 455 0 c 1,0,-1
172 175 m 0,19,20
 172 127 172 127 209 98.5 c 128,-1,21
 246 70 246 70 295 66 c 1,22,23
 289 103 289 103 258.5 145 c 128,-1,24
 228 187 228 187 181 222 c 1,25,26
 172 196 172 196 172 175 c 0,19,20
339 345 m 0,27,28
 339 379 339 379 311 405.5 c 128,-1,29
 283 432 283 432 222 435 c 1,30,31
 245 354 245 354 331 313 c 1,32,33
 339 327 339 327 339 345 c 0,27,28
EndSplineSet
EndChar

StartChar: nine
Encoding: 57 57 30
Width: 553
Flags: W
LayerCount: 2
Fore
SplineSet
531 286 m 0,0,1
 531 104 531 104 431 0 c 1,2,-1
 131 0 l 1,3,4
 231 63 231 63 273 181 c 1,5,6
 176 185 176 185 48 224 c 1,7,8
 28 277 28 277 28 349.5 c 128,-1,9
 28 422 28 422 70 500 c 1,10,-1
 478 500 l 1,11,12
 502 469 502 469 516.5 411.5 c 128,-1,13
 531 354 531 354 531 286 c 0,0,1
289 237 m 1,14,15
 302 296 302 296 302 346 c 128,-1,16
 302 396 302 396 293 435 c 1,17,18
 264 402 264 402 242.5 354 c 128,-1,19
 221 306 221 306 219 271 c 1,20,21
 240 250 240 250 289 237 c 1,14,15
EndSplineSet
EndChar

StartChar: colon
Encoding: 58 58 31
Width: 205
Flags: W
LayerCount: 2
Fore
SplineSet
165 92 m 2,0,-1
 198 92 l 1,1,2
 183 33 183 33 163 -5 c 1,3,4
 152 -6 152 -6 99 -6 c 128,-1,5
 46 -6 46 -6 8 0 c 1,6,7
 28 45 28 45 30 102 c 1,8,9
 88 92 88 92 165 92 c 2,0,-1
172 436 m 2,10,-1
 198 436 l 1,11,12
 184 379 184 379 163 340 c 1,13,14
 151 339 151 339 93.5 339 c 128,-1,15
 36 339 36 339 8 345 c 1,16,17
 28 390 28 390 30 447 c 1,18,19
 90 436 90 436 172 436 c 2,10,-1
EndSplineSet
EndChar

StartChar: semicolon
Encoding: 59 59 32
Width: 207
Flags: W
LayerCount: 2
Fore
SplineSet
175 437 m 2,0,-1
 202 437 l 1,1,2
 191 386 191 386 167 341 c 1,3,4
 143 339 143 339 94.5 339 c 128,-1,5
 46 339 46 339 12 346 c 1,6,7
 32 391 32 391 34 447 c 1,8,9
 94 437 94 437 175 437 c 2,0,-1
34 103 m 1,10,11
 97 92 97 92 202 92 c 1,12,13
 186 -7 186 -7 132 -87 c 1,14,15
 110 -84 110 -84 85 -78 c 1,16,17
 107 -40 107 -40 109 -5 c 1,18,19
 45 -5 45 -5 12 1 c 1,20,21
 32 46 32 46 34 103 c 1,10,11
EndSplineSet
EndChar

StartChar: less
Encoding: 60 60 33
Width: 350
Flags: W
LayerCount: 2
Fore
SplineSet
240 0 m 1,0,-1
 20 221 l 1,1,-1
 240 441 l 1,2,-1
 331 441 l 1,3,-1
 144 221 l 1,4,-1
 331 0 l 1,5,-1
 240 0 l 1,0,-1
EndSplineSet
EndChar

StartChar: equal
Encoding: 61 61 34
Width: 287
Flags: W
LayerCount: 2
Fore
SplineSet
13 221 m 1,0,1
 74 218 74 218 138.5 218 c 128,-1,2
 203 218 203 218 272 221 c 1,3,-1
 272 169 l 1,4,5
 197 174 197 174 140 174 c 128,-1,6
 83 174 83 174 13 169 c 1,7,-1
 13 221 l 1,0,1
13 319 m 1,8,9
 70 315 70 315 141.5 315 c 128,-1,10
 213 315 213 315 272 319 c 1,11,-1
 272 266 l 1,12,13
 200 271 200 271 142.5 271 c 128,-1,14
 85 271 85 271 13 266 c 1,15,-1
 13 319 l 1,8,9
EndSplineSet
EndChar

StartChar: greater
Encoding: 62 62 35
Width: 350
Flags: W
LayerCount: 2
Fore
SplineSet
344 221 m 1,0,-1
 124 0 l 1,1,-1
 33 0 l 1,2,-1
 220 221 l 1,3,-1
 33 441 l 1,4,-1
 124 441 l 1,5,-1
 344 221 l 1,0,-1
EndSplineSet
EndChar

StartChar: question
Encoding: 63 63 36
Width: 472
Flags: W
LayerCount: 2
Fore
SplineSet
15 526 m 1,0,1
 115 549 115 549 232 549 c 128,-1,2
 349 549 349 549 409 509.5 c 128,-1,3
 469 470 469 470 469 405 c 1,4,5
 465 369 465 369 439 332 c 128,-1,6
 413 295 413 295 384 268 c 0,7,8
 300 192 300 192 283 139 c 1,9,10
 214 146 214 146 183 154 c 1,11,12
 191 180 191 180 232.5 263 c 128,-1,13
 274 346 274 346 274 390.5 c 128,-1,14
 274 435 274 435 254 471 c 1,15,16
 228 480 228 480 207 480 c 128,-1,17
 186 480 186 480 164 475 c 1,18,19
 171 435 171 435 181 402 c 1,20,21
 125 402 125 402 53 409 c 1,22,23
 27 464 27 464 15 526 c 1,0,1
283 -5 m 1,24,25
 272 -6 272 -6 220 -6 c 128,-1,26
 168 -6 168 -6 128 0 c 1,27,28
 148 48 148 48 150 102 c 1,29,30
 202 92 202 92 318 92 c 1,31,32
 304 36 304 36 283 -5 c 1,24,25
EndSplineSet
EndChar

StartChar: at
Encoding: 64 64 37
Width: 540
Flags: W
LayerCount: 2
Fore
SplineSet
491 250 m 0,0,1
 491 342 491 342 426.5 407 c 128,-1,2
 362 472 362 472 270 472 c 128,-1,3
 178 472 178 472 113 407 c 128,-1,4
 48 342 48 342 48 250 c 128,-1,5
 48 158 48 158 113 93.5 c 128,-1,6
 178 29 178 29 270 29 c 0,7,8
 343 29 343 29 406 76 c 1,9,-1
 426 55 l 1,10,11
 358 0 358 0 262 0 c 128,-1,12
 166 0 166 0 93 73 c 128,-1,13
 20 146 20 146 20 250 c 128,-1,14
 20 354 20 354 93 427 c 128,-1,15
 166 500 166 500 270 500 c 128,-1,16
 374 500 374 500 447 427 c 128,-1,17
 520 354 520 354 520 250 c 0,18,19
 520 191 520 191 489.5 150 c 128,-1,20
 459 109 459 109 395 109 c 0,21,22
 318 109 318 109 293 184 c 1,23,24
 299 184 299 184 263.5 155.5 c 128,-1,25
 228 127 228 127 223 126 c 1,26,-1
 107 126 l 1,27,28
 103 146 103 146 103 182 c 128,-1,29
 103 218 103 218 113 247 c 1,30,31
 150 259 150 259 183.5 283.5 c 128,-1,32
 217 308 217 308 231 337 c 1,33,34
 217 358 217 358 202 375 c 1,35,-1
 367 375 l 1,36,37
 384 334 384 334 400 256.5 c 128,-1,38
 416 179 416 179 425 167 c 1,39,40
 434 157 434 157 446 156 c 1,41,42
 468 156 468 156 479.5 188.5 c 128,-1,43
 491 221 491 221 491 250 c 0,0,1
284 221 m 1,44,45
 269 270 269 270 250 304 c 1,46,47
 228 241 228 241 223 174 c 1,48,49
 254 190 254 190 284 221 c 1,44,45
EndSplineSet
EndChar

StartChar: A
Encoding: 65 65 38
Width: 708
Flags: W
LayerCount: 2
Fore
SplineSet
690 8 m 2,0,-1
 690 0 l 1,1,-1
 458 0 l 1,2,3
 454 55 454 55 441 118 c 1,4,5
 371 48 371 48 301 0 c 1,6,-1
 68 0 l 1,7,8
 61 41 61 41 61 108.5 c 128,-1,9
 61 176 61 176 81 244 c 1,10,11
 153 265 153 265 219.5 315 c 128,-1,12
 286 365 286 365 316 423 c 1,13,14
 288 467 288 467 259 500 c 1,15,-1
 591 500 l 1,16,17
 690 283 690 283 690 8 c 2,0,-1
423 191 m 1,18,19
 398 277 398 277 355 359 c 1,20,21
 308 221 308 221 301 98 c 1,22,23
 375 138 375 138 423 191 c 1,18,19
EndSplineSet
EndChar

StartChar: B
Encoding: 66 66 39
Width: 695
Flags: W
LayerCount: 2
Fore
SplineSet
322 65 m 1,0,1
 390 65 390 65 433 76 c 1,2,3
 415 187 415 187 331 241 c 1,4,5
 322 152 322 152 322 65 c 1,0,1
70 300 m 0,6,7
 70 405 70 405 89 500 c 1,8,-1
 644 500 l 1,9,10
 599 360 599 360 472 297 c 1,11,12
 587 256 587 256 656 183 c 1,13,14
 647 90 647 90 613 0 c 1,15,-1
 110 0 l 1,16,17
 70 139 70 139 70 300 c 0,6,7
339 310 m 1,18,19
 388 323 388 323 430 355 c 128,-1,20
 472 387 472 387 490 434 c 1,21,22
 410 434 410 434 360 429 c 1,23,24
 348 371 348 371 339 310 c 1,18,19
EndSplineSet
EndChar

StartChar: C
Encoding: 67 67 40
Width: 632
Flags: W
LayerCount: 2
Fore
SplineSet
449 439 m 1,0,1
 414 445 414 445 381.5 445 c 128,-1,2
 349 445 349 445 303 434 c 1,3,4
 288 371 288 371 288 311 c 0,5,6
 288 156 288 156 426 73 c 1,7,8
 518 134 518 134 592 225 c 1,9,10
 595 185 595 185 597 103 c 1,11,12
 523 45 523 45 446 12 c 128,-1,13
 369 -21 369 -21 254 -21 c 2,14,-1
 231 -21 l 1,15,16
 141 18 141 18 89.5 94 c 128,-1,17
 38 170 38 170 38 254 c 0,18,19
 38 366 38 366 130 444.5 c 128,-1,20
 222 523 222 523 397 523 c 0,21,22
 495 523 495 523 602 498 c 1,23,24
 586 435 586 435 562 379 c 1,25,26
 499 373 499 373 432 373 c 1,27,28
 442 401 442 401 449 439 c 1,0,1
EndSplineSet
EndChar

StartChar: D
Encoding: 68 68 41
Width: 718
Flags: W
LayerCount: 2
Fore
SplineSet
315 523 m 0,0,1
 508 523 508 523 629 475 c 1,2,3
 672 389 672 389 672 301 c 0,4,5
 672 188 672 188 595 105 c 0,6,7
 483 -14 483 -14 292 -14 c 0,8,9
 226 -14 226 -14 113 1 c 1,10,11
 74 202 74 202 74 372 c 0,12,13
 74 431 74 431 80 500 c 1,14,15
 241 523 241 523 315 523 c 0,0,1
345 448 m 1,16,17
 327 260 327 260 327 178.5 c 128,-1,18
 327 97 327 97 330 46 c 1,19,20
 384 75 384 75 414.5 143.5 c 128,-1,21
 445 212 445 212 445 282.5 c 128,-1,22
 445 353 445 353 419.5 398 c 128,-1,23
 394 443 394 443 345 448 c 1,16,17
EndSplineSet
EndChar

StartChar: E
Encoding: 69 69 42
Width: 671
Flags: W
LayerCount: 2
Fore
SplineSet
415 299 m 1,0,-1
 509 293 l 2,1,2
 523 293 523 293 530 294 c 1,3,-1
 483 206 l 1,4,-1
 474 206 l 2,5,6
 455 206 455 206 420 216.5 c 128,-1,7
 385 227 385 227 370 227 c 0,8,9
 329 227 329 227 305 174 c 1,10,11
 301 125 301 125 299 76 c 1,12,13
 351 66 351 66 381 66 c 2,14,-1
 390 66 l 2,15,16
 433 66 433 66 458.5 85 c 128,-1,17
 484 104 484 104 495 153 c 1,18,-1
 615 148 l 1,19,20
 600 62 600 62 575 0 c 1,21,-1
 84 0 l 1,22,23
 64 135 64 135 64 268 c 128,-1,24
 64 401 64 401 78 500 c 1,25,-1
 614 500 l 1,26,27
 596 392 596 392 582 348 c 1,28,29
 523 345 523 345 474 344 c 1,30,31
 482 367 482 367 482 387 c 0,32,33
 482 435 482 435 410 435 c 0,34,35
 383 435 383 435 350 429 c 1,36,37
 328 334 328 334 316 262 c 1,38,39
 356 299 356 299 415 299 c 1,0,-1
EndSplineSet
EndChar

StartChar: F
Encoding: 70 70 43
Width: 619
Flags: W
LayerCount: 2
Fore
SplineSet
413 284 m 1,0,-1
 508 278 l 2,1,2
 521 278 521 278 528 279 c 1,3,-1
 481 191 l 1,4,-1
 472 191 l 2,5,6
 453 191 453 191 418 201.5 c 128,-1,7
 383 212 383 212 368 212 c 0,8,9
 329 212 329 212 305 161 c 1,10,11
 300 104 300 104 300 71 c 128,-1,12
 300 38 300 38 302 0 c 1,13,-1
 85 0 l 1,14,15
 66 128 66 128 66 264.5 c 128,-1,16
 66 401 66 401 80 499 c 1,17,-1
 614 499 l 1,18,19
 596 391 596 391 582 348 c 1,20,-1
 474 343 l 1,21,22
 483 368 483 368 483 386 c 0,23,24
 483 434 483 434 410 434 c 0,25,26
 378 434 378 434 351 429 c 1,27,28
 329 340 329 340 315 247 c 1,29,30
 355 284 355 284 413 284 c 1,0,-1
EndSplineSet
EndChar

StartChar: G
Encoding: 71 71 44
Width: 675
Flags: W
LayerCount: 2
Fore
SplineSet
416 49 m 1,0,-1
 417 91 l 1,1,2
 417 162 417 162 405 260 c 1,3,-1
 621 260 l 1,4,5
 621 118 621 118 607 0 c 1,6,7
 452 -22 452 -22 286 -22 c 2,8,-1
 222 -22 l 1,9,10
 131 17 131 17 80 92.5 c 128,-1,11
 29 168 29 168 29 253 c 0,12,13
 29 366 29 366 120.5 444.5 c 128,-1,14
 212 523 212 523 388 523 c 0,15,16
 480 523 480 523 593 498 c 1,17,18
 576 430 576 430 554 378 c 1,19,20
 493 374 493 374 423 372 c 1,21,22
 434 406 434 406 439 439 c 1,23,24
 407 445 407 445 373.5 445 c 128,-1,25
 340 445 340 445 294 434 c 1,26,27
 278 366 278 366 278 311 c 0,28,29
 278 228 278 228 315.5 155.5 c 128,-1,30
 353 83 353 83 416 49 c 1,0,-1
EndSplineSet
EndChar

StartChar: H
Encoding: 72 72 45
Width: 740
Flags: W
LayerCount: 2
Fore
SplineSet
699 417 m 0,0,1
 699 221 699 221 661 0 c 1,2,-1
 422 0 l 1,3,4
 438 118 438 118 443 254 c 1,5,6
 391 286 391 286 327 293 c 1,7,8
 321 146 321 146 295 0 c 1,9,-1
 68 0 l 1,10,11
 81 98 81 98 81 234.5 c 128,-1,12
 81 371 81 371 63 500 c 1,13,-1
 327 500 l 1,14,15
 329 459 329 459 329 378 c 1,16,17
 387 360 387 360 444 329 c 1,18,19
 444 422 444 422 437 500 c 1,20,-1
 697 500 l 1,21,22
 699 444 699 444 699 417 c 0,0,1
EndSplineSet
EndChar

StartChar: I
Encoding: 73 73 46
Width: 396
Flags: W
LayerCount: 2
Fore
SplineSet
341 500 m 1,0,-1
 341 473 l 2,1,2
 341 209 341 209 308 0 c 1,3,-1
 68 0 l 1,4,5
 87 92 87 92 87 212.5 c 128,-1,6
 87 333 87 333 71 500 c 1,7,-1
 341 500 l 1,0,-1
EndSplineSet
EndChar

StartChar: J
Encoding: 74 74 47
Width: 531
Flags: W
LayerCount: 2
Fore
SplineSet
192 -45 m 1,0,1
 199 33 199 33 199 170.5 c 128,-1,2
 199 308 199 308 176 500 c 1,3,-1
 446 500 l 1,4,5
 448 462 448 462 448 383 c 0,6,7
 448 171 448 171 420 0 c 1,8,9
 381 -37 381 -37 348 -54.5 c 128,-1,10
 315 -72 315 -72 303 -78.5 c 128,-1,11
 291 -85 291 -85 260 -98.5 c 128,-1,12
 229 -112 229 -112 223 -115 c 1,13,14
 95 -105 95 -105 5 -70 c 1,15,16
 7 -4 7 -4 11 52 c 1,17,18
 104 -15 104 -15 192 -45 c 1,0,1
EndSplineSet
EndChar

StartChar: K
Encoding: 75 75 48
Width: 707
Flags: W
LayerCount: 2
Fore
SplineSet
570 507 m 2,0,-1
 603 507 l 2,1,2
 667 507 667 507 698 522 c 1,3,4
 654 457 654 457 613 409 c 1,5,-1
 597 409 l 2,6,7
 546 409 546 409 498 425 c 1,8,9
 430 369 430 369 389 276 c 1,10,11
 495 249 495 249 625 244 c 1,12,13
 655 168 655 168 666 0 c 1,14,-1
 407 0 l 1,15,16
 390 74 390 74 355.5 136.5 c 128,-1,17
 321 199 321 199 284 222 c 1,18,19
 277 140 277 140 277 90 c 128,-1,20
 277 40 277 40 280 0 c 1,21,-1
 60 0 l 1,22,23
 41 147 41 147 41 248.5 c 128,-1,24
 41 350 41 350 56 500 c 1,25,-1
 334 500 l 1,26,27
 304 376 304 376 293 292 c 1,28,29
 338 366 338 366 387.5 416.5 c 128,-1,30
 437 467 437 467 505 502 c 1,31,32
 531 507 531 507 570 507 c 2,0,-1
EndSplineSet
EndChar

StartChar: L
Encoding: 76 76 49
Width: 602
Flags: W
LayerCount: 2
Fore
SplineSet
364 66 m 128,-1,1
 407 66 407 66 432.5 85.5 c 128,-1,2
 458 105 458 105 470 153 c 1,3,-1
 590 149 l 1,4,5
 575 59 575 59 550 0 c 1,6,-1
 59 0 l 1,7,8
 40 128 40 128 40 265 c 128,-1,9
 40 402 40 402 54 500 c 1,10,-1
 342 500 l 1,11,12
 276 247 276 247 274 77 c 1,13,0
 321 66 321 66 364 66 c 128,-1,1
EndSplineSet
EndChar

StartChar: M
Encoding: 77 77 50
Width: 1052
Flags: W
LayerCount: 2
Fore
SplineSet
657 454 m 0,0,1
 657 481 657 481 649 500 c 1,2,-1
 934 500 l 1,3,4
 970 404 970 404 987.5 265 c 128,-1,5
 1005 126 1005 126 1006 0 c 1,6,-1
 775 0 l 1,7,8
 768 180 768 180 716 347 c 1,9,10
 629 177 629 177 622 0 c 1,11,-1
 426 0 l 1,12,13
 400 196 400 196 326 348 c 1,14,15
 272 221 272 221 272 112 c 0,16,17
 272 53 272 53 286 0 c 1,18,-1
 43 0 l 1,19,20
 36 41 36 41 36 108.5 c 128,-1,21
 36 176 36 176 56 244 c 1,22,23
 127 265 127 265 192.5 313 c 128,-1,24
 258 361 258 361 289 418 c 1,25,26
 263 461 263 461 234 500 c 1,27,-1
 550 500 l 1,28,29
 588 397 588 397 607 276 c 1,30,31
 657 369 657 369 657 454 c 0,0,1
EndSplineSet
EndChar

StartChar: N
Encoding: 78 78 51
Width: 715
Flags: W
LayerCount: 2
Fore
SplineSet
646 500 m 1,0,1
 652 395 652 395 652 278.5 c 128,-1,2
 652 162 652 162 642 0 c 1,3,-1
 546 0 l 1,4,5
 352 104 352 104 190 283 c 1,6,7
 198 216 198 216 198 145.5 c 128,-1,8
 198 75 198 75 193 0 c 1,9,-1
 76 0 l 1,10,11
 96 123 96 123 96 227.5 c 128,-1,12
 96 332 96 332 86 393 c 1,13,14
 46 453 46 453 23 500 c 1,15,-1
 307 500 l 1,16,17
 349 428 349 428 421.5 351.5 c 128,-1,18
 494 275 494 275 560 232 c 1,19,20
 560 378 560 378 527 500 c 1,21,-1
 646 500 l 1,0,1
EndSplineSet
EndChar

StartChar: O
Encoding: 79 79 52
Width: 658
Flags: W
LayerCount: 2
Fore
SplineSet
123 3 m 1,0,1
 34 117 34 117 34 237 c 128,-1,2
 34 357 34 357 134 440 c 128,-1,3
 234 523 234 523 390 523 c 0,4,5
 473 523 473 523 555 498 c 1,6,7
 627 407 627 407 627 303 c 0,8,9
 627 172 627 172 520 75 c 128,-1,10
 413 -22 413 -22 261 -22 c 0,11,12
 196 -22 196 -22 123 3 c 1,0,1
275 436 m 1,13,14
 240 376 240 376 240 295 c 128,-1,15
 240 214 240 214 275.5 145.5 c 128,-1,16
 311 77 311 77 373 47 c 1,17,18
 420 107 420 107 420 186 c 128,-1,19
 420 265 420 265 381.5 333 c 128,-1,20
 343 401 343 401 275 436 c 1,13,14
EndSplineSet
EndChar

StartChar: P
Encoding: 80 80 53
Width: 665
Flags: W
LayerCount: 2
Fore
SplineSet
294 125 m 2,0,1
 294 68 294 68 299 0 c 1,2,-1
 79 0 l 1,3,4
 38 159 38 159 38 338 c 0,5,6
 38 429 38 429 49 500 c 1,7,-1
 591 500 l 1,8,9
 620 387 620 387 623 231 c 1,10,11
 475 165 475 165 294 145 c 1,12,-1
 294 125 l 2,0,1
295 214 m 1,13,14
 359 222 359 222 402 246 c 1,15,16
 386 352 386 352 316 434 c 1,17,18
 300 335 300 335 295 214 c 1,13,14
EndSplineSet
EndChar

StartChar: Q
Encoding: 81 81 54
Width: 666
Flags: W
LayerCount: 2
Fore
SplineSet
129 3 m 1,0,1
 40 117 40 117 40 236.5 c 128,-1,2
 40 356 40 356 140 439.5 c 128,-1,3
 240 523 240 523 396 523 c 0,4,5
 482 523 482 523 560 499 c 1,6,7
 633 407 633 407 633 302 c 0,8,9
 633 159 633 159 508 59 c 1,10,11
 519 61 519 61 548 69 c 128,-1,12
 577 77 577 77 595.5 77 c 128,-1,13
 614 77 614 77 635 70 c 1,14,-1
 707 -23 l 1,15,16
 687 1 687 1 648.5 1 c 128,-1,17
 610 1 610 1 546 -10 c 128,-1,18
 482 -21 482 -21 459 -22 c 1,19,20
 439 -13 439 -13 419 8 c 1,21,22
 346 -22 346 -22 274 -22 c 128,-1,23
 202 -22 202 -22 129 3 c 1,0,1
281 435 m 1,24,25
 245 373 245 373 245 293.5 c 128,-1,26
 245 214 245 214 281 145.5 c 128,-1,27
 317 77 317 77 379 47 c 1,28,29
 426 107 426 107 426 186 c 128,-1,30
 426 265 426 265 387.5 333 c 128,-1,31
 349 401 349 401 281 435 c 1,24,25
EndSplineSet
EndChar

StartChar: R
Encoding: 82 82 55
Width: 706
Flags: W
LayerCount: 2
Fore
SplineSet
622 326 m 1,0,-1
 621 292 l 1,1,2
 541 249 541 249 421 225 c 1,3,4
 507 202 507 202 587 202 c 2,5,-1
 608 202 l 1,6,7
 663 121 663 121 679 0 c 1,8,-1
 420 0 l 1,9,10
 410 70 410 70 379.5 120.5 c 128,-1,11
 349 171 349 171 305 189 c 1,12,13
 304 172 304 172 304 121 c 128,-1,14
 304 70 304 70 310 0 c 1,15,-1
 92 0 l 1,16,17
 63 145 63 145 63 269.5 c 128,-1,18
 63 394 63 394 77 500 c 1,19,-1
 599 500 l 1,20,21
 622 399 622 399 622 326 c 1,0,-1
326 433 m 1,22,23
 314 345 314 345 308 260 c 1,24,25
 363 268 363 268 398 299 c 1,26,27
 379 366 379 366 326 433 c 1,22,23
EndSplineSet
EndChar

StartChar: S
Encoding: 83 83 56
Width: 635
Flags: W
LayerCount: 2
Fore
SplineSet
423 440 m 1,0,1
 383 446 383 446 337.5 446 c 128,-1,2
 292 446 292 446 249 440 c 1,3,4
 276 394 276 394 313 365 c 128,-1,5
 350 336 350 336 406.5 307.5 c 128,-1,6
 463 279 463 279 498.5 255 c 128,-1,7
 534 231 534 231 577 176 c 128,-1,8
 620 121 620 121 631 61 c 1,9,10
 583 -1 583 -1 504 -48.5 c 128,-1,11
 425 -96 425 -96 342 -112 c 1,12,13
 286 -107 286 -107 200.5 -80.5 c 128,-1,14
 115 -54 115 -54 72 -54 c 128,-1,15
 29 -54 29 -54 -14 -81 c 1,16,17
 4 -30 4 -30 45 47 c 1,18,-1
 53 47 l 2,19,20
 117 47 117 47 173.5 27 c 128,-1,21
 230 7 230 7 276.5 -13 c 128,-1,22
 323 -33 323 -33 351.5 -33 c 128,-1,23
 380 -33 380 -33 393 -29 c 1,24,25
 393 37 393 37 352 80 c 0,26,27
 330 103 330 103 314.5 115.5 c 128,-1,28
 299 128 299 128 267 150 c 2,29,-1
 250 162 l 2,30,31
 182 209 182 209 138 257.5 c 128,-1,32
 94 306 94 306 74 377 c 1,33,34
 106 448 106 448 137 500 c 1,35,36
 232 523 232 523 334 523 c 2,37,-1
 378 523 l 2,38,39
 464 523 464 523 575 499 c 1,40,41
 559 433 559 433 536 380 c 1,42,43
 452 374 452 374 406 374 c 1,44,45
 415 397 415 397 423 440 c 1,0,1
EndSplineSet
EndChar

StartChar: T
Encoding: 84 84 57
Width: 705
Flags: W
LayerCount: 2
Fore
SplineSet
472 435 m 1,0,1
 446 277 446 277 446 177 c 128,-1,2
 446 77 446 77 454 0 c 1,3,-1
 236 0 l 1,4,5
 202 159 202 159 202 342 c 0,6,7
 202 373 202 373 204 435 c 1,8,9
 119 410 119 410 100 320 c 1,10,-1
 1 326 l 1,11,-1
 37 500 l 1,12,-1
 702 500 l 1,13,14
 682 390 682 390 656 320 c 1,15,-1
 555 326 l 1,16,17
 559 342 559 342 559 358 c 0,18,19
 559 397 559 397 535 416 c 128,-1,20
 511 435 511 435 472 435 c 1,0,1
EndSplineSet
EndChar

StartChar: U
Encoding: 85 85 58
Width: 701
Flags: W
LayerCount: 2
Fore
SplineSet
658 500 m 1,0,1
 662 435 662 435 662 310.5 c 128,-1,2
 662 186 662 186 646 45 c 1,3,4
 542 -22 542 -22 397 -22 c 0,5,6
 204 -22 204 -22 85 45 c 1,7,8
 72 153 72 153 72 254.5 c 128,-1,9
 72 356 72 356 87 500 c 1,10,-1
 356 500 l 1,11,12
 316 283 316 283 314 83 c 1,13,14
 356 45 356 45 435 45 c 128,-1,15
 514 45 514 45 556 73 c 1,16,17
 558 106 558 106 558 168 c 0,18,19
 558 326 558 326 530 500 c 1,20,-1
 658 500 l 1,0,1
EndSplineSet
EndChar

StartChar: V
Encoding: 86 86 59
Width: 703
Flags: W
LayerCount: 2
Fore
SplineSet
429 341 m 0,0,1
 429 414 429 414 403 500 c 1,2,-1
 670 500 l 1,3,4
 671 485 671 485 671 456 c 0,5,6
 671 328 671 328 637 245 c 1,7,8
 545 205 545 205 489.5 164.5 c 128,-1,9
 434 124 434 124 434 81 c 128,-1,10
 434 38 434 38 471 0 c 1,11,-1
 220 0 l 1,12,13
 51 215 51 215 8 500 c 1,14,-1
 281 500 l 1,15,16
 285 317 285 317 375 143 c 1,17,18
 429 233 429 233 429 341 c 0,0,1
EndSplineSet
EndChar

StartChar: W
Encoding: 87 87 60
Width: 1040
Flags: W
LayerCount: 2
Fore
SplineSet
785 346 m 0,0,1
 785 424 785 424 761 500 c 1,2,-1
 1029 500 l 1,3,4
 1030 485 1030 485 1030 456 c 0,5,6
 1030 328 1030 328 996 244 c 1,7,8
 907 218 907 218 848 175 c 128,-1,9
 789 132 789 132 789 86.5 c 128,-1,10
 789 41 789 41 830 0 c 1,11,-1
 578 0 l 1,12,13
 516 92 516 92 473 213 c 1,14,15
 440 138 440 138 440 86.5 c 128,-1,16
 440 35 440 35 469 0 c 1,17,-1
 218 0 l 1,18,19
 141 102 141 102 87 236 c 128,-1,20
 33 370 33 370 14 500 c 1,21,-1
 280 500 l 1,22,23
 297 285 297 285 368 143 c 1,24,25
 419 230 419 230 419 354 c 0,26,27
 419 421 419 421 402 500 c 1,28,-1
 640 500 l 1,29,30
 656 302 656 302 734 143 c 1,31,32
 785 237 785 237 785 346 c 0,0,1
EndSplineSet
EndChar

StartChar: X
Encoding: 88 88 61
Width: 701
Flags: W
LayerCount: 2
Fore
SplineSet
674 481 m 1,0,1
 642 473 642 473 618.5 473 c 128,-1,2
 595 473 595 473 574 476 c 1,3,4
 515 434 515 434 432 339 c 1,5,6
 553 150 553 150 625 0 c 1,7,-1
 376 0 l 1,8,9
 335 88 335 88 294 159 c 1,10,11
 183 1 183 1 123 -121 c 1,12,13
 103 -126 103 -126 64 -134.5 c 128,-1,14
 25 -143 25 -143 8 -147 c 1,15,16
 92 3 92 3 259 217 c 1,17,18
 156 378 156 378 26 500 c 1,19,-1
 337 500 l 1,20,21
 360 451 360 451 401 388 c 1,22,23
 409 397 409 397 432 424.5 c 128,-1,24
 455 452 455 452 468 466 c 128,-1,25
 481 480 481 480 502 500 c 0,26,27
 543 539 543 539 587 555 c 1,28,29
 604 560 604 560 656 565.5 c 128,-1,30
 708 571 708 571 731 586 c 1,31,32
 707 531 707 531 674 481 c 1,0,1
EndSplineSet
EndChar

StartChar: Y
Encoding: 89 89 62
Width: 688
Flags: W
LayerCount: 2
Fore
SplineSet
660 481 m 1,0,1
 626 473 626 473 603 473 c 128,-1,2
 580 473 580 473 559 476 c 1,3,4
 528 439 528 439 503 377 c 128,-1,5
 478 315 478 315 465.5 266 c 128,-1,6
 453 217 453 217 438 146 c 0,7,8
 362 -216 362 -216 286 -368 c 1,9,10
 236 -383 236 -383 162 -397 c 1,11,12
 262 -226 262 -226 324 0 c 1,13,-1
 117 0 l 1,14,15
 38 256 38 256 35 500 c 1,16,-1
 327 500 l 1,17,18
 306 407 306 407 306 302.5 c 128,-1,19
 306 198 306 198 340 64 c 1,20,21
 347 91 347 91 364 158.5 c 128,-1,22
 381 226 381 226 389 255 c 128,-1,23
 397 284 397 284 413.5 337 c 128,-1,24
 430 390 430 390 443.5 416.5 c 128,-1,25
 457 443 457 443 477 476 c 0,26,27
 513 535 513 535 572 556 c 0,28,29
 589 561 589 561 641 566.5 c 128,-1,30
 693 572 693 572 716 587 c 1,31,32
 689 525 689 525 660 481 c 1,0,1
EndSplineSet
EndChar

StartChar: Z
Encoding: 90 90 63
Width: 638
Flags: W
LayerCount: 2
Fore
SplineSet
396 67 m 2,0,-1
 405 67 l 2,1,2
 447 67 447 67 473 86 c 128,-1,3
 499 105 499 105 510 153 c 1,4,5
 584 151 584 151 630 149 c 1,6,7
 615 62 615 62 590 0 c 1,8,-1
 19 0 l 1,9,10
 154 242 154 242 315 430 c 1,11,12
 291 435 291 435 249 435 c 128,-1,13
 207 435 207 435 173 409.5 c 128,-1,14
 139 384 139 384 130 342 c 1,15,16
 53 347 53 347 32 349 c 1,17,-1
 63 500 l 1,18,-1
 620 500 l 1,19,20
 443 308 443 308 312 77 c 1,21,22
 364 67 364 67 396 67 c 2,0,-1
EndSplineSet
EndChar

StartChar: bracketleft
Encoding: 91 91 64
Width: 249
Flags: W
LayerCount: 2
Fore
SplineSet
199 -116 m 1,0,1
 179 -117 179 -117 110 -117 c 128,-1,2
 41 -117 41 -117 41 -109 c 0,3,4
 62 115 62 115 62 311 c 128,-1,5
 62 507 62 507 58 615 c 1,6,7
 121 605 121 605 234 605 c 1,8,9
 219 547 219 547 199 507 c 1,10,11
 191 506 191 506 167 506 c 1,12,13
 155 333 155 333 155 181 c 128,-1,14
 155 29 155 29 156 -17 c 1,15,16
 192 -19 192 -19 203 -19 c 128,-1,17
 214 -19 214 -19 222 -18.5 c 128,-1,18
 230 -18 230 -18 234 -18 c 1,19,20
 219 -76 219 -76 199 -116 c 1,0,1
EndSplineSet
EndChar

StartChar: backslash
Encoding: 92 92 65
Width: 372
Flags: W
LayerCount: 2
Fore
SplineSet
90 587 m 1,0,1
 266 183 266 183 434 -114 c 1,2,3
 385 -114 385 -114 311 -96 c 1,4,-1
 301 -94 l 1,5,6
 118 322 118 322 -44 607 c 1,7,8
 12 607 12 607 90 587 c 1,0,1
EndSplineSet
EndChar

StartChar: bracketright
Encoding: 93 93 66
Width: 248
Flags: W
LayerCount: 2
Fore
SplineSet
183 61 m 0,0,1
 183 3 183 3 185 -113 c 1,2,3
 98 -116 98 -116 70 -116 c 128,-1,4
 42 -116 42 -116 15 -111 c 1,5,6
 35 -65 35 -65 37 -7 c 1,7,8
 45 -8 45 -8 60 -10 c 2,9,-1
 81 -14 l 1,10,11
 94 155 94 155 94 308 c 128,-1,12
 94 461 94 461 93 506 c 1,13,14
 42 506 42 506 15 512 c 1,15,16
 35 560 35 560 37 615 c 1,17,18
 72 604 72 604 193 604 c 0,19,20
 208 604 208 604 208 605 c 1,21,22
 183 351 183 351 183 61 c 0,0,1
EndSplineSet
EndChar

StartChar: asciicircum
Encoding: 94 94 67
Width: 430
Flags: W
LayerCount: 2
Fore
SplineSet
106 341 m 1,0,-1
 13 341 l 1,1,-1
 165 500 l 1,2,-1
 264 500 l 1,3,-1
 415 341 l 1,4,-1
 323 341 l 1,5,-1
 214 428 l 1,6,-1
 106 341 l 1,0,-1
EndSplineSet
EndChar

StartChar: underscore
Encoding: 95 95 68
Width: 532
Flags: W
LayerCount: 2
Fore
SplineSet
264 64 m 128,-1,1
 409 64 409 64 513 69 c 1,2,-1
 513 1 l 1,3,4
 368 8 368 8 264.5 8 c 128,-1,5
 161 8 161 8 16 1 c 1,6,-1
 16 69 l 1,7,0
 119 64 119 64 264 64 c 128,-1,1
EndSplineSet
EndChar

StartChar: grave
Encoding: 96 96 69
Width: 273
Flags: W
LayerCount: 2
Fore
SplineSet
142 680 m 1,0,1
 173 597 173 597 245 550 c 1,2,-1
 179 550 l 1,3,4
 142 567 142 567 119 580 c 128,-1,5
 96 593 96 593 70.5 616 c 128,-1,6
 45 639 45 639 31 666 c 1,7,-1
 142 680 l 1,0,1
EndSplineSet
EndChar

StartChar: a
Encoding: 97 97 70
Width: 709
Flags: W
LayerCount: 2
Fore
SplineSet
690 8 m 2,0,-1
 690 0 l 1,1,-1
 458 0 l 1,2,3
 454 57 454 57 441 118 c 1,4,5
 379 55 379 55 301 0 c 1,6,-1
 68 0 l 1,7,8
 61 41 61 41 61 108.5 c 128,-1,9
 61 176 61 176 81 244 c 1,10,11
 153 265 153 265 219.5 315 c 128,-1,12
 286 365 286 365 316 423 c 1,13,14
 289 465 289 465 259 500 c 1,15,-1
 591 500 l 1,16,17
 690 285 690 285 690 8 c 2,0,-1
423 191 m 1,18,19
 397 280 397 280 355 359 c 1,20,21
 308 221 308 221 301 98 c 1,22,23
 373 135 373 135 423 191 c 1,18,19
EndSplineSet
EndChar

StartChar: b
Encoding: 98 98 71
Width: 695
Flags: W
LayerCount: 2
Fore
SplineSet
322 65 m 1,0,1
 390 65 390 65 433 76 c 1,2,3
 415 187 415 187 331 241 c 1,4,5
 322 152 322 152 322 65 c 1,0,1
70 300 m 0,6,7
 70 405 70 405 89 500 c 1,8,-1
 644 500 l 1,9,10
 599 360 599 360 472 297 c 1,11,12
 587 256 587 256 656 183 c 1,13,14
 647 90 647 90 613 0 c 1,15,-1
 110 0 l 1,16,17
 70 139 70 139 70 300 c 0,6,7
339 310 m 1,18,19
 388 323 388 323 430 355 c 128,-1,20
 472 387 472 387 490 434 c 1,21,22
 410 434 410 434 360 429 c 1,23,24
 348 371 348 371 339 310 c 1,18,19
EndSplineSet
EndChar

StartChar: c
Encoding: 99 99 72
Width: 632
Flags: W
LayerCount: 2
Fore
SplineSet
449 439 m 1,0,1
 414 445 414 445 381.5 445 c 128,-1,2
 349 445 349 445 303 434 c 1,3,4
 288 371 288 371 288 311 c 0,5,6
 288 156 288 156 426 73 c 1,7,8
 518 134 518 134 592 225 c 1,9,10
 595 185 595 185 597 103 c 1,11,12
 523 45 523 45 446 12 c 128,-1,13
 369 -21 369 -21 254 -21 c 2,14,-1
 231 -21 l 1,15,16
 141 18 141 18 89.5 94 c 128,-1,17
 38 170 38 170 38 254 c 0,18,19
 38 366 38 366 130 444.5 c 128,-1,20
 222 523 222 523 397 523 c 0,21,22
 495 523 495 523 602 498 c 1,23,24
 586 435 586 435 562 379 c 1,25,26
 499 373 499 373 432 373 c 1,27,28
 442 401 442 401 449 439 c 1,0,1
EndSplineSet
EndChar

StartChar: d
Encoding: 100 100 73
Width: 718
Flags: W
LayerCount: 2
Fore
SplineSet
315 523 m 0,0,1
 508 523 508 523 629 475 c 1,2,3
 672 389 672 389 672 301 c 0,4,5
 672 188 672 188 595 105 c 0,6,7
 483 -14 483 -14 292 -14 c 0,8,9
 226 -14 226 -14 113 1 c 1,10,11
 74 202 74 202 74 372 c 0,12,13
 74 431 74 431 80 500 c 1,14,15
 241 523 241 523 315 523 c 0,0,1
345 448 m 1,16,17
 327 260 327 260 327 178.5 c 128,-1,18
 327 97 327 97 330 46 c 1,19,20
 384 75 384 75 414.5 143.5 c 128,-1,21
 445 212 445 212 445 282.5 c 128,-1,22
 445 353 445 353 419.5 398 c 128,-1,23
 394 443 394 443 345 448 c 1,16,17
EndSplineSet
EndChar

StartChar: e
Encoding: 101 101 74
Width: 671
Flags: W
LayerCount: 2
Fore
SplineSet
415 299 m 1,0,-1
 509 293 l 2,1,2
 523 293 523 293 530 294 c 1,3,-1
 483 206 l 1,4,-1
 474 206 l 2,5,6
 455 206 455 206 420 216.5 c 128,-1,7
 385 227 385 227 370 227 c 0,8,9
 329 227 329 227 305 174 c 1,10,11
 301 125 301 125 299 76 c 1,12,13
 351 66 351 66 381 66 c 2,14,-1
 390 66 l 2,15,16
 433 66 433 66 458.5 85 c 128,-1,17
 484 104 484 104 495 153 c 1,18,-1
 615 148 l 1,19,20
 600 62 600 62 575 0 c 1,21,-1
 84 0 l 1,22,23
 64 135 64 135 64 268 c 128,-1,24
 64 401 64 401 78 500 c 1,25,-1
 614 500 l 1,26,27
 596 392 596 392 582 348 c 1,28,29
 523 345 523 345 474 344 c 1,30,31
 482 367 482 367 482 387 c 0,32,33
 482 435 482 435 410 435 c 0,34,35
 383 435 383 435 350 429 c 1,36,37
 328 334 328 334 316 262 c 1,38,39
 356 299 356 299 415 299 c 1,0,-1
EndSplineSet
EndChar

StartChar: f
Encoding: 102 102 75
Width: 619
Flags: W
LayerCount: 2
Fore
SplineSet
413 284 m 1,0,-1
 508 278 l 2,1,2
 521 278 521 278 528 279 c 1,3,-1
 481 191 l 1,4,-1
 472 191 l 2,5,6
 453 191 453 191 418 201.5 c 128,-1,7
 383 212 383 212 368 212 c 0,8,9
 329 212 329 212 305 161 c 1,10,11
 300 104 300 104 300 71 c 128,-1,12
 300 38 300 38 302 0 c 1,13,-1
 85 0 l 1,14,15
 66 128 66 128 66 264.5 c 128,-1,16
 66 401 66 401 80 499 c 1,17,-1
 614 499 l 1,18,19
 596 391 596 391 582 348 c 1,20,-1
 474 343 l 1,21,22
 483 368 483 368 483 386 c 0,23,24
 483 434 483 434 410 434 c 0,25,26
 378 434 378 434 351 429 c 1,27,28
 329 340 329 340 315 247 c 1,29,30
 355 284 355 284 413 284 c 1,0,-1
EndSplineSet
EndChar

StartChar: g
Encoding: 103 103 76
Width: 675
Flags: W
LayerCount: 2
Fore
SplineSet
416 49 m 1,0,-1
 417 91 l 1,1,2
 417 162 417 162 405 260 c 1,3,-1
 621 260 l 1,4,5
 621 118 621 118 607 0 c 1,6,7
 452 -22 452 -22 286 -22 c 2,8,-1
 222 -22 l 1,9,10
 131 17 131 17 80 92.5 c 128,-1,11
 29 168 29 168 29 253 c 0,12,13
 29 366 29 366 120.5 444.5 c 128,-1,14
 212 523 212 523 388 523 c 0,15,16
 480 523 480 523 593 498 c 1,17,18
 576 430 576 430 554 378 c 1,19,20
 493 374 493 374 423 372 c 1,21,22
 434 406 434 406 439 439 c 1,23,24
 407 445 407 445 373.5 445 c 128,-1,25
 340 445 340 445 294 434 c 1,26,27
 278 366 278 366 278 311 c 0,28,29
 278 228 278 228 315.5 155.5 c 128,-1,30
 353 83 353 83 416 49 c 1,0,-1
EndSplineSet
EndChar

StartChar: h
Encoding: 104 104 77
Width: 740
Flags: W
LayerCount: 2
Fore
SplineSet
699 417 m 0,0,1
 699 221 699 221 661 0 c 1,2,-1
 422 0 l 1,3,4
 438 118 438 118 443 254 c 1,5,6
 391 286 391 286 327 293 c 1,7,8
 321 146 321 146 295 0 c 1,9,-1
 68 0 l 1,10,11
 81 98 81 98 81 234.5 c 128,-1,12
 81 371 81 371 63 500 c 1,13,-1
 327 500 l 1,14,15
 329 459 329 459 329 378 c 1,16,17
 387 360 387 360 444 329 c 1,18,19
 444 422 444 422 437 500 c 1,20,-1
 697 500 l 1,21,22
 699 444 699 444 699 417 c 0,0,1
EndSplineSet
EndChar

StartChar: i
Encoding: 105 105 78
Width: 396
Flags: W
LayerCount: 2
Fore
SplineSet
341 500 m 1,0,-1
 341 473 l 2,1,2
 341 209 341 209 308 0 c 1,3,-1
 68 0 l 1,4,5
 87 92 87 92 87 212.5 c 128,-1,6
 87 333 87 333 71 500 c 1,7,-1
 341 500 l 1,0,-1
EndSplineSet
EndChar

StartChar: j
Encoding: 106 106 79
Width: 531
Flags: W
LayerCount: 2
Fore
SplineSet
192 -45 m 1,0,1
 199 33 199 33 199 170.5 c 128,-1,2
 199 308 199 308 176 500 c 1,3,-1
 446 500 l 1,4,5
 448 462 448 462 448 383 c 0,6,7
 448 171 448 171 420 0 c 1,8,9
 381 -37 381 -37 348 -54.5 c 128,-1,10
 315 -72 315 -72 303 -78.5 c 128,-1,11
 291 -85 291 -85 260 -98.5 c 128,-1,12
 229 -112 229 -112 223 -115 c 1,13,14
 95 -105 95 -105 5 -70 c 1,15,16
 7 -4 7 -4 11 52 c 1,17,18
 104 -15 104 -15 192 -45 c 1,0,1
EndSplineSet
EndChar

StartChar: k
Encoding: 107 107 80
Width: 707
Flags: W
LayerCount: 2
Fore
SplineSet
570 507 m 2,0,-1
 603 507 l 2,1,2
 667 507 667 507 698 522 c 1,3,4
 654 457 654 457 613 409 c 1,5,-1
 597 409 l 2,6,7
 546 409 546 409 498 425 c 1,8,9
 430 369 430 369 389 276 c 1,10,11
 495 249 495 249 625 244 c 1,12,13
 655 168 655 168 666 0 c 1,14,-1
 407 0 l 1,15,16
 390 74 390 74 355.5 136.5 c 128,-1,17
 321 199 321 199 284 222 c 1,18,19
 277 140 277 140 277 90 c 128,-1,20
 277 40 277 40 280 0 c 1,21,-1
 60 0 l 1,22,23
 41 147 41 147 41 248.5 c 128,-1,24
 41 350 41 350 56 500 c 1,25,-1
 334 500 l 1,26,27
 304 376 304 376 293 292 c 1,28,29
 338 366 338 366 387.5 416.5 c 128,-1,30
 437 467 437 467 505 502 c 1,31,32
 531 507 531 507 570 507 c 2,0,-1
EndSplineSet
EndChar

StartChar: l
Encoding: 108 108 81
Width: 602
Flags: W
LayerCount: 2
Fore
SplineSet
364 66 m 128,-1,1
 407 66 407 66 432.5 85.5 c 128,-1,2
 458 105 458 105 470 153 c 1,3,-1
 590 149 l 1,4,5
 575 59 575 59 550 0 c 1,6,-1
 59 0 l 1,7,8
 40 128 40 128 40 265 c 128,-1,9
 40 402 40 402 54 500 c 1,10,-1
 342 500 l 1,11,12
 276 247 276 247 274 77 c 1,13,0
 321 66 321 66 364 66 c 128,-1,1
EndSplineSet
EndChar

StartChar: m
Encoding: 109 109 82
Width: 1052
Flags: W
LayerCount: 2
Fore
SplineSet
657 454 m 0,0,1
 657 481 657 481 649 500 c 1,2,-1
 934 500 l 1,3,4
 970 404 970 404 987.5 265 c 128,-1,5
 1005 126 1005 126 1006 0 c 1,6,-1
 775 0 l 1,7,8
 768 180 768 180 716 347 c 1,9,10
 629 177 629 177 622 0 c 1,11,-1
 426 0 l 1,12,13
 400 196 400 196 326 348 c 1,14,15
 272 221 272 221 272 112 c 0,16,17
 272 53 272 53 286 0 c 1,18,-1
 43 0 l 1,19,20
 36 41 36 41 36 108.5 c 128,-1,21
 36 176 36 176 56 244 c 1,22,23
 127 265 127 265 192.5 313 c 128,-1,24
 258 361 258 361 289 418 c 1,25,26
 263 461 263 461 234 500 c 1,27,-1
 550 500 l 1,28,29
 588 397 588 397 607 276 c 1,30,31
 657 369 657 369 657 454 c 0,0,1
EndSplineSet
EndChar

StartChar: n
Encoding: 110 110 83
Width: 715
Flags: W
LayerCount: 2
Fore
SplineSet
646 500 m 1,0,1
 652 395 652 395 652 278.5 c 128,-1,2
 652 162 652 162 642 0 c 1,3,-1
 546 0 l 1,4,5
 352 104 352 104 190 283 c 1,6,7
 198 216 198 216 198 145.5 c 128,-1,8
 198 75 198 75 193 0 c 1,9,-1
 76 0 l 1,10,11
 96 123 96 123 96 227.5 c 128,-1,12
 96 332 96 332 86 393 c 1,13,14
 46 453 46 453 23 500 c 1,15,-1
 307 500 l 1,16,17
 349 428 349 428 421.5 351.5 c 128,-1,18
 494 275 494 275 560 232 c 1,19,20
 560 378 560 378 527 500 c 1,21,-1
 646 500 l 1,0,1
EndSplineSet
EndChar

StartChar: o
Encoding: 111 111 84
Width: 658
Flags: W
LayerCount: 2
Fore
SplineSet
123 3 m 1,0,1
 34 117 34 117 34 237 c 128,-1,2
 34 357 34 357 134 440 c 128,-1,3
 234 523 234 523 390 523 c 0,4,5
 473 523 473 523 555 498 c 1,6,7
 627 407 627 407 627 303 c 0,8,9
 627 172 627 172 520 75 c 128,-1,10
 413 -22 413 -22 261 -22 c 0,11,12
 196 -22 196 -22 123 3 c 1,0,1
275 436 m 1,13,14
 240 376 240 376 240 295 c 128,-1,15
 240 214 240 214 275.5 145.5 c 128,-1,16
 311 77 311 77 373 47 c 1,17,18
 420 107 420 107 420 186 c 128,-1,19
 420 265 420 265 381.5 333 c 128,-1,20
 343 401 343 401 275 436 c 1,13,14
EndSplineSet
EndChar

StartChar: p
Encoding: 112 112 85
Width: 665
Flags: W
LayerCount: 2
Fore
SplineSet
294 125 m 2,0,1
 294 68 294 68 299 0 c 1,2,-1
 79 0 l 1,3,4
 38 159 38 159 38 338 c 0,5,6
 38 429 38 429 49 500 c 1,7,-1
 591 500 l 1,8,9
 620 387 620 387 623 231 c 1,10,11
 475 165 475 165 294 145 c 1,12,-1
 294 125 l 2,0,1
295 214 m 1,13,14
 359 222 359 222 402 246 c 1,15,16
 386 352 386 352 316 434 c 1,17,18
 300 335 300 335 295 214 c 1,13,14
EndSplineSet
EndChar

StartChar: q
Encoding: 113 113 86
Width: 666
Flags: W
LayerCount: 2
Fore
SplineSet
129 3 m 1,0,1
 40 117 40 117 40 236.5 c 128,-1,2
 40 356 40 356 140 439.5 c 128,-1,3
 240 523 240 523 396 523 c 0,4,5
 482 523 482 523 560 499 c 1,6,7
 633 407 633 407 633 302 c 0,8,9
 633 159 633 159 508 59 c 1,10,11
 519 61 519 61 548 69 c 128,-1,12
 577 77 577 77 595.5 77 c 128,-1,13
 614 77 614 77 635 70 c 1,14,-1
 707 -23 l 1,15,16
 687 1 687 1 648.5 1 c 128,-1,17
 610 1 610 1 546 -10 c 128,-1,18
 482 -21 482 -21 459 -22 c 1,19,20
 439 -13 439 -13 419 8 c 1,21,22
 346 -22 346 -22 274 -22 c 128,-1,23
 202 -22 202 -22 129 3 c 1,0,1
281 435 m 1,24,25
 245 373 245 373 245 293.5 c 128,-1,26
 245 214 245 214 281 145.5 c 128,-1,27
 317 77 317 77 379 47 c 1,28,29
 426 107 426 107 426 186 c 128,-1,30
 426 265 426 265 387.5 333 c 128,-1,31
 349 401 349 401 281 435 c 1,24,25
EndSplineSet
EndChar

StartChar: r
Encoding: 114 114 87
Width: 706
Flags: W
LayerCount: 2
Fore
SplineSet
622 326 m 1,0,-1
 621 292 l 1,1,2
 541 249 541 249 421 225 c 1,3,4
 507 202 507 202 587 202 c 2,5,-1
 608 202 l 1,6,7
 663 121 663 121 679 0 c 1,8,-1
 420 0 l 1,9,10
 410 70 410 70 379.5 120.5 c 128,-1,11
 349 171 349 171 305 189 c 1,12,13
 304 172 304 172 304 121 c 128,-1,14
 304 70 304 70 310 0 c 1,15,-1
 92 0 l 1,16,17
 63 145 63 145 63 269.5 c 128,-1,18
 63 394 63 394 77 500 c 1,19,-1
 599 500 l 1,20,21
 622 399 622 399 622 326 c 1,0,-1
326 433 m 1,22,23
 314 345 314 345 308 260 c 1,24,25
 363 268 363 268 398 299 c 1,26,27
 379 366 379 366 326 433 c 1,22,23
EndSplineSet
EndChar

StartChar: s
Encoding: 115 115 88
Width: 635
Flags: W
LayerCount: 2
Fore
SplineSet
423 440 m 1,0,1
 383 446 383 446 337.5 446 c 128,-1,2
 292 446 292 446 249 440 c 1,3,4
 276 394 276 394 313 365 c 128,-1,5
 350 336 350 336 406.5 307.5 c 128,-1,6
 463 279 463 279 498.5 255 c 128,-1,7
 534 231 534 231 577 176 c 128,-1,8
 620 121 620 121 631 61 c 1,9,10
 583 -1 583 -1 504 -48.5 c 128,-1,11
 425 -96 425 -96 342 -112 c 1,12,13
 286 -107 286 -107 200.5 -80.5 c 128,-1,14
 115 -54 115 -54 72 -54 c 128,-1,15
 29 -54 29 -54 -14 -81 c 1,16,17
 4 -30 4 -30 45 47 c 1,18,-1
 53 47 l 2,19,20
 117 47 117 47 173.5 27 c 128,-1,21
 230 7 230 7 276.5 -13 c 128,-1,22
 323 -33 323 -33 351.5 -33 c 128,-1,23
 380 -33 380 -33 393 -29 c 1,24,25
 393 37 393 37 352 80 c 0,26,27
 330 103 330 103 314.5 115.5 c 128,-1,28
 299 128 299 128 267 150 c 2,29,-1
 250 162 l 2,30,31
 182 209 182 209 138 257.5 c 128,-1,32
 94 306 94 306 74 377 c 1,33,34
 106 448 106 448 137 500 c 1,35,36
 232 523 232 523 334 523 c 2,37,-1
 378 523 l 2,38,39
 464 523 464 523 575 499 c 1,40,41
 559 433 559 433 536 380 c 1,42,43
 452 374 452 374 406 374 c 1,44,45
 415 397 415 397 423 440 c 1,0,1
EndSplineSet
EndChar

StartChar: t
Encoding: 116 116 89
Width: 705
Flags: W
LayerCount: 2
Fore
SplineSet
472 435 m 1,0,1
 446 277 446 277 446 177 c 128,-1,2
 446 77 446 77 454 0 c 1,3,-1
 236 0 l 1,4,5
 202 159 202 159 202 342 c 0,6,7
 202 373 202 373 204 435 c 1,8,9
 119 410 119 410 100 320 c 1,10,-1
 1 326 l 1,11,-1
 37 500 l 1,12,-1
 702 500 l 1,13,14
 682 390 682 390 656 320 c 1,15,-1
 555 326 l 1,16,17
 559 342 559 342 559 358 c 0,18,19
 559 397 559 397 535 416 c 128,-1,20
 511 435 511 435 472 435 c 1,0,1
EndSplineSet
EndChar

StartChar: u
Encoding: 117 117 90
Width: 701
Flags: W
LayerCount: 2
Fore
SplineSet
658 500 m 1,0,1
 662 435 662 435 662 310.5 c 128,-1,2
 662 186 662 186 646 45 c 1,3,4
 542 -22 542 -22 397 -22 c 0,5,6
 204 -22 204 -22 85 45 c 1,7,8
 72 153 72 153 72 254.5 c 128,-1,9
 72 356 72 356 87 500 c 1,10,-1
 356 500 l 1,11,12
 316 283 316 283 314 83 c 1,13,14
 356 45 356 45 435 45 c 128,-1,15
 514 45 514 45 556 73 c 1,16,17
 558 106 558 106 558 168 c 0,18,19
 558 326 558 326 530 500 c 1,20,-1
 658 500 l 1,0,1
EndSplineSet
EndChar

StartChar: v
Encoding: 118 118 91
Width: 703
Flags: W
LayerCount: 2
Fore
SplineSet
429 341 m 0,0,1
 429 414 429 414 403 500 c 1,2,-1
 670 500 l 1,3,4
 671 485 671 485 671 456 c 0,5,6
 671 328 671 328 637 245 c 1,7,8
 545 205 545 205 489.5 164.5 c 128,-1,9
 434 124 434 124 434 81 c 128,-1,10
 434 38 434 38 471 0 c 1,11,-1
 220 0 l 1,12,13
 51 215 51 215 8 500 c 1,14,-1
 281 500 l 1,15,16
 285 317 285 317 375 143 c 1,17,18
 429 233 429 233 429 341 c 0,0,1
EndSplineSet
EndChar

StartChar: w
Encoding: 119 119 92
Width: 1040
Flags: W
LayerCount: 2
Fore
SplineSet
785 346 m 0,0,1
 785 424 785 424 761 500 c 1,2,-1
 1029 500 l 1,3,4
 1030 485 1030 485 1030 456 c 0,5,6
 1030 328 1030 328 996 244 c 1,7,8
 907 218 907 218 848 175 c 128,-1,9
 789 132 789 132 789 86.5 c 128,-1,10
 789 41 789 41 830 0 c 1,11,-1
 578 0 l 1,12,13
 516 92 516 92 473 213 c 1,14,15
 440 138 440 138 440 86.5 c 128,-1,16
 440 35 440 35 469 0 c 1,17,-1
 218 0 l 1,18,19
 141 102 141 102 87 236 c 128,-1,20
 33 370 33 370 14 500 c 1,21,-1
 280 500 l 1,22,23
 297 285 297 285 368 143 c 1,24,25
 419 230 419 230 419 354 c 0,26,27
 419 421 419 421 402 500 c 1,28,-1
 640 500 l 1,29,30
 656 302 656 302 734 143 c 1,31,32
 785 237 785 237 785 346 c 0,0,1
EndSplineSet
EndChar

StartChar: x
Encoding: 120 120 93
Width: 701
Flags: W
LayerCount: 2
Fore
SplineSet
674 481 m 1,0,1
 642 473 642 473 618.5 473 c 128,-1,2
 595 473 595 473 574 476 c 1,3,4
 515 434 515 434 432 339 c 1,5,6
 553 150 553 150 625 0 c 1,7,-1
 376 0 l 1,8,9
 335 88 335 88 294 159 c 1,10,11
 183 1 183 1 123 -121 c 1,12,13
 103 -126 103 -126 64 -134.5 c 128,-1,14
 25 -143 25 -143 8 -147 c 1,15,16
 92 3 92 3 259 217 c 1,17,18
 156 378 156 378 26 500 c 1,19,-1
 337 500 l 1,20,21
 360 451 360 451 401 388 c 1,22,23
 409 397 409 397 432 424.5 c 128,-1,24
 455 452 455 452 468 466 c 128,-1,25
 481 480 481 480 502 500 c 0,26,27
 543 539 543 539 587 555 c 1,28,29
 604 560 604 560 656 565.5 c 128,-1,30
 708 571 708 571 731 586 c 1,31,32
 707 531 707 531 674 481 c 1,0,1
EndSplineSet
EndChar

StartChar: y
Encoding: 121 121 94
Width: 688
Flags: W
LayerCount: 2
Fore
SplineSet
660 481 m 1,0,1
 626 473 626 473 603 473 c 128,-1,2
 580 473 580 473 559 476 c 1,3,4
 528 439 528 439 503 377 c 128,-1,5
 478 315 478 315 465.5 266 c 128,-1,6
 453 217 453 217 438 146 c 0,7,8
 362 -216 362 -216 286 -368 c 1,9,10
 236 -383 236 -383 162 -397 c 1,11,12
 262 -226 262 -226 324 0 c 1,13,-1
 117 0 l 1,14,15
 38 256 38 256 35 500 c 1,16,-1
 327 500 l 1,17,18
 306 407 306 407 306 302.5 c 128,-1,19
 306 198 306 198 340 64 c 1,20,21
 347 91 347 91 364 158.5 c 128,-1,22
 381 226 381 226 389 255 c 128,-1,23
 397 284 397 284 413.5 337 c 128,-1,24
 430 390 430 390 443.5 416.5 c 128,-1,25
 457 443 457 443 477 476 c 0,26,27
 513 535 513 535 572 556 c 0,28,29
 589 561 589 561 641 566.5 c 128,-1,30
 693 572 693 572 716 587 c 1,31,32
 689 525 689 525 660 481 c 1,0,1
EndSplineSet
EndChar

StartChar: z
Encoding: 122 122 95
Width: 638
Flags: W
LayerCount: 2
Fore
SplineSet
396 67 m 2,0,-1
 405 67 l 2,1,2
 447 67 447 67 473 86 c 128,-1,3
 499 105 499 105 510 153 c 1,4,5
 584 151 584 151 630 149 c 1,6,7
 615 62 615 62 590 0 c 1,8,-1
 19 0 l 1,9,10
 154 242 154 242 315 430 c 1,11,12
 291 435 291 435 249 435 c 128,-1,13
 207 435 207 435 173 409.5 c 128,-1,14
 139 384 139 384 130 342 c 1,15,16
 53 347 53 347 32 349 c 1,17,-1
 63 500 l 1,18,-1
 620 500 l 1,19,20
 443 308 443 308 312 77 c 1,21,22
 364 67 364 67 396 67 c 2,0,-1
EndSplineSet
EndChar

StartChar: braceleft
Encoding: 123 123 96
Width: 254
Flags: W
LayerCount: 2
Fore
SplineSet
147 605 m 1,0,-1
 214 605 l 1,1,2
 186 488 186 488 178.5 374 c 128,-1,3
 171 260 171 260 135 246 c 1,4,5
 173 231 173 231 186 138 c 1,6,7
 202 11 202 11 249 -114 c 1,8,9
 211 -109 211 -109 137 -94 c 1,10,11
 65 17 65 17 54 161 c 0,12,13
 49 217 49 217 28 234 c 0,14,15
 19 242 19 242 5 246 c 1,16,17
 33 252 33 252 44 286 c 0,18,19
 54 315 54 315 63 376 c 1,20,21
 86 504 86 504 147 605 c 1,0,-1
EndSplineSet
EndChar

StartChar: bar
Encoding: 124 124 97
Width: 129
Flags: W
LayerCount: 2
Fore
SplineSet
31 -119 m 1,0,1
 39 190 39 190 39 256 c 128,-1,2
 39 322 39 322 30 599 c 1,3,-1
 99 599 l 1,4,5
 90 390 90 390 90 246 c 128,-1,6
 90 102 90 102 99 -119 c 1,7,-1
 31 -119 l 1,0,1
EndSplineSet
EndChar

StartChar: braceright
Encoding: 125 125 98
Width: 252
Flags: W
LayerCount: 2
Fore
SplineSet
107 -114 m 1,0,-1
 40 -114 l 1,1,2
 70 21 70 21 76 116 c 1,3,4
 81 232 81 232 119 246 c 1,5,6
 79 260 79 260 68 353 c 1,7,8
 49 493 49 493 5 605 c 1,9,10
 38 601 38 601 117 585 c 1,11,12
 181 488 181 488 199 353 c 1,13,14
 199 324 199 324 205 301.5 c 128,-1,15
 211 279 211 279 216 272 c 1,16,17
 227 252 227 252 250 246 c 1,18,19
 219 240 219 240 208 206 c 0,20,21
 198 173 198 173 195 147 c 0,22,23
 179 6 179 6 107 -114 c 1,0,-1
EndSplineSet
EndChar

StartChar: asciitilde
Encoding: 126 126 99
Width: 449
Flags: W
LayerCount: 2
Fore
SplineSet
134 224 m 0,0,1
 80 224 80 224 29 183 c 1,2,-1
 66 272 l 1,3,4
 110 294 110 294 170 294 c 0,5,6
 198 294 198 294 249 275.5 c 128,-1,7
 300 257 300 257 328 257 c 0,8,9
 381 257 381 257 432 298 c 1,10,-1
 395 209 l 1,11,12
 355 187 355 187 291 187 c 0,13,14
 263 187 263 187 212 205.5 c 128,-1,15
 161 224 161 224 134 224 c 0,0,1
EndSplineSet
EndChar

StartChar: exclamdown
Encoding: 161 161 101
Width: 302
Flags: W
LayerCount: 2
Fore
SplineSet
283 0 m 1,0,-1
 15 -32 l 1,1,2
 81 144 81 144 88 363 c 1,3,4
 128 375 128 375 188 379 c 1,5,6
 222 316 222 316 250 206.5 c 128,-1,7
 278 97 278 97 283 0 c 1,0,-1
33 517 m 1,8,9
 70 523 70 523 123.5 523 c 128,-1,10
 177 523 177 523 188 522 c 1,11,12
 208 484 208 484 223 425 c 1,13,-1
 190 425 l 2,14,15
 112 425 112 425 55 415 c 1,16,17
 53 472 53 472 33 517 c 1,8,9
EndSplineSet
EndChar

StartChar: cent
Encoding: 162 162 102
Width: 663
Flags: W
LayerCount: 2
Fore
SplineSet
38 253 m 0,0,1
 38 359 38 359 120 436 c 128,-1,2
 202 513 202 513 359 522 c 1,3,4
 362 534 362 534 366 560 c 1,5,-1
 420 560 l 1,6,7
 413 531 413 531 412 523 c 1,8,9
 499 521 499 521 602 498 c 1,10,11
 587 438 587 438 562 378 c 1,12,13
 507 373 507 373 432 371 c 1,14,15
 442 408 442 408 448 439 c 1,16,17
 421 443 421 443 395 445 c 1,18,19
 355 246 355 246 338 147 c 1,20,21
 371 106 371 106 427 73 c 1,22,23
 519 134 519 134 591 225 c 1,24,25
 595 170 595 170 597 103 c 1,26,27
 461 -5 461 -5 311 -19 c 1,28,-1
 305 -57 l 1,29,-1
 251 -57 l 1,30,31
 254 -43 254 -43 258 -22 c 1,32,-1
 230 -22 l 1,33,34
 140 17 140 17 89 92.5 c 128,-1,35
 38 168 38 168 38 253 c 0,0,1
303 434 m 1,36,37
 287 367 287 367 287 311.5 c 128,-1,38
 287 256 287 256 305 209 c 1,39,40
 314 255 314 255 346 442 c 1,41,42
 335 440 335 440 303 434 c 1,36,37
EndSplineSet
EndChar

StartChar: sterling
Encoding: 163 163 103
Width: 588
Flags: W
LayerCount: 2
Fore
SplineSet
114 275 m 1,0,-1
 216 275 l 1,1,2
 200 346 200 346 132 427 c 1,3,4
 169 494 169 494 231 548 c 1,5,6
 366 547 366 547 436 509 c 1,7,8
 436 474 436 474 430 414 c 1,9,10
 370 496 370 496 264 496 c 1,11,12
 271 483 271 483 326 402.5 c 128,-1,13
 381 322 381 322 399 273 c 1,14,15
 430 273 430 273 492 275 c 1,16,-1
 492 226 l 1,17,-1
 412 226 l 1,18,-1
 414 204 l 1,19,20
 414 101 414 101 368 44 c 1,21,22
 396 40 396 40 431 40 c 0,23,24
 518 40 518 40 586 72 c 1,25,26
 559 5 559 5 528 -49 c 1,27,28
 432 -49 432 -49 330 1 c 1,29,30
 260 -27 260 -27 171 -27 c 2,31,-1
 161 -27 l 1,32,33
 81 -26 81 -26 20 1 c 1,34,35
 26 30 26 30 37 57 c 1,36,37
 101 76 101 76 155 77 c 1,38,39
 213 141 213 141 219 227 c 1,40,41
 149 225 149 225 114 223 c 1,42,-1
 114 275 l 1,0,-1
EndSplineSet
EndChar

StartChar: currency
Encoding: 164 164 104
Width: 312
Flags: W
LayerCount: 2
Fore
SplineSet
309 117 m 1,0,1
 286 94 286 94 262 70 c 1,2,-1
 221 116 l 1,3,4
 192 98 192 98 157 98 c 128,-1,5
 122 98 122 98 93 116 c 1,6,-1
 52 70 l 1,7,-1
 5 117 l 1,8,-1
 50 159 l 1,9,10
 33 187 33 187 33 222.5 c 128,-1,11
 33 258 33 258 51 286 c 1,12,-1
 5 327 l 1,13,-1
 52 374 l 1,14,-1
 94 329 l 1,15,16
 122 346 122 346 157 346 c 128,-1,17
 192 346 192 346 220 329 c 1,18,-1
 262 374 l 1,19,20
 285 350 285 350 309 327 c 1,21,-1
 263 286 l 1,22,23
 281 258 281 258 281 222.5 c 128,-1,24
 281 187 281 187 264 159 c 1,25,-1
 309 117 l 1,0,1
157 302 m 128,-1,27
 124 302 124 302 100.5 278.5 c 128,-1,28
 77 255 77 255 77 222 c 128,-1,29
 77 189 77 189 100.5 165.5 c 128,-1,30
 124 142 124 142 157 142 c 128,-1,31
 190 142 190 142 213.5 165.5 c 128,-1,32
 237 189 237 189 237 222 c 128,-1,33
 237 255 237 255 213.5 278.5 c 128,-1,26
 190 302 190 302 157 302 c 128,-1,27
EndSplineSet
EndChar

StartChar: yen
Encoding: 165 165 105
Width: 734
Flags: W
LayerCount: 2
Fore
SplineSet
119 186 m 2,0,1
 56 186 56 186 25 185 c 1,2,-1
 25 235 l 1,3,-1
 171 235 l 1,4,5
 152 254 152 254 134 282 c 1,6,7
 27 279 27 279 25 279 c 1,8,-1
 25 332 l 1,9,10
 38 332 38 332 64.5 331.5 c 128,-1,11
 91 331 91 331 105 331 c 1,12,13
 63 410 63 410 40 500 c 1,14,-1
 313 500 l 1,15,16
 319 398 319 398 336 326 c 128,-1,17
 353 254 353 254 395 189 c 1,18,19
 462 260 462 260 462 346 c 0,20,21
 462 398 462 398 434 500 c 1,22,-1
 702 500 l 1,23,-1
 702 479 l 2,24,25
 702 399 702 399 676 332 c 1,26,-1
 717 332 l 1,27,-1
 717 279 l 1,28,29
 673 281 673 281 651 281 c 1,30,31
 634 254 634 254 615 233 c 1,32,33
 649 233 649 233 717 235 c 1,34,-1
 717 182 l 1,35,-1
 564 182 l 1,36,37
 523 156 523 156 495 143 c 1,38,39
 491 67 491 67 475 0 c 1,40,-1
 212 0 l 1,41,42
 254 80 254 80 262 146 c 1,43,44
 235 165 235 165 214 186 c 1,45,-1
 119 186 l 2,0,1
EndSplineSet
EndChar

StartChar: brokenbar
Encoding: 166 166 106
Width: 117
Flags: W
LayerCount: 2
Fore
SplineSet
25 323 m 1,0,1
 30 396 30 396 30 457.5 c 128,-1,2
 30 519 30 519 25 599 c 1,3,-1
 92 599 l 1,4,5
 86 528 86 528 86 459 c 128,-1,6
 86 390 86 390 92 323 c 1,7,-1
 25 323 l 1,0,1
25 -120 m 1,8,9
 30 -47 30 -47 30 15 c 128,-1,10
 30 77 30 77 25 157 c 1,11,-1
 92 157 l 1,12,13
 86 85 86 85 86 16 c 128,-1,14
 86 -53 86 -53 92 -120 c 1,15,-1
 25 -120 l 1,8,9
EndSplineSet
EndChar

StartChar: section
Encoding: 167 167 107
Width: 546
Flags: W
LayerCount: 2
Fore
SplineSet
257 608 m 2,0,-1
 279 608 l 2,1,2
 378 608 378 608 469 588 c 1,3,4
 453 534 453 534 434 484 c 1,5,-1
 322 479 l 1,6,7
 333 510 333 510 336 537 c 1,8,9
 307 547 307 547 273.5 547 c 128,-1,10
 240 547 240 547 211 533 c 1,11,12
 235 493 235 493 273 464 c 128,-1,13
 311 435 311 435 346 419.5 c 128,-1,14
 381 404 381 404 424 374.5 c 128,-1,15
 467 345 467 345 497 305 c 1,16,17
 486 268 486 268 463 224 c 128,-1,18
 440 180 440 180 420 153 c 1,19,20
 408 150 408 150 380 147 c 1,21,22
 454 105 454 105 494 51 c 1,23,24
 475 -19 475 -19 418 -100 c 1,25,26
 347 -115 347 -115 248 -115 c 2,27,-1
 229 -115 l 2,28,29
 146 -115 146 -115 49 -94 c 1,30,31
 65 -32 65 -32 83 9 c 1,32,-1
 196 15 l 1,33,34
 183 -16 183 -16 180 -43 c 1,35,36
 212 -55 212 -55 266 -55 c 128,-1,37
 320 -55 320 -55 351 -39 c 1,38,39
 321 -3 321 -3 194 76 c 0,40,41
 153 102 153 102 113 147.5 c 128,-1,42
 73 193 73 193 59 246 c 1,43,44
 78 280 78 280 125 341 c 1,45,46
 153 347 153 347 170 349 c 1,47,48
 83 420 83 420 61 499 c 1,49,50
 93 555 93 555 128 594 c 1,51,52
 196 608 196 608 257 608 c 2,0,-1
286 197 m 1,53,54
 335 200 335 200 360 208 c 1,55,56
 336 237 336 237 248 296 c 1,57,58
 226 295 226 295 195 285 c 1,59,60
 225 242 225 242 286 197 c 1,53,54
EndSplineSet
EndChar

StartChar: dieresis
Encoding: 168 168 108
Width: 344
Flags: W
LayerCount: 2
Fore
SplineSet
116 576 m 1,0,-1
 76 575 l 2,1,2
 56 575 56 575 18 577 c 1,3,4
 43 636 43 636 48 678 c 1,5,6
 101 673 101 673 150 672 c 1,7,8
 138 618 138 618 116 576 c 1,0,-1
295 576 m 1,9,-1
 254 575 l 2,10,11
 235 575 235 575 197 577 c 1,12,13
 221 638 221 638 227 678 c 1,14,15
 279 673 279 673 329 672 c 1,16,17
 315 616 315 616 295 576 c 1,9,-1
EndSplineSet
EndChar

StartChar: copyright
Encoding: 169 169 109
Width: 541
Flags: W
LayerCount: 2
Fore
SplineSet
318 342 m 1,0,1
 301 345 301 345 285.5 345 c 128,-1,2
 270 345 270 345 247 340 c 1,3,4
 239 305 239 305 239 281 c 0,5,6
 239 205 239 205 307 164 c 1,7,8
 352 193 352 193 388 238 c 1,9,-1
 391 178 l 1,10,11
 316 118 316 118 212 118 c 1,12,13
 168 137 168 137 143 174 c 128,-1,14
 118 211 118 211 118 259 c 128,-1,15
 118 307 118 307 163 345 c 128,-1,16
 208 383 208 383 293 383 c 0,17,18
 338 383 338 383 393 371 c 1,19,20
 386 339 386 339 374 313 c 1,21,22
 342 310 342 310 310 310 c 1,23,24
 313 318 313 318 318 342 c 1,0,1
263 472 m 128,-1,26
 171 472 171 472 106.5 407 c 128,-1,27
 42 342 42 342 42 250 c 128,-1,28
 42 158 42 158 107 93.5 c 128,-1,29
 172 29 172 29 263.5 29 c 128,-1,30
 355 29 355 29 420 93.5 c 128,-1,31
 485 158 485 158 485 250 c 128,-1,32
 485 342 485 342 420 407 c 128,-1,25
 355 472 355 472 263 472 c 128,-1,26
263 500 m 128,-1,34
 366 500 366 500 439.5 427 c 128,-1,35
 513 354 513 354 513 250 c 128,-1,36
 513 146 513 146 439.5 73 c 128,-1,37
 366 0 366 0 263 0 c 128,-1,38
 160 0 160 0 86.5 73 c 128,-1,39
 13 146 13 146 13 250 c 128,-1,40
 13 354 13 354 86.5 427 c 128,-1,33
 160 500 160 500 263 500 c 128,-1,34
EndSplineSet
EndChar

StartChar: ordfeminine
Encoding: 170 170 110
Width: 503
Flags: W
LayerCount: 2
Fore
SplineSet
481 222 m 1,0,-1
 311 222 l 1,1,2
 308 266 308 266 299 308 c 1,3,4
 256 263 256 263 197 222 c 1,5,-1
 26 222 l 1,6,7
 21 257 21 257 21 303.5 c 128,-1,8
 21 350 21 350 36 400 c 1,9,10
 89 415 89 415 138 452 c 128,-1,11
 187 489 187 489 208 531 c 1,12,13
 191 556 191 556 166 587 c 1,14,-1
 408 587 l 1,15,16
 481 430 481 430 481 222 c 1,0,-1
286 362 m 1,17,18
 265 430 265 430 237 484 c 1,19,20
 203 387 203 387 197 293 c 1,21,22
 251 322 251 322 286 362 c 1,17,18
EndSplineSet
EndChar

StartChar: guillemotleft
Encoding: 171 171 111
Width: 362
Flags: W
LayerCount: 2
Fore
SplineSet
113 23 m 1,0,-1
 4 244 l 1,1,-1
 113 465 l 1,2,-1
 195 465 l 1,3,-1
 119 244 l 1,4,-1
 195 23 l 1,5,-1
 113 23 l 1,0,-1
271 23 m 1,6,-1
 161 244 l 1,7,-1
 271 465 l 1,8,-1
 352 465 l 1,9,-1
 277 244 l 1,10,-1
 352 23 l 1,11,-1
 271 23 l 1,6,-1
EndSplineSet
EndChar

StartChar: logicalnot
Encoding: 172 172 112
Width: 615
Flags: W
LayerCount: 2
Fore
SplineSet
50 222 m 1,0,1
 188 217 188 217 307.5 217 c 128,-1,2
 427 217 427 217 565 222 c 1,3,4
 562 171 562 171 562 130.5 c 128,-1,5
 562 90 562 90 565 44 c 1,6,-1
 498 44 l 1,7,8
 501 95 501 95 501 128 c 2,9,-1
 501 158 l 1,10,11
 418 162 418 162 293.5 162 c 128,-1,12
 169 162 169 162 50 155 c 1,13,-1
 50 222 l 1,0,1
EndSplineSet
EndChar

StartChar: uni00AD
Encoding: 173 173 113
Width: 381
Flags: W
LayerCount: 2
Fore
SplineSet
93 305 m 1,0,-1
 160 304 l 1,1,2
 314 304 314 304 366 321 c 1,3,4
 334 269 334 269 291 224 c 1,5,-1
 261 224 l 2,6,7
 110 224 110 224 12 245 c 1,8,-1
 27 258 l 2,9,10
 70 296 70 296 93 305 c 1,0,-1
EndSplineSet
EndChar

StartChar: registered
Encoding: 174 174 114
Width: 549
Flags: W
LayerCount: 2
Fore
SplineSet
243 221 m 1,0,-1
 242 197 l 2,1,2
 242 173 242 173 246 127 c 1,3,-1
 137 127 l 1,4,5
 123 193 123 193 123 260.5 c 128,-1,6
 123 328 123 328 130 376 c 1,7,-1
 390 376 l 1,8,9
 401 323 401 323 401 272 c 1,10,11
 360 250 360 250 301 239 c 1,12,13
 346 227 346 227 395 227 c 1,14,15
 423 188 423 188 430 127 c 1,16,-1
 301 127 l 1,17,18
 296 162 296 162 280.5 187 c 128,-1,19
 265 212 265 212 243 221 c 1,0,-1
272 473 m 128,-1,21
 180 473 180 473 115.5 408 c 128,-1,22
 51 343 51 343 51 251.5 c 128,-1,23
 51 160 51 160 115.5 95 c 128,-1,24
 180 30 180 30 272 30 c 128,-1,25
 364 30 364 30 428.5 95 c 128,-1,26
 493 160 493 160 493 251.5 c 128,-1,27
 493 343 493 343 428.5 408 c 128,-1,20
 364 473 364 473 272 473 c 128,-1,21
272 501 m 128,-1,29
 376 501 376 501 449 427.5 c 128,-1,30
 522 354 522 354 522 251 c 128,-1,31
 522 148 522 148 449 74.5 c 128,-1,32
 376 1 376 1 272 1 c 128,-1,33
 168 1 168 1 95 74.5 c 128,-1,34
 22 148 22 148 22 251 c 128,-1,35
 22 354 22 354 95 427.5 c 128,-1,28
 168 501 168 501 272 501 c 128,-1,29
254 342 m 1,36,37
 248 299 248 299 245 256 c 1,38,39
 274 261 274 261 290 276 c 1,40,41
 279 311 279 311 254 342 c 1,36,37
EndSplineSet
EndChar

StartChar: degree
Encoding: 176 176 115
Width: 245
Flags: W
LayerCount: 2
Fore
SplineSet
104 585 m 1,0,1
 98 566 98 566 98 537 c 128,-1,2
 98 508 98 508 109.5 477 c 128,-1,3
 121 446 121 446 140 434 c 1,4,5
 149 455 149 455 149 484 c 128,-1,6
 149 513 149 513 137 541.5 c 128,-1,7
 125 570 125 570 104 585 c 1,0,1
47 415 m 1,8,9
 14 459 14 459 14 506.5 c 128,-1,10
 14 554 14 554 52.5 586.5 c 128,-1,11
 91 619 91 619 151 619 c 0,12,13
 179 619 179 619 207 612 c 1,14,15
 235 575 235 575 235 529 c 128,-1,16
 235 483 235 483 195 444.5 c 128,-1,17
 155 406 155 406 98 406 c 0,18,19
 72 406 72 406 47 415 c 1,8,9
EndSplineSet
EndChar

StartChar: plusminus
Encoding: 177 177 116
Width: 284
Flags: W
LayerCount: 2
Fore
SplineSet
118 315 m 1,0,1
 118 368 118 368 115 421 c 1,2,-1
 168 421 l 1,3,4
 163 363 163 363 163 315 c 1,5,6
 218 315 218 315 270 318 c 1,7,-1
 270 266 l 1,8,9
 201 270 201 270 163 271 c 1,10,11
 163 223 163 223 168 163 c 1,12,-1
 115 163 l 1,13,14
 118 217 118 217 118 271 c 1,15,16
 81 270 81 270 12 266 c 1,17,-1
 12 318 l 1,18,19
 65 315 65 315 118 315 c 1,0,1
12 117 m 1,20,21
 67 113 67 113 138.5 113 c 128,-1,22
 210 113 210 113 270 117 c 1,23,-1
 270 64 l 1,24,25
 197 69 197 69 139.5 69 c 128,-1,26
 82 69 82 69 12 64 c 1,27,-1
 12 117 l 1,20,21
EndSplineSet
EndChar

StartChar: twosuperior
Encoding: 178 178 117
Width: 426
Flags: W
LayerCount: 2
Fore
SplineSet
235 268 m 0,0,1
 312 268 312 268 336 332 c 1,2,3
 384 330 384 330 405 329 c 1,4,5
 399 268 399 268 376 221 c 1,6,-1
 29 221 l 1,7,8
 199 387 199 387 199 475 c 0,9,10
 199 518 199 518 163 544 c 1,11,12
 125 516 125 516 107 475 c 1,13,14
 97 478 97 478 74 485.5 c 128,-1,15
 51 493 51 493 38 497 c 1,16,17
 75 555 75 555 124 587 c 1,18,-1
 323 587 l 1,19,20
 377 547 377 547 399 487 c 1,21,22
 371 433 371 433 308 376.5 c 128,-1,23
 245 320 245 320 160 273 c 1,24,25
 200 268 200 268 235 268 c 0,0,1
EndSplineSet
EndChar

StartChar: threesuperior
Encoding: 179 179 118
Width: 398
Flags: W
LayerCount: 2
Fore
SplineSet
219 534 m 1,0,1
 206 539 206 539 174 539 c 128,-1,2
 142 539 142 539 124.5 531 c 128,-1,3
 107 523 107 523 103 514 c 0,4,5
 100 508 100 508 93 480 c 1,6,7
 70 480 70 480 32 482 c 1,8,9
 39 523 39 523 55 587 c 1,10,-1
 379 587 l 1,11,12
 340 499 340 499 231 435 c 1,13,14
 324 410 324 410 385 366 c 1,15,16
 351 281 351 281 278 221 c 1,17,-1
 49 221 l 1,18,19
 98 251 98 251 150 300.5 c 128,-1,20
 202 350 202 350 222 387 c 1,21,22
 182 417 182 417 130 428 c 1,23,24
 185 458 185 458 219 534 c 1,0,1
EndSplineSet
EndChar

StartChar: acute
Encoding: 180 180 119
Width: 273
Flags: W
LayerCount: 2
Fore
SplineSet
138 680 m 1,0,-1
 249 666 l 1,1,2
 235 639 235 639 209.5 616 c 128,-1,3
 184 593 184 593 161 580 c 128,-1,4
 138 567 138 567 101 550 c 1,5,-1
 35 550 l 1,6,7
 107 597 107 597 138 680 c 1,0,-1
EndSplineSet
EndChar

StartChar: mu
Encoding: 181 181 120
Width: 767
Flags: W
LayerCount: 2
Fore
SplineSet
732 500 m 1,0,1
 732 209 732 209 698 0 c 1,2,-1
 473 0 l 1,3,4
 478 24 478 24 480 57 c 1,5,6
 459 27 459 27 415 10 c 128,-1,7
 371 -7 371 -7 305.5 -7 c 128,-1,8
 240 -7 240 -7 202 23 c 1,9,10
 203 -99 203 -99 229 -248 c 1,11,-1
 83 -248 l 1,12,13
 58 13 58 13 58 320 c 0,14,15
 58 380 58 380 60 500 c 1,16,-1
 334 500 l 1,17,18
 318 382 318 382 307 177 c 1,19,-1
 307 163 l 2,20,21
 307 122 307 122 322 103.5 c 128,-1,22
 337 85 337 85 373 85 c 0,23,24
 446 85 446 85 476 163 c 1,25,26
 478 207 478 207 478 273.5 c 128,-1,27
 478 340 478 340 462 500 c 1,28,-1
 732 500 l 1,0,1
EndSplineSet
EndChar

StartChar: paragraph
Encoding: 182 182 121
Width: 434
Flags: W
LayerCount: 2
Fore
SplineSet
289 540 m 1,0,-1
 267 539 l 1,1,2
 262 361 262 361 262 210.5 c 128,-1,3
 262 60 262 60 268 -114 c 1,4,-1
 202 -114 l 1,5,6
 206 100 206 100 206 192 c 2,7,-1
 206 262 l 1,8,9
 133 262 133 262 82.5 309 c 128,-1,10
 32 356 32 356 32 423 c 128,-1,11
 32 490 32 490 82 537.5 c 128,-1,12
 132 585 132 585 205 586 c 1,13,-1
 381 586 l 1,14,15
 375 403 375 403 375 231.5 c 128,-1,16
 375 60 375 60 381 -114 c 1,17,-1
 314 -114 l 1,18,19
 319 71 319 71 319 193 c 128,-1,20
 319 315 319 315 315 539 c 1,21,-1
 311 539 l 1,22,-1
 289 540 l 1,0,-1
EndSplineSet
EndChar

StartChar: periodcentered
Encoding: 183 183 122
Width: 133
Flags: W
LayerCount: 2
Fore
SplineSet
30 291.5 m 128,-1,1
 45 306 45 306 65.5 306 c 128,-1,2
 86 306 86 306 100.5 291.5 c 128,-1,3
 115 277 115 277 115 256.5 c 128,-1,4
 115 236 115 236 100.5 221 c 128,-1,5
 86 206 86 206 65.5 206 c 128,-1,6
 45 206 45 206 30 221 c 128,-1,7
 15 236 15 236 15 256.5 c 128,-1,0
 15 277 15 277 30 291.5 c 128,-1,1
EndSplineSet
EndChar

StartChar: cedilla
Encoding: 184 184 123
Width: 183
Flags: W
LayerCount: 2
Fore
SplineSet
77 -48 m 1,0,-1
 120 -41 l 1,1,2
 137 -41 137 -41 151.5 -50.5 c 128,-1,3
 166 -60 166 -60 168 -75 c 1,4,-1
 168 -80 l 2,5,6
 168 -119 168 -119 132.5 -151.5 c 128,-1,7
 97 -184 97 -184 42 -185 c 1,8,-1
 36 -164 l 1,9,10
 66 -164 66 -164 82.5 -149.5 c 128,-1,11
 99 -135 99 -135 99 -117 c 0,12,13
 99 -91 99 -91 67 -91 c 0,14,15
 61 -91 61 -91 21 -106 c 1,16,-1
 65 22 l 1,17,-1
 101 22 l 1,18,-1
 77 -48 l 1,0,-1
EndSplineSet
EndChar

StartChar: onesuperior
Encoding: 185 185 124
Width: 298
Flags: W
LayerCount: 2
Fore
SplineSet
278 482 m 0,0,1
 278 340 278 340 263 221 c 1,2,-1
 97 221 l 1,3,4
 101 269 101 269 101 327.5 c 128,-1,5
 101 386 101 386 92 458 c 1,6,7
 78 448 78 448 44 424 c 1,8,-1
 11 482 l 1,9,10
 112 520 112 520 191 587 c 1,11,-1
 276 587 l 1,12,13
 278 517 278 517 278 482 c 0,0,1
EndSplineSet
EndChar

StartChar: ordmasculine
Encoding: 186 186 125
Width: 422
Flags: W
LayerCount: 2
Fore
SplineSet
68 225 m 1,0,1
 7 306 7 306 7 392 c 128,-1,2
 7 478 7 478 77.5 538 c 128,-1,3
 148 598 148 598 259 598 c 0,4,5
 309 598 309 598 361 585 c 1,6,7
 412 518 412 518 412 443 c 0,8,9
 412 349 412 349 339.5 279 c 128,-1,10
 267 209 267 209 163 209 c 0,11,12
 116 209 116 209 68 225 c 1,0,1
172 535 m 1,13,14
 162 502 162 502 162 448.5 c 128,-1,15
 162 395 162 395 183 338 c 128,-1,16
 204 281 204 281 239 258 c 1,17,18
 255 294 255 294 255 348 c 128,-1,19
 255 402 255 402 233 455.5 c 128,-1,20
 211 509 211 509 172 535 c 1,13,14
EndSplineSet
EndChar

StartChar: guillemotright
Encoding: 187 187 126
Width: 362
Flags: W
LayerCount: 2
Fore
SplineSet
355 244 m 1,0,-1
 246 23 l 1,1,-1
 164 23 l 1,2,-1
 240 244 l 1,3,-1
 164 465 l 1,4,-1
 246 465 l 1,5,-1
 355 244 l 1,0,-1
198 244 m 1,6,-1
 88 23 l 1,7,-1
 7 23 l 1,8,-1
 82 244 l 1,9,-1
 7 465 l 1,10,-1
 88 465 l 1,11,-1
 198 244 l 1,6,-1
EndSplineSet
EndChar

StartChar: onequarter
Encoding: 188 188 127
Width: 859
Flags: W
LayerCount: 2
Fore
SplineSet
272 485 m 0,0,1
 272 339 272 339 256 222 c 1,2,-1
 90 222 l 1,3,4
 94 271 94 271 94 333.5 c 128,-1,5
 94 396 94 396 86 459 c 1,6,7
 72 449 72 449 38 425 c 1,8,-1
 5 483 l 1,9,10
 103 520 103 520 184 587 c 1,11,-1
 270 587 l 1,12,13
 272 519 272 519 272 485 c 0,0,1
612 22 m 1,14,-1
 612 39 l 2,15,16
 612 67 612 67 606 109 c 1,17,-1
 604 120 l 1,18,-1
 788 120 l 1,19,20
 788 101 788 101 786 87 c 0,21,22
 783 55 783 55 781 22 c 1,23,24
 813 28 813 28 845 48 c 1,25,26
 822 -9 822 -9 813 -26 c 1,27,-1
 776 -26 l 1,28,-1
 770 -81 l 1,29,-1
 602 -81 l 1,30,31
 607 -50 607 -50 610 -26 c 1,32,-1
 445 -26 l 1,33,-1
 433 38 l 1,34,35
 479 85 479 85 512 154.5 c 128,-1,36
 545 224 545 224 554 285 c 1,37,-1
 713 285 l 1,38,39
 681 203 681 203 564 97 c 0,40,41
 542 77 542 77 505 46 c 1,42,-1
 493 35 l 1,43,44
 543 22 543 22 612 22 c 1,14,-1
491 587 m 1,45,46
 569 607 569 607 625 607 c 1,47,48
 463 322 463 322 280 -94 c 1,49,-1
 270 -96 l 1,50,51
 196 -114 196 -114 147 -114 c 1,52,53
 315 183 315 183 491 587 c 1,45,46
EndSplineSet
EndChar

StartChar: onehalf
Encoding: 189 189 128
Width: 945
Flags: W
LayerCount: 2
Fore
SplineSet
123 231 m 1,0,-1
 127 326 l 1,1,2
 127 386 127 386 118 459 c 1,3,4
 104 449 104 449 70 425 c 1,5,-1
 37 483 l 1,6,7
 138 521 138 521 216 587 c 1,8,-1
 302 587 l 1,9,10
 304 519 304 519 304 485 c 0,11,12
 304 339 304 339 288 222 c 1,13,-1
 123 222 l 1,14,-1
 123 231 l 1,0,-1
644 -29 m 1,15,16
 684 -34 684 -34 723 -34 c 0,17,18
 796 -34 796 -34 820 30 c 1,19,-1
 889 27 l 1,20,21
 880 -42 880 -42 859 -81 c 1,22,-1
 512 -81 l 1,23,24
 683 83 683 83 683 173 c 0,25,26
 683 216 683 216 647 242 c 1,27,28
 610 214 610 214 591 173 c 1,29,-1
 522 194 l 1,30,31
 559 254 559 254 608 284 c 1,32,-1
 807 284 l 1,33,34
 861 244 861 244 883 184 c 1,35,36
 855 131 855 131 792 74.5 c 128,-1,37
 729 18 729 18 644 -29 c 1,15,16
540 587 m 1,38,39
 618 607 618 607 674 607 c 1,40,41
 512 322 512 322 329 -94 c 1,42,-1
 319 -96 l 1,43,44
 245 -114 245 -114 196 -114 c 1,45,46
 364 183 364 183 540 587 c 1,38,39
EndSplineSet
EndChar

StartChar: threequarters
Encoding: 190 190 129
Width: 921
Flags: W
LayerCount: 2
Fore
SplineSet
676 22 m 1,0,1
 676 68 676 68 670 109 c 1,2,-1
 668 120 l 1,3,-1
 852 120 l 1,4,5
 852 101 852 101 850 87 c 0,6,7
 847 55 847 55 845 22 c 1,8,9
 877 28 877 28 909 48 c 1,10,11
 886 -9 886 -9 877 -26 c 1,12,-1
 840 -26 l 1,13,-1
 834 -81 l 1,14,-1
 666 -81 l 1,15,16
 672 -48 672 -48 673 -26 c 1,17,-1
 509 -26 l 1,18,-1
 497 38 l 1,19,20
 543 85 543 85 575.5 154 c 128,-1,21
 608 223 608 223 617 284 c 1,22,-1
 776 284 l 1,23,24
 750 221 750 221 686.5 153 c 128,-1,25
 623 85 623 85 557 35 c 1,26,27
 607 22 607 22 676 22 c 1,0,1
210 534 m 1,28,29
 197 539 197 539 165 539 c 128,-1,30
 133 539 133 539 114.5 531 c 128,-1,31
 96 523 96 523 92 514 c 128,-1,32
 88 505 88 505 86 493.5 c 128,-1,33
 84 482 84 482 83 480 c 1,34,35
 62 480 62 480 22 482 c 1,36,37
 31 527 31 527 46 586 c 1,38,-1
 370 586 l 1,39,40
 331 500 331 500 222 434 c 1,41,42
 316 408 316 408 376 366 c 1,43,44
 340 280 340 280 269 221 c 1,45,-1
 40 221 l 1,46,47
 89 252 89 252 141 301.5 c 128,-1,48
 193 351 193 351 212 387 c 1,49,50
 172 417 172 417 121 428 c 1,51,52
 177 459 177 459 210 534 c 1,28,29
557 587 m 1,53,54
 635 607 635 607 691 607 c 1,55,56
 529 322 529 322 346 -94 c 1,57,-1
 336 -96 l 1,58,59
 262 -114 262 -114 213 -114 c 1,60,61
 381 183 381 183 557 587 c 1,53,54
EndSplineSet
EndChar

StartChar: questiondown
Encoding: 191 191 130
Width: 489
Flags: W
LayerCount: 2
Fore
SplineSet
216 -23 m 0,0,1
 120 -23 120 -23 15 0 c 1,2,3
 27 63 27 63 53 117 c 1,4,5
 125 124 125 124 181 124 c 1,6,7
 170 83 170 83 164 51 c 1,8,9
 186 46 186 46 207 46 c 128,-1,10
 228 46 228 46 254 55 c 1,11,12
 274 92 274 92 274 135.5 c 128,-1,13
 274 179 274 179 232.5 261.5 c 128,-1,14
 191 344 191 344 183 372 c 1,15,16
 214 380 214 380 283 387 c 1,17,18
 301 330 301 330 383 258 c 0,19,20
 413 231 413 231 439 194 c 128,-1,21
 465 157 465 157 469 121 c 1,22,23
 469 56 469 56 409 16.5 c 128,-1,24
 349 -23 349 -23 216 -23 c 0,0,1
128 517 m 1,25,26
 167 523 167 523 219.5 523 c 128,-1,27
 272 523 272 523 283 522 c 1,28,29
 304 481 304 481 318 425 c 1,30,31
 207 425 207 425 150 415 c 1,32,33
 148 471 148 471 128 517 c 1,25,26
EndSplineSet
EndChar

StartChar: Agrave
Encoding: 192 192 131
Width: 767
Flags: W
LayerCount: 2
Fore
SplineSet
81 244 m 1,0,1
 153 265 153 265 219.5 315 c 128,-1,2
 286 365 286 365 316 423 c 1,3,4
 289 465 289 465 259 500 c 1,5,-1
 591 500 l 1,6,7
 690 285 690 285 690 8 c 2,8,-1
 690 0 l 1,9,-1
 458 0 l 1,10,11
 454 57 454 57 441 118 c 1,12,13
 379 55 379 55 301 0 c 1,14,-1
 68 0 l 1,15,16
 61 41 61 41 61 108.5 c 128,-1,17
 61 176 61 176 81 244 c 1,0,1
423 191 m 1,18,19
 397 280 397 280 355 359 c 1,20,21
 308 221 308 221 301 98 c 1,22,23
 373 135 373 135 423 191 c 1,18,19
387 680 m 1,24,25
 418 597 418 597 490 550 c 1,26,-1
 424 550 l 1,27,28
 387 567 387 567 364 580 c 128,-1,29
 341 593 341 593 315.5 616 c 128,-1,30
 290 639 290 639 276 666 c 1,31,-1
 387 680 l 1,24,25
EndSplineSet
EndChar

StartChar: Aacute
Encoding: 193 193 132
Width: 767
Flags: W
LayerCount: 2
Fore
SplineSet
690 8 m 2,0,-1
 690 0 l 1,1,-1
 458 0 l 1,2,3
 454 57 454 57 441 118 c 1,4,5
 379 55 379 55 301 0 c 1,6,-1
 68 0 l 1,7,8
 61 41 61 41 61 108.5 c 128,-1,9
 61 176 61 176 81 244 c 1,10,11
 153 265 153 265 219.5 315 c 128,-1,12
 286 365 286 365 316 423 c 1,13,14
 289 465 289 465 259 500 c 1,15,-1
 591 500 l 1,16,17
 690 285 690 285 690 8 c 2,0,-1
423 191 m 1,18,19
 397 280 397 280 355 359 c 1,20,21
 308 221 308 221 301 98 c 1,22,23
 373 135 373 135 423 191 c 1,18,19
379 680 m 1,24,-1
 490 666 l 1,25,26
 476 639 476 639 450.5 616 c 128,-1,27
 425 593 425 593 402 580 c 128,-1,28
 379 567 379 567 342 550 c 1,29,-1
 276 550 l 1,30,31
 348 597 348 597 379 680 c 1,24,-1
EndSplineSet
EndChar

StartChar: Acircumflex
Encoding: 194 194 133
Width: 767
Flags: W
LayerCount: 2
Fore
SplineSet
81 244 m 1,0,1
 153 265 153 265 219.5 315 c 128,-1,2
 286 365 286 365 316 423 c 1,3,4
 289 465 289 465 259 500 c 1,5,-1
 591 500 l 1,6,7
 690 285 690 285 690 8 c 2,8,-1
 690 0 l 1,9,-1
 458 0 l 1,10,11
 454 57 454 57 441 118 c 1,12,13
 379 55 379 55 301 0 c 1,14,-1
 68 0 l 1,15,16
 61 41 61 41 61 108.5 c 128,-1,17
 61 176 61 176 81 244 c 1,0,1
423 191 m 1,18,19
 397 280 397 280 355 359 c 1,20,21
 308 221 308 221 301 98 c 1,22,23
 373 135 373 135 423 191 c 1,18,19
284 558 m 1,24,-1
 374 673 l 1,25,-1
 423 673 l 1,26,-1
 513 558 l 1,27,-1
 481 558 l 1,28,-1
 398 620 l 1,29,-1
 316 558 l 1,30,-1
 284 558 l 1,24,-1
EndSplineSet
EndChar

StartChar: Atilde
Encoding: 195 195 134
Width: 767
Flags: W
LayerCount: 2
Fore
SplineSet
690 8 m 2,0,-1
 690 0 l 1,1,-1
 458 0 l 1,2,3
 454 57 454 57 441 118 c 1,4,5
 379 55 379 55 301 0 c 1,6,-1
 68 0 l 1,7,8
 61 41 61 41 61 108.5 c 128,-1,9
 61 176 61 176 81 244 c 1,10,11
 153 265 153 265 219.5 315 c 128,-1,12
 286 365 286 365 316 423 c 1,13,14
 289 465 289 465 259 500 c 1,15,-1
 591 500 l 1,16,17
 690 285 690 285 690 8 c 2,0,-1
423 191 m 1,18,19
 397 280 397 280 355 359 c 1,20,21
 308 221 308 221 301 98 c 1,22,23
 373 135 373 135 423 191 c 1,18,19
485.5 586.5 m 128,-1,25
 465 575 465 575 435.5 575 c 128,-1,26
 406 575 406 575 372 595.5 c 128,-1,27
 338 616 338 616 322 616 c 0,28,29
 285 616 285 616 256 583 c 1,30,-1
 269 623 l 1,31,32
 281 637 281 637 299.5 648.5 c 128,-1,33
 318 660 318 660 339.5 660 c 128,-1,34
 361 660 361 660 391.5 649 c 128,-1,35
 422 638 422 638 444 638 c 0,36,37
 498 638 498 638 543 685 c 1,38,39
 539 677 539 677 529 648 c 128,-1,40
 519 619 519 619 512.5 608.5 c 128,-1,24
 506 598 506 598 485.5 586.5 c 128,-1,25
EndSplineSet
EndChar

StartChar: Adieresis
Encoding: 196 196 135
Width: 767
Flags: W
LayerCount: 2
Fore
SplineSet
690 8 m 2,0,-1
 690 0 l 1,1,-1
 458 0 l 1,2,3
 454 57 454 57 441 118 c 1,4,5
 379 55 379 55 301 0 c 1,6,-1
 68 0 l 1,7,8
 61 41 61 41 61 108.5 c 128,-1,9
 61 176 61 176 81 244 c 1,10,11
 153 265 153 265 219.5 315 c 128,-1,12
 286 365 286 365 316 423 c 1,13,14
 289 465 289 465 259 500 c 1,15,-1
 591 500 l 1,16,17
 690 285 690 285 690 8 c 2,0,-1
423 191 m 1,18,19
 397 280 397 280 355 359 c 1,20,21
 308 221 308 221 301 98 c 1,22,23
 373 135 373 135 423 191 c 1,18,19
326 576 m 1,24,-1
 286 575 l 2,25,26
 266 575 266 575 228 577 c 1,27,28
 253 636 253 636 258 678 c 1,29,30
 311 673 311 673 360 672 c 1,31,32
 348 618 348 618 326 576 c 1,24,-1
505 576 m 1,33,-1
 464 575 l 2,34,35
 445 575 445 575 407 577 c 1,36,37
 431 638 431 638 437 678 c 1,38,39
 489 673 489 673 539 672 c 1,40,41
 525 616 525 616 505 576 c 1,33,-1
EndSplineSet
EndChar

StartChar: Aring
Encoding: 197 197 136
Width: 767
Flags: W
LayerCount: 2
Fore
SplineSet
81 244 m 1,0,1
 153 265 153 265 219.5 315 c 128,-1,2
 286 365 286 365 316 423 c 1,3,4
 289 465 289 465 259 500 c 1,5,-1
 591 500 l 1,6,7
 690 285 690 285 690 8 c 2,8,-1
 690 0 l 1,9,-1
 458 0 l 1,10,11
 454 57 454 57 441 118 c 1,12,13
 379 55 379 55 301 0 c 1,14,-1
 68 0 l 1,15,16
 61 41 61 41 61 108.5 c 128,-1,17
 61 176 61 176 81 244 c 1,0,1
423 191 m 1,18,19
 397 280 397 280 355 359 c 1,20,21
 308 221 308 221 301 98 c 1,22,23
 373 135 373 135 423 191 c 1,18,19
378 558 m 1,24,25
 349 580 349 580 349 606.5 c 128,-1,26
 349 633 349 633 377.5 654.5 c 128,-1,27
 406 676 406 676 440 676 c 128,-1,28
 474 676 474 676 486.5 660.5 c 128,-1,29
 499 645 499 645 499 620.5 c 128,-1,30
 499 596 499 596 472 574.5 c 128,-1,31
 445 553 445 553 409 553 c 0,32,33
 395 553 395 553 378 558 c 1,24,25
404 624 m 0,34,35
 404 582 404 582 435 568 c 1,36,37
 445 581 445 581 445 601 c 0,38,39
 445 641 445 641 412 656 c 1,40,41
 404 640 404 640 404 624 c 0,34,35
EndSplineSet
EndChar

StartChar: AE
Encoding: 198 198 137
Width: 1027
Flags: W
LayerCount: 2
Fore
SplineSet
777 298 m 1,0,-1
 869 292 l 2,1,2
 872 292 872 292 877.5 292.5 c 128,-1,3
 883 293 883 293 886 293 c 1,4,-1
 839 206 l 1,5,-1
 829 206 l 2,6,7
 810 206 810 206 775.5 216 c 128,-1,8
 741 226 741 226 726 226 c 0,9,10
 684 226 684 226 661 173 c 1,11,12
 657 126 657 126 655 76 c 1,13,14
 707 66 707 66 736 66 c 2,15,-1
 745 66 l 2,16,17
 788 66 788 66 813.5 85 c 128,-1,18
 839 104 839 104 850 153 c 1,19,-1
 971 148 l 1,20,21
 956 62 956 62 931 0 c 1,22,-1
 437 0 l 1,23,24
 430 69 430 69 420 118 c 1,25,26
 355 52 355 52 280 0 c 1,27,-1
 48 0 l 1,28,29
 41 42 41 42 41 111.5 c 128,-1,30
 41 181 41 181 60 244 c 1,31,32
 133 265 133 265 200 315 c 128,-1,33
 267 365 267 365 296 423 c 1,34,35
 265 468 265 468 238 500 c 1,36,-1
 970 500 l 1,37,38
 953 399 953 399 937 348 c 1,39,-1
 829 343 l 1,40,41
 838 370 838 370 838 387 c 0,42,43
 838 434 838 434 765 434 c 0,44,45
 734 434 734 434 706 429 c 1,46,47
 683 334 683 334 672 261 c 1,48,49
 712 298 712 298 771 298 c 2,50,-1
 777 298 l 1,0,-1
402 191 m 1,51,52
 376 283 376 283 335 358 c 1,53,54
 289 223 289 223 280 98 c 1,55,56
 352 135 352 135 402 191 c 1,51,52
EndSplineSet
EndChar

StartChar: Ccedilla
Encoding: 199 199 138
Width: 632
Flags: W
LayerCount: 2
Fore
SplineSet
308 -52 m 1,0,-1
 351 -45 l 1,1,2
 368 -45 368 -45 382.5 -54.5 c 128,-1,3
 397 -64 397 -64 399 -79 c 1,4,-1
 399 -84 l 2,5,6
 399 -123 399 -123 363.5 -155.5 c 128,-1,7
 328 -188 328 -188 273 -189 c 1,8,-1
 267 -168 l 1,9,10
 297 -168 297 -168 313.5 -153.5 c 128,-1,11
 330 -139 330 -139 330 -121 c 0,12,13
 330 -95 330 -95 298 -95 c 0,14,15
 292 -95 292 -95 252 -110 c 1,16,-1
 283 -20 l 1,17,18
 273 -21 273 -21 254 -21 c 2,19,-1
 231 -21 l 1,20,21
 141 18 141 18 89.5 94 c 128,-1,22
 38 170 38 170 38 254 c 0,23,24
 38 366 38 366 130 444.5 c 128,-1,25
 222 523 222 523 397 523 c 0,26,27
 495 523 495 523 602 498 c 1,28,29
 586 435 586 435 562 379 c 1,30,31
 499 373 499 373 432 373 c 1,32,33
 442 401 442 401 449 439 c 1,34,35
 414 445 414 445 381.5 445 c 128,-1,36
 349 445 349 445 303 434 c 1,37,38
 288 371 288 371 288 311 c 0,39,40
 288 156 288 156 426 73 c 1,41,42
 518 134 518 134 592 225 c 1,43,44
 595 185 595 185 597 103 c 1,45,46
 534 54 534 54 471 23 c 128,-1,47
 408 -8 408 -8 320 -17 c 1,48,-1
 308 -52 l 1,0,-1
EndSplineSet
EndChar

StartChar: Egrave
Encoding: 200 200 139
Width: 671
Flags: W
LayerCount: 2
Fore
SplineSet
509 293 m 2,0,1
 523 293 523 293 530 294 c 1,2,-1
 483 206 l 1,3,-1
 474 206 l 2,4,5
 455 206 455 206 420 216.5 c 128,-1,6
 385 227 385 227 370 227 c 0,7,8
 329 227 329 227 305 174 c 1,9,10
 301 125 301 125 299 76 c 1,11,12
 351 66 351 66 381 66 c 2,13,-1
 390 66 l 2,14,15
 433 66 433 66 458.5 85 c 128,-1,16
 484 104 484 104 495 153 c 1,17,-1
 615 148 l 1,18,19
 600 62 600 62 575 0 c 1,20,21
 575 0 575 0 84 0 c 1,22,23
 64 135 64 135 64 268 c 128,-1,24
 64 401 64 401 78 500 c 1,25,-1
 614 500 l 1,26,27
 596 392 596 392 582 348 c 1,28,29
 523 345 523 345 474 344 c 1,30,31
 482 367 482 367 482 387 c 0,32,33
 482 435 482 435 410 435 c 0,34,35
 383 435 383 435 350 429 c 1,36,37
 328 334 328 334 316 262 c 1,38,39
 356 299 356 299 415 299 c 1,40,-1
 509 293 l 2,0,1
339 680 m 1,41,42
 370 597 370 597 442 550 c 1,43,-1
 376 550 l 1,44,45
 339 567 339 567 316 580 c 128,-1,46
 293 593 293 593 267.5 616 c 128,-1,47
 242 639 242 639 228 666 c 1,48,-1
 339 680 l 1,41,42
EndSplineSet
EndChar

StartChar: Eacute
Encoding: 201 201 140
Width: 671
Flags: W
LayerCount: 2
Fore
SplineSet
415 299 m 1,0,-1
 509 293 l 2,1,2
 523 293 523 293 530 294 c 1,3,-1
 483 206 l 1,4,-1
 474 206 l 2,5,6
 455 206 455 206 420 216.5 c 128,-1,7
 385 227 385 227 370 227 c 0,8,9
 329 227 329 227 305 174 c 1,10,11
 301 125 301 125 299 76 c 1,12,13
 351 66 351 66 381 66 c 2,14,-1
 390 66 l 2,15,16
 433 66 433 66 458.5 85 c 128,-1,17
 484 104 484 104 495 153 c 1,18,-1
 615 148 l 1,19,20
 600 62 600 62 575 0 c 1,21,-1
 84 0 l 1,22,23
 64 135 64 135 64 268 c 128,-1,24
 64 401 64 401 78 500 c 1,25,-1
 614 500 l 1,26,27
 596 392 596 392 582 348 c 1,28,29
 523 345 523 345 474 344 c 1,30,31
 482 367 482 367 482 387 c 0,32,33
 482 435 482 435 410 435 c 0,34,35
 383 435 383 435 350 429 c 1,36,37
 328 334 328 334 316 262 c 1,38,39
 356 299 356 299 415 299 c 1,0,-1
331 680 m 1,40,-1
 442 666 l 1,41,42
 428 639 428 639 402.5 616 c 128,-1,43
 377 593 377 593 354 580 c 128,-1,44
 331 567 331 567 294 550 c 1,45,-1
 228 550 l 1,46,47
 300 597 300 597 331 680 c 1,40,-1
EndSplineSet
EndChar

StartChar: Ecircumflex
Encoding: 202 202 141
Width: 671
Flags: W
LayerCount: 2
Fore
SplineSet
415 299 m 1,0,-1
 509 293 l 2,1,2
 523 293 523 293 530 294 c 1,3,-1
 483 206 l 1,4,-1
 474 206 l 2,5,6
 455 206 455 206 420 216.5 c 128,-1,7
 385 227 385 227 370 227 c 0,8,9
 328 227 328 227 305 174 c 1,10,11
 300 124 300 124 299 76 c 1,12,13
 343 66 343 66 381 66 c 2,14,-1
 390 66 l 2,15,16
 434 66 434 66 458.5 85 c 128,-1,17
 483 104 483 104 495 153 c 1,18,-1
 615 148 l 1,19,20
 598 57 598 57 575 0 c 1,21,-1
 84 0 l 1,22,23
 64 135 64 135 64 271.5 c 128,-1,24
 64 408 64 408 78 500 c 1,25,-1
 614 500 l 1,26,27
 590 377 590 377 582 348 c 1,28,29
 552 346 552 346 474 344 c 1,30,31
 482 368 482 368 482 387 c 0,32,33
 482 435 482 435 410 435 c 0,34,35
 383 435 383 435 350 429 c 1,36,37
 327 329 327 329 316 262 c 1,38,39
 358 299 358 299 415 299 c 1,0,-1
221 558 m 1,40,-1
 311 673 l 1,41,-1
 360 673 l 1,42,-1
 450 558 l 1,43,-1
 418 558 l 1,44,-1
 335 620 l 1,45,-1
 253 558 l 1,46,-1
 221 558 l 1,40,-1
EndSplineSet
EndChar

StartChar: Edieresis
Encoding: 203 203 142
Width: 671
Flags: W
LayerCount: 2
Fore
SplineSet
415 299 m 1,0,-1
 509 293 l 2,1,2
 523 293 523 293 530 294 c 1,3,-1
 483 206 l 1,4,-1
 474 206 l 2,5,6
 455 206 455 206 420 216.5 c 128,-1,7
 385 227 385 227 370 227 c 0,8,9
 328 227 328 227 305 174 c 1,10,11
 300 124 300 124 299 76 c 1,12,13
 343 66 343 66 381 66 c 2,14,-1
 390 66 l 2,15,16
 434 66 434 66 458.5 85 c 128,-1,17
 483 104 483 104 495 153 c 1,18,-1
 615 148 l 1,19,20
 598 57 598 57 575 0 c 1,21,-1
 84 0 l 1,22,23
 64 135 64 135 64 271.5 c 128,-1,24
 64 408 64 408 78 500 c 1,25,-1
 614 500 l 1,26,27
 590 377 590 377 582 348 c 1,28,29
 552 346 552 346 474 344 c 1,30,31
 482 368 482 368 482 387 c 0,32,33
 482 435 482 435 410 435 c 0,34,35
 383 435 383 435 350 429 c 1,36,37
 327 329 327 329 316 262 c 1,38,39
 358 299 358 299 415 299 c 1,0,-1
278 576 m 1,40,-1
 238 575 l 2,41,42
 218 575 218 575 180 577 c 1,43,44
 204 630 204 630 210 678 c 1,45,46
 262 674 262 674 312 672 c 1,47,48
 300 618 300 618 278 576 c 1,40,-1
457 576 m 1,49,-1
 416 575 l 2,50,51
 397 575 397 575 359 577 c 1,52,53
 383 638 383 638 389 678 c 1,54,55
 442 674 442 674 491 672 c 1,56,57
 477 616 477 616 457 576 c 1,49,-1
EndSplineSet
EndChar

StartChar: Igrave
Encoding: 204 204 143
Width: 396
Flags: W
LayerCount: 2
Fore
SplineSet
341 500 m 1,0,-1
 341 473 l 2,1,2
 341 209 341 209 308 0 c 1,3,-1
 68 0 l 1,4,5
 87 92 87 92 87 212.5 c 128,-1,6
 87 333 87 333 71 500 c 1,7,-1
 341 500 l 1,0,-1
202 680 m 1,8,9
 233 597 233 597 305 550 c 1,10,-1
 239 550 l 1,11,12
 202 567 202 567 179 580 c 128,-1,13
 156 593 156 593 130.5 616 c 128,-1,14
 105 639 105 639 91 666 c 1,15,-1
 202 680 l 1,8,9
EndSplineSet
EndChar

StartChar: Iacute
Encoding: 205 205 144
Width: 396
Flags: W
LayerCount: 2
Fore
SplineSet
341 500 m 1,0,-1
 341 473 l 2,1,2
 341 209 341 209 308 0 c 1,3,-1
 68 0 l 1,4,5
 87 92 87 92 87 212.5 c 128,-1,6
 87 333 87 333 71 500 c 1,7,-1
 341 500 l 1,0,-1
194 680 m 1,8,-1
 305 666 l 1,9,10
 291 639 291 639 265.5 616 c 128,-1,11
 240 593 240 593 217 580 c 128,-1,12
 194 567 194 567 157 550 c 1,13,-1
 91 550 l 1,14,15
 163 597 163 597 194 680 c 1,8,-1
EndSplineSet
EndChar

StartChar: Icircumflex
Encoding: 206 206 145
Width: 396
Flags: W
LayerCount: 2
Fore
SplineSet
341 500 m 1,0,-1
 341 473 l 2,1,2
 341 209 341 209 308 0 c 1,3,-1
 68 0 l 1,4,5
 87 92 87 92 87 212.5 c 128,-1,6
 87 333 87 333 71 500 c 1,7,-1
 341 500 l 1,0,-1
83 558 m 1,8,-1
 173 673 l 1,9,-1
 222 673 l 1,10,-1
 312 558 l 1,11,-1
 280 558 l 1,12,-1
 197 620 l 1,13,-1
 115 558 l 1,14,-1
 83 558 l 1,8,-1
EndSplineSet
EndChar

StartChar: Idieresis
Encoding: 207 207 146
Width: 396
Flags: W
LayerCount: 2
Fore
SplineSet
341 500 m 1,0,-1
 341 473 l 2,1,2
 341 209 341 209 308 0 c 1,3,-1
 68 0 l 1,4,5
 87 92 87 92 87 212.5 c 128,-1,6
 87 333 87 333 71 500 c 1,7,-1
 341 500 l 1,0,-1
140 576 m 1,8,-1
 100 575 l 2,9,10
 80 575 80 575 42 577 c 1,11,12
 67 636 67 636 72 678 c 1,13,14
 125 673 125 673 174 672 c 1,15,16
 162 618 162 618 140 576 c 1,8,-1
319 576 m 1,17,-1
 278 575 l 2,18,19
 259 575 259 575 221 577 c 1,20,21
 245 638 245 638 251 678 c 1,22,23
 303 673 303 673 353 672 c 1,24,25
 339 616 339 616 319 576 c 1,17,-1
EndSplineSet
EndChar

StartChar: Eth
Encoding: 208 208 147
Width: 730
Flags: W
LayerCount: 2
Fore
SplineSet
339 523 m 0,0,1
 534 523 534 523 659 474 c 1,2,3
 704 387 704 387 704 298 c 0,4,5
 704 182 704 182 627 99 c 0,6,7
 515 -22 515 -22 320 -22 c 0,8,9
 258 -22 258 -22 166 -10 c 2,10,-1
 136 -6 l 1,11,12
 111 118 111 118 101 233 c 1,13,14
 18 239 18 239 0 242 c 1,15,16
 6 246 6 246 18 256 c 0,17,18
 44 278 44 278 58 284 c 1,19,-1
 97 284 l 1,20,21
 95 313 95 313 95 375.5 c 128,-1,22
 95 438 95 438 101 506 c 1,23,24
 220 523 220 523 339 523 c 0,0,1
355 228 m 1,25,26
 353 172 353 172 353 132.5 c 128,-1,27
 353 93 353 93 356 39 c 1,28,29
 411 68 411 68 442 137 c 128,-1,30
 473 206 473 206 473 277.5 c 128,-1,31
 473 349 473 349 446.5 396 c 128,-1,32
 420 443 420 443 371 448 c 1,33,34
 365 385 365 385 358 288 c 1,35,36
 420 290 420 290 442 296 c 1,37,38
 418 254 418 254 391 228 c 1,39,-1
 355 228 l 1,25,26
EndSplineSet
EndChar

StartChar: Ntilde
Encoding: 209 209 148
Width: 715
Flags: W
LayerCount: 2
Fore
SplineSet
646 500 m 1,0,1
 652 395 652 395 652 278.5 c 128,-1,2
 652 162 652 162 642 0 c 1,3,-1
 546 0 l 1,4,5
 352 104 352 104 190 283 c 1,6,7
 198 216 198 216 198 145.5 c 128,-1,8
 198 75 198 75 193 0 c 1,9,-1
 76 0 l 1,10,11
 96 123 96 123 96 227.5 c 128,-1,12
 96 332 96 332 86 393 c 1,13,14
 46 453 46 453 23 500 c 1,15,-1
 307 500 l 1,16,17
 349 428 349 428 421.5 351.5 c 128,-1,18
 494 275 494 275 560 232 c 1,19,20
 560 378 560 378 527 500 c 1,21,-1
 646 500 l 1,0,1
443.5 586.5 m 128,-1,23
 423 575 423 575 393.5 575 c 128,-1,24
 364 575 364 575 330 595.5 c 128,-1,25
 296 616 296 616 280 616 c 0,26,27
 243 616 243 616 214 583 c 1,28,-1
 227 623 l 1,29,30
 239 637 239 637 257.5 648.5 c 128,-1,31
 276 660 276 660 297.5 660 c 128,-1,32
 319 660 319 660 349.5 649 c 128,-1,33
 380 638 380 638 402 638 c 0,34,35
 456 638 456 638 501 685 c 1,36,37
 497 677 497 677 487 648 c 128,-1,38
 477 619 477 619 470.5 608.5 c 128,-1,22
 464 598 464 598 443.5 586.5 c 128,-1,23
EndSplineSet
EndChar

StartChar: Ograve
Encoding: 210 210 149
Width: 658
Flags: W
LayerCount: 2
Fore
SplineSet
261 -22 m 0,0,1
 196 -22 196 -22 123 3 c 1,2,3
 34 117 34 117 34 237 c 128,-1,4
 34 357 34 357 134 440 c 128,-1,5
 234 523 234 523 390 523 c 0,6,7
 473 523 473 523 555 498 c 1,8,9
 627 407 627 407 627 303 c 0,10,11
 627 172 627 172 520 75 c 128,-1,12
 413 -22 413 -22 261 -22 c 0,0,1
381.5 333 m 128,-1,14
 343 401 343 401 275 436 c 1,15,16
 240 376 240 376 240 295 c 128,-1,17
 240 214 240 214 275.5 145.5 c 128,-1,18
 311 77 311 77 373 47 c 1,19,20
 420 107 420 107 420 186 c 128,-1,13
 420 265 420 265 381.5 333 c 128,-1,14
333 680 m 1,21,22
 364 597 364 597 436 550 c 1,23,-1
 370 550 l 1,24,25
 333 567 333 567 310 580 c 128,-1,26
 287 593 287 593 261.5 616 c 128,-1,27
 236 639 236 639 222 666 c 1,28,-1
 333 680 l 1,21,22
EndSplineSet
EndChar

StartChar: Oacute
Encoding: 211 211 150
Width: 658
Flags: W
LayerCount: 2
Fore
SplineSet
123 3 m 1,0,1
 34 117 34 117 34 237 c 128,-1,2
 34 357 34 357 134 440 c 128,-1,3
 234 523 234 523 390 523 c 0,4,5
 473 523 473 523 555 498 c 1,6,7
 627 407 627 407 627 303 c 0,8,9
 627 172 627 172 520 75 c 128,-1,10
 413 -22 413 -22 261 -22 c 0,11,12
 196 -22 196 -22 123 3 c 1,0,1
275 436 m 1,13,14
 240 376 240 376 240 295 c 128,-1,15
 240 214 240 214 275.5 145.5 c 128,-1,16
 311 77 311 77 373 47 c 1,17,18
 420 107 420 107 420 186 c 128,-1,19
 420 265 420 265 381.5 333 c 128,-1,20
 343 401 343 401 275 436 c 1,13,14
325 680 m 1,21,-1
 436 666 l 1,22,23
 422 639 422 639 396.5 616 c 128,-1,24
 371 593 371 593 348 580 c 128,-1,25
 325 567 325 567 288 550 c 1,26,-1
 222 550 l 1,27,28
 294 597 294 597 325 680 c 1,21,-1
EndSplineSet
EndChar

StartChar: Ocircumflex
Encoding: 212 212 151
Width: 658
Flags: W
LayerCount: 2
Fore
SplineSet
261 -22 m 0,0,1
 196 -22 196 -22 123 3 c 1,2,3
 34 117 34 117 34 237 c 128,-1,4
 34 357 34 357 134 440 c 128,-1,5
 234 523 234 523 390 523 c 0,6,7
 473 523 473 523 555 498 c 1,8,9
 627 407 627 407 627 303 c 0,10,11
 627 172 627 172 520 75 c 128,-1,12
 413 -22 413 -22 261 -22 c 0,0,1
381.5 333 m 128,-1,14
 343 401 343 401 275 436 c 1,15,16
 240 376 240 376 240 295 c 128,-1,17
 240 214 240 214 275.5 145.5 c 128,-1,18
 311 77 311 77 373 47 c 1,19,20
 420 107 420 107 420 186 c 128,-1,13
 420 265 420 265 381.5 333 c 128,-1,14
214 558 m 1,21,-1
 304 673 l 1,22,-1
 353 673 l 1,23,-1
 443 558 l 1,24,-1
 411 558 l 1,25,-1
 328 620 l 1,26,-1
 246 558 l 1,27,-1
 214 558 l 1,21,-1
EndSplineSet
EndChar

StartChar: Otilde
Encoding: 213 213 152
Width: 658
Flags: W
LayerCount: 2
Fore
SplineSet
123 3 m 1,0,1
 34 117 34 117 34 237 c 128,-1,2
 34 357 34 357 134 440 c 128,-1,3
 234 523 234 523 390 523 c 0,4,5
 473 523 473 523 555 498 c 1,6,7
 627 407 627 407 627 303 c 0,8,9
 627 172 627 172 520 75 c 128,-1,10
 413 -22 413 -22 261 -22 c 0,11,12
 196 -22 196 -22 123 3 c 1,0,1
275 436 m 1,13,14
 240 376 240 376 240 295 c 128,-1,15
 240 214 240 214 275.5 145.5 c 128,-1,16
 311 77 311 77 373 47 c 1,17,18
 420 107 420 107 420 186 c 128,-1,19
 420 265 420 265 381.5 333 c 128,-1,20
 343 401 343 401 275 436 c 1,13,14
414.5 586.5 m 128,-1,22
 394 575 394 575 364.5 575 c 128,-1,23
 335 575 335 575 301 595.5 c 128,-1,24
 267 616 267 616 251 616 c 0,25,26
 214 616 214 616 185 583 c 1,27,-1
 198 623 l 1,28,29
 210 637 210 637 228.5 648.5 c 128,-1,30
 247 660 247 660 268.5 660 c 128,-1,31
 290 660 290 660 320.5 649 c 128,-1,32
 351 638 351 638 373 638 c 0,33,34
 427 638 427 638 472 685 c 1,35,36
 468 677 468 677 458 648 c 128,-1,37
 448 619 448 619 441.5 608.5 c 128,-1,21
 435 598 435 598 414.5 586.5 c 128,-1,22
EndSplineSet
EndChar

StartChar: Odieresis
Encoding: 214 214 153
Width: 658
Flags: W
LayerCount: 2
Fore
SplineSet
123 3 m 1,0,1
 34 117 34 117 34 237 c 128,-1,2
 34 357 34 357 134 440 c 128,-1,3
 234 523 234 523 390 523 c 0,4,5
 473 523 473 523 555 498 c 1,6,7
 627 407 627 407 627 303 c 0,8,9
 627 172 627 172 520 75 c 128,-1,10
 413 -22 413 -22 261 -22 c 0,11,12
 196 -22 196 -22 123 3 c 1,0,1
275 436 m 1,13,14
 240 376 240 376 240 295 c 128,-1,15
 240 214 240 214 275.5 145.5 c 128,-1,16
 311 77 311 77 373 47 c 1,17,18
 420 107 420 107 420 186 c 128,-1,19
 420 265 420 265 381.5 333 c 128,-1,20
 343 401 343 401 275 436 c 1,13,14
271 576 m 1,21,-1
 231 575 l 2,22,23
 211 575 211 575 173 577 c 1,24,25
 198 636 198 636 203 678 c 1,26,27
 256 673 256 673 305 672 c 1,28,29
 293 618 293 618 271 576 c 1,21,-1
450 576 m 1,30,-1
 409 575 l 2,31,32
 390 575 390 575 352 577 c 1,33,34
 376 638 376 638 382 678 c 1,35,36
 434 673 434 673 484 672 c 1,37,38
 470 616 470 616 450 576 c 1,30,-1
EndSplineSet
EndChar

StartChar: multiply
Encoding: 215 215 154
Width: 319
Flags: W
LayerCount: 2
Fore
SplineSet
50 186 m 1,0,1
 102 234 102 234 127 259 c 1,2,3
 93 293 93 293 50 331 c 1,4,-1
 87 369 l 1,5,6
 118 333 118 333 159 290 c 1,7,8
 196 328 196 328 232 369 c 1,9,-1
 269 331 l 1,10,11
 233 300 233 300 190 259 c 1,12,13
 215 234 215 234 269 186 c 1,14,-1
 232 149 l 1,15,16
 196 190 196 190 159 228 c 1,17,18
 118 185 118 185 87 149 c 1,19,20
 81 154 81 154 75 160.5 c 128,-1,21
 69 167 69 167 62 174 c 2,22,-1
 50 186 l 1,0,1
EndSplineSet
EndChar

StartChar: Oslash
Encoding: 216 216 155
Width: 623
Flags: W
LayerCount: 2
Fore
SplineSet
18 232 m 0,0,1
 18 356 18 356 119 439.5 c 128,-1,2
 220 523 220 523 374 523 c 0,3,4
 439 523 439 523 506 507 c 1,5,-1
 525 529 l 1,6,7
 581 540 581 540 644 545 c 1,8,-1
 561 466 l 1,9,10
 610 388 610 388 610 302 c 0,11,12
 610 172 610 172 503.5 75 c 128,-1,13
 397 -22 397 -22 245 -22 c 0,14,15
 180 -22 180 -22 107 3 c 1,16,-1
 101 10 l 1,17,-1
 54 -41 l 1,18,-1
 -15 -41 l 1,19,-1
 74 49 l 1,20,21
 18 143 18 143 18 232 c 0,0,1
402 192 m 0,22,23
 402 246 402 246 383 296 c 1,24,25
 293 208 293 208 250 164 c 1,26,27
 288 81 288 81 356 48 c 1,28,29
 402 107 402 107 402 192 c 0,22,23
224 293 m 0,30,31
 224 250 224 250 233 213 c 1,32,33
 304 286 304 286 357 344 c 1,34,35
 318 405 318 405 259 435 c 1,36,37
 224 375 224 375 224 293 c 0,30,31
EndSplineSet
EndChar

StartChar: Ugrave
Encoding: 217 217 156
Width: 701
Flags: W
LayerCount: 2
Fore
SplineSet
558 168 m 0,0,1
 558 326 558 326 530 500 c 1,2,-1
 658 500 l 1,3,4
 662 435 662 435 662 310.5 c 128,-1,5
 662 186 662 186 646 45 c 1,6,7
 542 -22 542 -22 397 -22 c 0,8,9
 204 -22 204 -22 85 45 c 1,10,11
 72 153 72 153 72 254.5 c 128,-1,12
 72 356 72 356 87 500 c 1,13,-1
 356 500 l 1,14,15
 316 283 316 283 314 83 c 1,16,17
 356 45 356 45 435 45 c 128,-1,18
 514 45 514 45 556 73 c 1,19,20
 558 106 558 106 558 168 c 0,0,1
354 680 m 1,21,22
 385 597 385 597 457 550 c 1,23,-1
 391 550 l 1,24,25
 354 567 354 567 331 580 c 128,-1,26
 308 593 308 593 282.5 616 c 128,-1,27
 257 639 257 639 243 666 c 1,28,-1
 354 680 l 1,21,22
EndSplineSet
EndChar

StartChar: Uacute
Encoding: 218 218 157
Width: 701
Flags: W
LayerCount: 2
Fore
SplineSet
658 500 m 1,0,1
 662 435 662 435 662 310.5 c 128,-1,2
 662 186 662 186 646 45 c 1,3,4
 542 -22 542 -22 397 -22 c 0,5,6
 204 -22 204 -22 85 45 c 1,7,8
 72 153 72 153 72 254.5 c 128,-1,9
 72 356 72 356 87 500 c 1,10,-1
 356 500 l 1,11,12
 316 283 316 283 314 83 c 1,13,14
 356 45 356 45 435 45 c 128,-1,15
 514 45 514 45 556 73 c 1,16,17
 558 106 558 106 558 168 c 0,18,19
 558 326 558 326 530 500 c 1,20,-1
 658 500 l 1,0,1
346 680 m 1,21,-1
 457 666 l 1,22,23
 443 639 443 639 417.5 616 c 128,-1,24
 392 593 392 593 369 580 c 128,-1,25
 346 567 346 567 309 550 c 1,26,-1
 243 550 l 1,27,28
 315 597 315 597 346 680 c 1,21,-1
EndSplineSet
EndChar

StartChar: Ucircumflex
Encoding: 219 219 158
Width: 701
Flags: W
LayerCount: 2
Fore
SplineSet
558 168 m 0,0,1
 558 326 558 326 530 500 c 1,2,-1
 658 500 l 1,3,4
 662 435 662 435 662 310.5 c 128,-1,5
 662 186 662 186 646 45 c 1,6,7
 542 -22 542 -22 397 -22 c 0,8,9
 204 -22 204 -22 85 45 c 1,10,11
 72 153 72 153 72 254.5 c 128,-1,12
 72 356 72 356 87 500 c 1,13,-1
 356 500 l 1,14,15
 316 283 316 283 314 83 c 1,16,17
 356 45 356 45 435 45 c 128,-1,18
 514 45 514 45 556 73 c 1,19,20
 558 106 558 106 558 168 c 0,0,1
236 558 m 1,21,-1
 326 673 l 1,22,-1
 375 673 l 1,23,-1
 465 558 l 1,24,-1
 433 558 l 1,25,-1
 350 620 l 1,26,-1
 268 558 l 1,27,-1
 236 558 l 1,21,-1
EndSplineSet
EndChar

StartChar: Udieresis
Encoding: 220 220 159
Width: 701
Flags: W
LayerCount: 2
Fore
SplineSet
658 500 m 1,0,1
 662 435 662 435 662 310.5 c 128,-1,2
 662 186 662 186 646 45 c 1,3,4
 542 -22 542 -22 397 -22 c 0,5,6
 204 -22 204 -22 85 45 c 1,7,8
 72 153 72 153 72 254.5 c 128,-1,9
 72 356 72 356 87 500 c 1,10,-1
 356 500 l 1,11,12
 316 283 316 283 314 83 c 1,13,14
 356 45 356 45 435 45 c 128,-1,15
 514 45 514 45 556 73 c 1,16,17
 558 106 558 106 558 168 c 0,18,19
 558 326 558 326 530 500 c 1,20,-1
 658 500 l 1,0,1
293 576 m 1,21,-1
 253 575 l 2,22,23
 233 575 233 575 195 577 c 1,24,25
 220 636 220 636 225 678 c 1,26,27
 278 673 278 673 327 672 c 1,28,29
 315 618 315 618 293 576 c 1,21,-1
472 576 m 1,30,-1
 431 575 l 2,31,32
 412 575 412 575 374 577 c 1,33,34
 398 638 398 638 404 678 c 1,35,36
 456 673 456 673 506 672 c 1,37,38
 492 616 492 616 472 576 c 1,30,-1
EndSplineSet
EndChar

StartChar: Yacute
Encoding: 221 221 160
Width: 732
Flags: W
LayerCount: 2
Fore
SplineSet
704 481 m 1,0,1
 670 473 670 473 647 473 c 128,-1,2
 624 473 624 473 603 476 c 1,3,4
 572 439 572 439 547 377 c 128,-1,5
 522 315 522 315 509.5 266 c 128,-1,6
 497 217 497 217 482 146 c 0,7,8
 406 -216 406 -216 330 -368 c 1,9,10
 280 -383 280 -383 206 -397 c 1,11,12
 306 -226 306 -226 368 0 c 1,13,-1
 161 0 l 1,14,15
 82 256 82 256 79 500 c 1,16,-1
 371 500 l 1,17,18
 350 407 350 407 350 302.5 c 128,-1,19
 350 198 350 198 384 64 c 1,20,21
 391 91 391 91 408 158.5 c 128,-1,22
 425 226 425 226 433 255 c 128,-1,23
 441 284 441 284 457.5 337 c 128,-1,24
 474 390 474 390 487.5 416.5 c 128,-1,25
 501 443 501 443 521 476 c 0,26,27
 557 535 557 535 616 556 c 0,28,29
 633 561 633 561 685 566.5 c 128,-1,30
 737 572 737 572 760 587 c 1,31,32
 733 525 733 525 704 481 c 1,0,1
362 680 m 1,33,-1
 473 666 l 1,34,35
 459 639 459 639 433.5 616 c 128,-1,36
 408 593 408 593 385 580 c 128,-1,37
 362 567 362 567 325 550 c 1,38,-1
 259 550 l 1,39,40
 331 597 331 597 362 680 c 1,33,-1
EndSplineSet
EndChar

StartChar: Thorn
Encoding: 222 222 161
Width: 676
Flags: W
LayerCount: 2
Fore
SplineSet
87 156 m 0,0,1
 87 386 87 386 45 616 c 1,2,3
 142 599 142 599 334 567 c 1,4,-1
 338 500 l 1,5,-1
 603 500 l 1,6,7
 636 412 636 412 636 322 c 0,8,9
 636 280 636 280 628 226 c 1,10,11
 508 167 508 167 344 152 c 1,12,13
 341 75 341 75 335 0 c 1,14,-1
 82 0 l 1,15,16
 87 64 87 64 87 156 c 0,0,1
345 274 m 2,17,-1
 345 222 l 1,18,19
 398 227 398 227 436 242 c 1,20,21
 429 285 429 285 400.5 339.5 c 128,-1,22
 372 394 372 394 342 432 c 1,23,24
 345 352 345 352 345 274 c 2,17,-1
EndSplineSet
EndChar

StartChar: germandbls
Encoding: 223 223 162
Width: 638
Flags: W
LayerCount: 2
Fore
SplineSet
64 313 m 0,0,1
 64 370 64 370 67 433 c 1,2,3
 118 538 118 538 193 610 c 1,4,-1
 429 610 l 1,5,6
 509 541 509 541 540 465 c 1,7,8
 497 392 497 392 442 350 c 1,9,10
 543 280 543 280 598 172 c 1,11,12
 567 67 567 67 526 0 c 1,13,-1
 319 0 l 1,14,-1
 290 110 l 1,15,16
 331 67 331 67 369 67 c 1,17,18
 373 95 373 95 373 110 c 0,19,20
 373 162 373 162 353.5 217 c 128,-1,21
 334 272 334 272 299 313 c 1,22,23
 385 365 385 365 434 454 c 1,24,25
 419 482 419 482 378 508.5 c 128,-1,26
 337 535 337 535 296 544 c 1,27,28
 266 339 266 339 266 115 c 0,29,30
 266 52 266 52 269 0 c 1,31,-1
 87 0 l 1,32,33
 64 161 64 161 64 313 c 0,0,1
EndSplineSet
EndChar

StartChar: agrave
Encoding: 224 224 163
Width: 767
Flags: W
LayerCount: 2
Fore
SplineSet
81 244 m 1,0,1
 153 265 153 265 219.5 315 c 128,-1,2
 286 365 286 365 316 423 c 1,3,4
 289 465 289 465 259 500 c 1,5,-1
 591 500 l 1,6,7
 690 285 690 285 690 8 c 2,8,-1
 690 0 l 1,9,-1
 458 0 l 1,10,11
 454 57 454 57 441 118 c 1,12,13
 379 55 379 55 301 0 c 1,14,-1
 68 0 l 1,15,16
 61 41 61 41 61 108.5 c 128,-1,17
 61 176 61 176 81 244 c 1,0,1
423 191 m 1,18,19
 397 280 397 280 355 359 c 1,20,21
 308 221 308 221 301 98 c 1,22,23
 373 135 373 135 423 191 c 1,18,19
387 680 m 1,24,25
 418 597 418 597 490 550 c 1,26,-1
 424 550 l 1,27,28
 387 567 387 567 364 580 c 128,-1,29
 341 593 341 593 315.5 616 c 128,-1,30
 290 639 290 639 276 666 c 1,31,-1
 387 680 l 1,24,25
EndSplineSet
EndChar

StartChar: aacute
Encoding: 225 225 164
Width: 767
Flags: W
LayerCount: 2
Fore
SplineSet
690 8 m 2,0,-1
 690 0 l 1,1,-1
 458 0 l 1,2,3
 454 57 454 57 441 118 c 1,4,5
 379 55 379 55 301 0 c 1,6,-1
 68 0 l 1,7,8
 61 41 61 41 61 108.5 c 128,-1,9
 61 176 61 176 81 244 c 1,10,11
 153 265 153 265 219.5 315 c 128,-1,12
 286 365 286 365 316 423 c 1,13,14
 289 465 289 465 259 500 c 1,15,-1
 591 500 l 1,16,17
 690 285 690 285 690 8 c 2,0,-1
423 191 m 1,18,19
 397 280 397 280 355 359 c 1,20,21
 308 221 308 221 301 98 c 1,22,23
 373 135 373 135 423 191 c 1,18,19
379 680 m 1,24,-1
 490 666 l 1,25,26
 476 639 476 639 450.5 616 c 128,-1,27
 425 593 425 593 402 580 c 128,-1,28
 379 567 379 567 342 550 c 1,29,-1
 276 550 l 1,30,31
 348 597 348 597 379 680 c 1,24,-1
EndSplineSet
EndChar

StartChar: acircumflex
Encoding: 226 226 165
Width: 767
Flags: W
LayerCount: 2
Fore
SplineSet
81 244 m 1,0,1
 153 265 153 265 219.5 315 c 128,-1,2
 286 365 286 365 316 423 c 1,3,4
 289 465 289 465 259 500 c 1,5,-1
 591 500 l 1,6,7
 690 285 690 285 690 8 c 2,8,-1
 690 0 l 1,9,-1
 458 0 l 1,10,11
 454 57 454 57 441 118 c 1,12,13
 379 55 379 55 301 0 c 1,14,-1
 68 0 l 1,15,16
 61 41 61 41 61 108.5 c 128,-1,17
 61 176 61 176 81 244 c 1,0,1
423 191 m 1,18,19
 397 280 397 280 355 359 c 1,20,21
 308 221 308 221 301 98 c 1,22,23
 373 135 373 135 423 191 c 1,18,19
284 558 m 1,24,-1
 374 673 l 1,25,-1
 423 673 l 1,26,-1
 513 558 l 1,27,-1
 481 558 l 1,28,-1
 398 620 l 1,29,-1
 316 558 l 1,30,-1
 284 558 l 1,24,-1
EndSplineSet
EndChar

StartChar: atilde
Encoding: 227 227 166
Width: 767
Flags: W
LayerCount: 2
Fore
SplineSet
690 8 m 2,0,-1
 690 0 l 1,1,-1
 458 0 l 1,2,3
 454 57 454 57 441 118 c 1,4,5
 379 55 379 55 301 0 c 1,6,-1
 68 0 l 1,7,8
 61 41 61 41 61 108.5 c 128,-1,9
 61 176 61 176 81 244 c 1,10,11
 153 265 153 265 219.5 315 c 128,-1,12
 286 365 286 365 316 423 c 1,13,14
 289 465 289 465 259 500 c 1,15,-1
 591 500 l 1,16,17
 690 285 690 285 690 8 c 2,0,-1
423 191 m 1,18,19
 397 280 397 280 355 359 c 1,20,21
 308 221 308 221 301 98 c 1,22,23
 373 135 373 135 423 191 c 1,18,19
485.5 586.5 m 128,-1,25
 465 575 465 575 435.5 575 c 128,-1,26
 406 575 406 575 372 595.5 c 128,-1,27
 338 616 338 616 322 616 c 0,28,29
 285 616 285 616 256 583 c 1,30,-1
 269 623 l 1,31,32
 281 637 281 637 299.5 648.5 c 128,-1,33
 318 660 318 660 339.5 660 c 128,-1,34
 361 660 361 660 391.5 649 c 128,-1,35
 422 638 422 638 444 638 c 0,36,37
 498 638 498 638 543 685 c 1,38,39
 539 677 539 677 529 648 c 128,-1,40
 519 619 519 619 512.5 608.5 c 128,-1,24
 506 598 506 598 485.5 586.5 c 128,-1,25
EndSplineSet
EndChar

StartChar: adieresis
Encoding: 228 228 167
Width: 767
Flags: W
LayerCount: 2
Fore
SplineSet
690 8 m 2,0,-1
 690 0 l 1,1,-1
 458 0 l 1,2,3
 454 57 454 57 441 118 c 1,4,5
 379 55 379 55 301 0 c 1,6,-1
 68 0 l 1,7,8
 61 41 61 41 61 108.5 c 128,-1,9
 61 176 61 176 81 244 c 1,10,11
 153 265 153 265 219.5 315 c 128,-1,12
 286 365 286 365 316 423 c 1,13,14
 289 465 289 465 259 500 c 1,15,-1
 591 500 l 1,16,17
 690 285 690 285 690 8 c 2,0,-1
423 191 m 1,18,19
 397 280 397 280 355 359 c 1,20,21
 308 221 308 221 301 98 c 1,22,23
 373 135 373 135 423 191 c 1,18,19
326 576 m 1,24,-1
 286 575 l 2,25,26
 266 575 266 575 228 577 c 1,27,28
 253 636 253 636 258 678 c 1,29,30
 311 673 311 673 360 672 c 1,31,32
 348 618 348 618 326 576 c 1,24,-1
505 576 m 1,33,-1
 464 575 l 2,34,35
 445 575 445 575 407 577 c 1,36,37
 431 638 431 638 437 678 c 1,38,39
 489 673 489 673 539 672 c 1,40,41
 525 616 525 616 505 576 c 1,33,-1
EndSplineSet
EndChar

StartChar: aring
Encoding: 229 229 168
Width: 767
Flags: W
LayerCount: 2
Fore
SplineSet
81 244 m 1,0,1
 153 265 153 265 219.5 315 c 128,-1,2
 286 365 286 365 316 423 c 1,3,4
 289 465 289 465 259 500 c 1,5,-1
 591 500 l 1,6,7
 690 285 690 285 690 8 c 2,8,-1
 690 0 l 1,9,-1
 458 0 l 1,10,11
 454 57 454 57 441 118 c 1,12,13
 379 55 379 55 301 0 c 1,14,-1
 68 0 l 1,15,16
 61 41 61 41 61 108.5 c 128,-1,17
 61 176 61 176 81 244 c 1,0,1
423 191 m 1,18,19
 397 280 397 280 355 359 c 1,20,21
 308 221 308 221 301 98 c 1,22,23
 373 135 373 135 423 191 c 1,18,19
378 558 m 1,24,25
 349 580 349 580 349 606.5 c 128,-1,26
 349 633 349 633 377.5 654.5 c 128,-1,27
 406 676 406 676 440 676 c 128,-1,28
 474 676 474 676 486.5 660.5 c 128,-1,29
 499 645 499 645 499 620.5 c 128,-1,30
 499 596 499 596 472 574.5 c 128,-1,31
 445 553 445 553 409 553 c 0,32,33
 395 553 395 553 378 558 c 1,24,25
404 624 m 0,34,35
 404 582 404 582 435 568 c 1,36,37
 445 581 445 581 445 601 c 0,38,39
 445 641 445 641 412 656 c 1,40,41
 404 640 404 640 404 624 c 0,34,35
EndSplineSet
EndChar

StartChar: ae
Encoding: 230 230 169
Width: 1027
Flags: W
LayerCount: 2
Fore
SplineSet
777 298 m 1,0,-1
 869 292 l 2,1,2
 872 292 872 292 877.5 292.5 c 128,-1,3
 883 293 883 293 886 293 c 1,4,-1
 839 206 l 1,5,-1
 829 206 l 2,6,7
 810 206 810 206 775.5 216 c 128,-1,8
 741 226 741 226 726 226 c 0,9,10
 684 226 684 226 661 173 c 1,11,12
 657 126 657 126 655 76 c 1,13,14
 707 66 707 66 736 66 c 2,15,-1
 745 66 l 2,16,17
 788 66 788 66 813.5 85 c 128,-1,18
 839 104 839 104 850 153 c 1,19,-1
 971 148 l 1,20,21
 956 62 956 62 931 0 c 1,22,-1
 437 0 l 1,23,24
 430 69 430 69 420 118 c 1,25,26
 355 52 355 52 280 0 c 1,27,-1
 48 0 l 1,28,29
 41 42 41 42 41 111.5 c 128,-1,30
 41 181 41 181 60 244 c 1,31,32
 133 265 133 265 200 315 c 128,-1,33
 267 365 267 365 296 423 c 1,34,35
 265 468 265 468 238 500 c 1,36,-1
 970 500 l 1,37,38
 953 399 953 399 937 348 c 1,39,-1
 829 343 l 1,40,41
 838 370 838 370 838 387 c 0,42,43
 838 434 838 434 765 434 c 0,44,45
 734 434 734 434 706 429 c 1,46,47
 683 334 683 334 672 261 c 1,48,49
 712 298 712 298 771 298 c 2,50,-1
 777 298 l 1,0,-1
402 191 m 1,51,52
 376 283 376 283 335 358 c 1,53,54
 289 223 289 223 280 98 c 1,55,56
 352 135 352 135 402 191 c 1,51,52
EndSplineSet
EndChar

StartChar: ccedilla
Encoding: 231 231 170
Width: 632
Flags: W
LayerCount: 2
Fore
SplineSet
308 -52 m 1,0,-1
 351 -45 l 1,1,2
 368 -45 368 -45 382.5 -54.5 c 128,-1,3
 397 -64 397 -64 399 -79 c 1,4,-1
 399 -84 l 2,5,6
 399 -123 399 -123 363.5 -155.5 c 128,-1,7
 328 -188 328 -188 273 -189 c 1,8,-1
 267 -168 l 1,9,10
 297 -168 297 -168 313.5 -153.5 c 128,-1,11
 330 -139 330 -139 330 -121 c 0,12,13
 330 -95 330 -95 298 -95 c 0,14,15
 292 -95 292 -95 252 -110 c 1,16,-1
 283 -20 l 1,17,18
 273 -21 273 -21 254 -21 c 2,19,-1
 231 -21 l 1,20,21
 141 18 141 18 89.5 94 c 128,-1,22
 38 170 38 170 38 254 c 0,23,24
 38 366 38 366 130 444.5 c 128,-1,25
 222 523 222 523 397 523 c 0,26,27
 495 523 495 523 602 498 c 1,28,29
 586 435 586 435 562 379 c 1,30,31
 499 373 499 373 432 373 c 1,32,33
 442 401 442 401 449 439 c 1,34,35
 414 445 414 445 381.5 445 c 128,-1,36
 349 445 349 445 303 434 c 1,37,38
 288 371 288 371 288 311 c 0,39,40
 288 156 288 156 426 73 c 1,41,42
 518 134 518 134 592 225 c 1,43,44
 595 185 595 185 597 103 c 1,45,46
 534 54 534 54 471 23 c 128,-1,47
 408 -8 408 -8 320 -17 c 1,48,-1
 308 -52 l 1,0,-1
EndSplineSet
EndChar

StartChar: egrave
Encoding: 232 232 171
Width: 671
Flags: W
LayerCount: 2
Fore
SplineSet
509 293 m 2,0,1
 523 293 523 293 530 294 c 1,2,-1
 483 206 l 1,3,-1
 474 206 l 2,4,5
 455 206 455 206 420 216.5 c 128,-1,6
 385 227 385 227 370 227 c 0,7,8
 329 227 329 227 305 174 c 1,9,10
 301 125 301 125 299 76 c 1,11,12
 351 66 351 66 381 66 c 2,13,-1
 390 66 l 2,14,15
 433 66 433 66 458.5 85 c 128,-1,16
 484 104 484 104 495 153 c 1,17,-1
 615 148 l 1,18,19
 600 62 600 62 575 0 c 1,20,21
 575 0 575 0 84 0 c 1,22,23
 64 135 64 135 64 268 c 128,-1,24
 64 401 64 401 78 500 c 1,25,-1
 614 500 l 1,26,27
 596 392 596 392 582 348 c 1,28,29
 523 345 523 345 474 344 c 1,30,31
 482 367 482 367 482 387 c 0,32,33
 482 435 482 435 410 435 c 0,34,35
 383 435 383 435 350 429 c 1,36,37
 328 334 328 334 316 262 c 1,38,39
 356 299 356 299 415 299 c 1,40,-1
 509 293 l 2,0,1
339 680 m 1,41,42
 370 597 370 597 442 550 c 1,43,-1
 376 550 l 1,44,45
 339 567 339 567 316 580 c 128,-1,46
 293 593 293 593 267.5 616 c 128,-1,47
 242 639 242 639 228 666 c 1,48,-1
 339 680 l 1,41,42
EndSplineSet
EndChar

StartChar: eacute
Encoding: 233 233 172
Width: 671
Flags: W
LayerCount: 2
Fore
SplineSet
415 299 m 1,0,-1
 509 293 l 2,1,2
 523 293 523 293 530 294 c 1,3,-1
 483 206 l 1,4,-1
 474 206 l 2,5,6
 455 206 455 206 420 216.5 c 128,-1,7
 385 227 385 227 370 227 c 0,8,9
 329 227 329 227 305 174 c 1,10,11
 301 125 301 125 299 76 c 1,12,13
 351 66 351 66 381 66 c 2,14,-1
 390 66 l 2,15,16
 433 66 433 66 458.5 85 c 128,-1,17
 484 104 484 104 495 153 c 1,18,-1
 615 148 l 1,19,20
 600 62 600 62 575 0 c 1,21,-1
 84 0 l 1,22,23
 64 135 64 135 64 268 c 128,-1,24
 64 401 64 401 78 500 c 1,25,-1
 614 500 l 1,26,27
 596 392 596 392 582 348 c 1,28,29
 523 345 523 345 474 344 c 1,30,31
 482 367 482 367 482 387 c 0,32,33
 482 435 482 435 410 435 c 0,34,35
 383 435 383 435 350 429 c 1,36,37
 328 334 328 334 316 262 c 1,38,39
 356 299 356 299 415 299 c 1,0,-1
331 680 m 1,40,-1
 442 666 l 1,41,42
 428 639 428 639 402.5 616 c 128,-1,43
 377 593 377 593 354 580 c 128,-1,44
 331 567 331 567 294 550 c 1,45,-1
 228 550 l 1,46,47
 300 597 300 597 331 680 c 1,40,-1
EndSplineSet
EndChar

StartChar: ecircumflex
Encoding: 234 234 173
Width: 671
Flags: W
LayerCount: 2
Fore
SplineSet
509 293 m 2,0,1
 523 293 523 293 530 294 c 1,2,-1
 483 206 l 1,3,-1
 474 206 l 2,4,5
 455 206 455 206 420 216.5 c 128,-1,6
 385 227 385 227 370 227 c 0,7,8
 329 227 329 227 305 174 c 1,9,10
 301 125 301 125 299 76 c 1,11,12
 351 66 351 66 381 66 c 2,13,-1
 390 66 l 2,14,15
 433 66 433 66 458.5 85 c 128,-1,16
 484 104 484 104 495 153 c 1,17,-1
 615 148 l 1,18,19
 600 62 600 62 575 0 c 1,20,21
 575 0 575 0 84 0 c 1,22,23
 64 135 64 135 64 268 c 128,-1,24
 64 401 64 401 78 500 c 1,25,-1
 614 500 l 1,26,27
 596 392 596 392 582 348 c 1,28,29
 523 345 523 345 474 344 c 1,30,31
 482 367 482 367 482 387 c 0,32,33
 482 435 482 435 410 435 c 0,34,35
 383 435 383 435 350 429 c 1,36,37
 328 334 328 334 316 262 c 1,38,39
 356 299 356 299 415 299 c 1,40,-1
 509 293 l 2,0,1
221 558 m 1,41,-1
 311 673 l 1,42,-1
 360 673 l 1,43,-1
 450 558 l 1,44,-1
 418 558 l 1,45,-1
 335 620 l 1,46,-1
 253 558 l 1,47,-1
 221 558 l 1,41,-1
EndSplineSet
EndChar

StartChar: edieresis
Encoding: 235 235 174
Width: 671
Flags: W
LayerCount: 2
Fore
SplineSet
415 299 m 1,0,-1
 509 293 l 2,1,2
 523 293 523 293 530 294 c 1,3,-1
 483 206 l 1,4,-1
 474 206 l 2,5,6
 455 206 455 206 420 216.5 c 128,-1,7
 385 227 385 227 370 227 c 0,8,9
 329 227 329 227 305 174 c 1,10,11
 301 125 301 125 299 76 c 1,12,13
 351 66 351 66 381 66 c 2,14,-1
 390 66 l 2,15,16
 433 66 433 66 458.5 85 c 128,-1,17
 484 104 484 104 495 153 c 1,18,-1
 615 148 l 1,19,20
 600 62 600 62 575 0 c 1,21,-1
 84 0 l 1,22,23
 64 135 64 135 64 268 c 128,-1,24
 64 401 64 401 78 500 c 1,25,-1
 614 500 l 1,26,27
 596 392 596 392 582 348 c 1,28,29
 523 345 523 345 474 344 c 1,30,31
 482 367 482 367 482 387 c 0,32,33
 482 435 482 435 410 435 c 0,34,35
 383 435 383 435 350 429 c 1,36,37
 328 334 328 334 316 262 c 1,38,39
 356 299 356 299 415 299 c 1,0,-1
278 576 m 1,40,-1
 238 575 l 2,41,42
 218 575 218 575 180 577 c 1,43,44
 205 636 205 636 210 678 c 1,45,46
 263 673 263 673 312 672 c 1,47,48
 300 618 300 618 278 576 c 1,40,-1
457 576 m 1,49,-1
 416 575 l 2,50,51
 397 575 397 575 359 577 c 1,52,53
 383 638 383 638 389 678 c 1,54,55
 441 673 441 673 491 672 c 1,56,57
 477 616 477 616 457 576 c 1,49,-1
EndSplineSet
EndChar

StartChar: igrave
Encoding: 236 236 175
Width: 396
Flags: W
LayerCount: 2
Fore
SplineSet
341 500 m 1,0,-1
 341 473 l 2,1,2
 341 209 341 209 308 0 c 1,3,-1
 68 0 l 1,4,5
 87 92 87 92 87 212.5 c 128,-1,6
 87 333 87 333 71 500 c 1,7,-1
 341 500 l 1,0,-1
202 680 m 1,8,9
 233 597 233 597 305 550 c 1,10,-1
 239 550 l 1,11,12
 202 567 202 567 179 580 c 128,-1,13
 156 593 156 593 130.5 616 c 128,-1,14
 105 639 105 639 91 666 c 1,15,-1
 202 680 l 1,8,9
EndSplineSet
EndChar

StartChar: iacute
Encoding: 237 237 176
Width: 396
Flags: W
LayerCount: 2
Fore
SplineSet
341 500 m 1,0,-1
 341 473 l 2,1,2
 341 209 341 209 308 0 c 1,3,-1
 68 0 l 1,4,5
 87 92 87 92 87 212.5 c 128,-1,6
 87 333 87 333 71 500 c 1,7,-1
 341 500 l 1,0,-1
194 680 m 1,8,-1
 305 666 l 1,9,10
 291 639 291 639 265.5 616 c 128,-1,11
 240 593 240 593 217 580 c 128,-1,12
 194 567 194 567 157 550 c 1,13,-1
 91 550 l 1,14,15
 163 597 163 597 194 680 c 1,8,-1
EndSplineSet
EndChar

StartChar: icircumflex
Encoding: 238 238 177
Width: 396
Flags: W
LayerCount: 2
Fore
SplineSet
341 500 m 1,0,-1
 341 473 l 2,1,2
 341 209 341 209 308 0 c 1,3,-1
 68 0 l 1,4,5
 87 92 87 92 87 212.5 c 128,-1,6
 87 333 87 333 71 500 c 1,7,-1
 341 500 l 1,0,-1
83 558 m 1,8,-1
 173 673 l 1,9,-1
 222 673 l 1,10,-1
 312 558 l 1,11,-1
 280 558 l 1,12,-1
 197 620 l 1,13,-1
 115 558 l 1,14,-1
 83 558 l 1,8,-1
EndSplineSet
EndChar

StartChar: idieresis
Encoding: 239 239 178
Width: 396
Flags: W
LayerCount: 2
Fore
SplineSet
341 500 m 1,0,-1
 341 473 l 2,1,2
 341 209 341 209 308 0 c 1,3,-1
 68 0 l 1,4,5
 87 92 87 92 87 212.5 c 128,-1,6
 87 333 87 333 71 500 c 1,7,-1
 341 500 l 1,0,-1
140 576 m 1,8,-1
 100 575 l 2,9,10
 80 575 80 575 42 577 c 1,11,12
 67 636 67 636 72 678 c 1,13,14
 125 673 125 673 174 672 c 1,15,16
 162 618 162 618 140 576 c 1,8,-1
319 576 m 1,17,-1
 278 575 l 2,18,19
 259 575 259 575 221 577 c 1,20,21
 245 638 245 638 251 678 c 1,22,23
 303 673 303 673 353 672 c 1,24,25
 339 616 339 616 319 576 c 1,17,-1
EndSplineSet
EndChar

StartChar: eth
Encoding: 240 240 179
Width: 730
Flags: W
LayerCount: 2
Fore
SplineSet
339 523 m 0,0,1
 534 523 534 523 659 474 c 1,2,3
 704 387 704 387 704 298 c 0,4,5
 704 182 704 182 627 99 c 0,6,7
 515 -22 515 -22 320 -22 c 0,8,9
 258 -22 258 -22 166 -10 c 2,10,-1
 136 -6 l 1,11,12
 111 118 111 118 101 233 c 1,13,14
 18 239 18 239 0 242 c 1,15,16
 6 246 6 246 18 256 c 0,17,18
 44 278 44 278 58 284 c 1,19,-1
 97 284 l 1,20,21
 95 313 95 313 95 375.5 c 128,-1,22
 95 438 95 438 101 506 c 1,23,24
 220 523 220 523 339 523 c 0,0,1
355 228 m 1,25,26
 353 172 353 172 353 132.5 c 128,-1,27
 353 93 353 93 356 39 c 1,28,29
 411 68 411 68 442 137 c 128,-1,30
 473 206 473 206 473 277.5 c 128,-1,31
 473 349 473 349 446.5 396 c 128,-1,32
 420 443 420 443 371 448 c 1,33,34
 365 385 365 385 358 288 c 1,35,36
 420 290 420 290 442 296 c 1,37,38
 418 254 418 254 391 228 c 1,39,-1
 355 228 l 1,25,26
EndSplineSet
EndChar

StartChar: ntilde
Encoding: 241 241 180
Width: 715
Flags: W
LayerCount: 2
Fore
SplineSet
646 500 m 1,0,1
 652 395 652 395 652 278.5 c 128,-1,2
 652 162 652 162 642 0 c 1,3,-1
 546 0 l 1,4,5
 352 104 352 104 190 283 c 1,6,7
 198 216 198 216 198 145.5 c 128,-1,8
 198 75 198 75 193 0 c 1,9,-1
 76 0 l 1,10,11
 96 123 96 123 96 227.5 c 128,-1,12
 96 332 96 332 86 393 c 1,13,14
 46 453 46 453 23 500 c 1,15,-1
 307 500 l 1,16,17
 349 428 349 428 421.5 351.5 c 128,-1,18
 494 275 494 275 560 232 c 1,19,20
 560 378 560 378 527 500 c 1,21,-1
 646 500 l 1,0,1
443.5 586.5 m 128,-1,23
 423 575 423 575 393.5 575 c 128,-1,24
 364 575 364 575 330 595.5 c 128,-1,25
 296 616 296 616 280 616 c 0,26,27
 243 616 243 616 214 583 c 1,28,-1
 227 623 l 1,29,30
 239 637 239 637 257.5 648.5 c 128,-1,31
 276 660 276 660 297.5 660 c 128,-1,32
 319 660 319 660 349.5 649 c 128,-1,33
 380 638 380 638 402 638 c 0,34,35
 456 638 456 638 501 685 c 1,36,37
 497 677 497 677 487 648 c 128,-1,38
 477 619 477 619 470.5 608.5 c 128,-1,22
 464 598 464 598 443.5 586.5 c 128,-1,23
EndSplineSet
EndChar

StartChar: ograve
Encoding: 242 242 181
Width: 658
Flags: W
LayerCount: 2
Fore
SplineSet
261 -22 m 0,0,1
 196 -22 196 -22 123 3 c 1,2,3
 34 117 34 117 34 237 c 128,-1,4
 34 357 34 357 134 440 c 128,-1,5
 234 523 234 523 390 523 c 0,6,7
 473 523 473 523 555 498 c 1,8,9
 627 407 627 407 627 303 c 0,10,11
 627 172 627 172 520 75 c 128,-1,12
 413 -22 413 -22 261 -22 c 0,0,1
381.5 333 m 128,-1,14
 343 401 343 401 275 436 c 1,15,16
 240 376 240 376 240 295 c 128,-1,17
 240 214 240 214 275.5 145.5 c 128,-1,18
 311 77 311 77 373 47 c 1,19,20
 420 107 420 107 420 186 c 128,-1,13
 420 265 420 265 381.5 333 c 128,-1,14
333 680 m 1,21,22
 364 597 364 597 436 550 c 1,23,-1
 370 550 l 1,24,25
 333 567 333 567 310 580 c 128,-1,26
 287 593 287 593 261.5 616 c 128,-1,27
 236 639 236 639 222 666 c 1,28,-1
 333 680 l 1,21,22
EndSplineSet
EndChar

StartChar: oacute
Encoding: 243 243 182
Width: 658
Flags: W
LayerCount: 2
Fore
SplineSet
123 3 m 1,0,1
 34 117 34 117 34 237 c 128,-1,2
 34 357 34 357 134 440 c 128,-1,3
 234 523 234 523 390 523 c 0,4,5
 473 523 473 523 555 498 c 1,6,7
 627 407 627 407 627 303 c 0,8,9
 627 172 627 172 520 75 c 128,-1,10
 413 -22 413 -22 261 -22 c 0,11,12
 196 -22 196 -22 123 3 c 1,0,1
275 436 m 1,13,14
 240 376 240 376 240 295 c 128,-1,15
 240 214 240 214 275.5 145.5 c 128,-1,16
 311 77 311 77 373 47 c 1,17,18
 420 107 420 107 420 186 c 128,-1,19
 420 265 420 265 381.5 333 c 128,-1,20
 343 401 343 401 275 436 c 1,13,14
325 680 m 1,21,-1
 436 666 l 1,22,23
 422 639 422 639 396.5 616 c 128,-1,24
 371 593 371 593 348 580 c 128,-1,25
 325 567 325 567 288 550 c 1,26,-1
 222 550 l 1,27,28
 294 597 294 597 325 680 c 1,21,-1
EndSplineSet
EndChar

StartChar: ocircumflex
Encoding: 244 244 183
Width: 658
Flags: W
LayerCount: 2
Fore
SplineSet
261 -22 m 0,0,1
 196 -22 196 -22 123 3 c 1,2,3
 34 117 34 117 34 237 c 128,-1,4
 34 357 34 357 134 440 c 128,-1,5
 234 523 234 523 390 523 c 0,6,7
 473 523 473 523 555 498 c 1,8,9
 627 407 627 407 627 303 c 0,10,11
 627 172 627 172 520 75 c 128,-1,12
 413 -22 413 -22 261 -22 c 0,0,1
381.5 333 m 128,-1,14
 343 401 343 401 275 436 c 1,15,16
 240 376 240 376 240 295 c 128,-1,17
 240 214 240 214 275.5 145.5 c 128,-1,18
 311 77 311 77 373 47 c 1,19,20
 420 107 420 107 420 186 c 128,-1,13
 420 265 420 265 381.5 333 c 128,-1,14
214 558 m 1,21,-1
 304 673 l 1,22,-1
 353 673 l 1,23,-1
 443 558 l 1,24,-1
 411 558 l 1,25,-1
 328 620 l 1,26,-1
 246 558 l 1,27,-1
 214 558 l 1,21,-1
EndSplineSet
EndChar

StartChar: otilde
Encoding: 245 245 184
Width: 658
Flags: W
LayerCount: 2
Fore
SplineSet
123 3 m 1,0,1
 34 117 34 117 34 237 c 128,-1,2
 34 357 34 357 134 440 c 128,-1,3
 234 523 234 523 390 523 c 0,4,5
 473 523 473 523 555 498 c 1,6,7
 627 407 627 407 627 303 c 0,8,9
 627 172 627 172 520 75 c 128,-1,10
 413 -22 413 -22 261 -22 c 0,11,12
 196 -22 196 -22 123 3 c 1,0,1
275 436 m 1,13,14
 240 376 240 376 240 295 c 128,-1,15
 240 214 240 214 275.5 145.5 c 128,-1,16
 311 77 311 77 373 47 c 1,17,18
 420 107 420 107 420 186 c 128,-1,19
 420 265 420 265 381.5 333 c 128,-1,20
 343 401 343 401 275 436 c 1,13,14
414.5 586.5 m 128,-1,22
 394 575 394 575 364.5 575 c 128,-1,23
 335 575 335 575 301 595.5 c 128,-1,24
 267 616 267 616 251 616 c 0,25,26
 214 616 214 616 185 583 c 1,27,-1
 198 623 l 1,28,29
 210 637 210 637 228.5 648.5 c 128,-1,30
 247 660 247 660 268.5 660 c 128,-1,31
 290 660 290 660 320.5 649 c 128,-1,32
 351 638 351 638 373 638 c 0,33,34
 427 638 427 638 472 685 c 1,35,36
 468 677 468 677 458 648 c 128,-1,37
 448 619 448 619 441.5 608.5 c 128,-1,21
 435 598 435 598 414.5 586.5 c 128,-1,22
EndSplineSet
EndChar

StartChar: odieresis
Encoding: 246 246 185
Width: 658
Flags: W
LayerCount: 2
Fore
SplineSet
123 3 m 1,0,1
 34 117 34 117 34 237 c 128,-1,2
 34 357 34 357 134 440 c 128,-1,3
 234 523 234 523 390 523 c 0,4,5
 473 523 473 523 555 498 c 1,6,7
 627 407 627 407 627 303 c 0,8,9
 627 172 627 172 520 75 c 128,-1,10
 413 -22 413 -22 261 -22 c 0,11,12
 196 -22 196 -22 123 3 c 1,0,1
275 436 m 1,13,14
 240 376 240 376 240 295 c 128,-1,15
 240 214 240 214 275.5 145.5 c 128,-1,16
 311 77 311 77 373 47 c 1,17,18
 420 107 420 107 420 186 c 128,-1,19
 420 265 420 265 381.5 333 c 128,-1,20
 343 401 343 401 275 436 c 1,13,14
271 576 m 1,21,-1
 231 575 l 2,22,23
 211 575 211 575 173 577 c 1,24,25
 198 636 198 636 203 678 c 1,26,27
 256 673 256 673 305 672 c 1,28,29
 293 618 293 618 271 576 c 1,21,-1
450 576 m 1,30,-1
 409 575 l 2,31,32
 390 575 390 575 352 577 c 1,33,34
 376 638 376 638 382 678 c 1,35,36
 434 673 434 673 484 672 c 1,37,38
 470 616 470 616 450 576 c 1,30,-1
EndSplineSet
EndChar

StartChar: divide
Encoding: 247 247 186
Width: 358
Flags: W
LayerCount: 2
Fore
SplineSet
179 281 m 128,-1,1
 251 281 251 281 308 285 c 1,2,-1
 308 232 l 1,3,4
 236 237 236 237 179 237 c 128,-1,5
 122 237 122 237 50 232 c 1,6,-1
 50 285 l 1,7,0
 107 281 107 281 179 281 c 128,-1,1
179 369 m 128,-1,9
 190 369 190 369 198 361 c 128,-1,10
 206 353 206 353 206 342 c 128,-1,11
 206 331 206 331 198 323 c 128,-1,12
 190 315 190 315 179 315 c 128,-1,13
 168 315 168 315 160 323 c 128,-1,14
 152 331 152 331 152 342 c 128,-1,15
 152 353 152 353 160 361 c 128,-1,8
 168 369 168 369 179 369 c 128,-1,9
179 202 m 128,-1,17
 190 202 190 202 198 194.5 c 128,-1,18
 206 187 206 187 206 176 c 128,-1,19
 206 165 206 165 198 157 c 128,-1,20
 190 149 190 149 179 149 c 128,-1,21
 168 149 168 149 160 157 c 128,-1,22
 152 165 152 165 152 176 c 128,-1,23
 152 187 152 187 160 194.5 c 128,-1,16
 168 202 168 202 179 202 c 128,-1,17
EndSplineSet
EndChar

StartChar: oslash
Encoding: 248 248 187
Width: 623
Flags: W
LayerCount: 2
Fore
SplineSet
18 232 m 0,0,1
 18 356 18 356 119 439.5 c 128,-1,2
 220 523 220 523 374 523 c 0,3,4
 439 523 439 523 506 507 c 1,5,-1
 525 529 l 1,6,7
 581 540 581 540 644 545 c 1,8,-1
 561 466 l 1,9,10
 610 388 610 388 610 302 c 0,11,12
 610 172 610 172 503.5 75 c 128,-1,13
 397 -22 397 -22 245 -22 c 0,14,15
 180 -22 180 -22 107 3 c 1,16,-1
 101 10 l 1,17,-1
 54 -41 l 1,18,-1
 -15 -41 l 1,19,-1
 74 49 l 1,20,21
 18 143 18 143 18 232 c 0,0,1
402 192 m 0,22,23
 402 246 402 246 383 296 c 1,24,25
 293 208 293 208 250 164 c 1,26,27
 288 81 288 81 356 48 c 1,28,29
 402 107 402 107 402 192 c 0,22,23
224 293 m 0,30,31
 224 250 224 250 233 213 c 1,32,33
 304 286 304 286 357 344 c 1,34,35
 318 405 318 405 259 435 c 1,36,37
 224 375 224 375 224 293 c 0,30,31
EndSplineSet
EndChar

StartChar: ugrave
Encoding: 249 249 188
Width: 701
Flags: W
LayerCount: 2
Fore
SplineSet
558 168 m 0,0,1
 558 326 558 326 530 500 c 1,2,-1
 658 500 l 1,3,4
 662 435 662 435 662 310.5 c 128,-1,5
 662 186 662 186 646 45 c 1,6,7
 542 -22 542 -22 397 -22 c 0,8,9
 204 -22 204 -22 85 45 c 1,10,11
 72 153 72 153 72 254.5 c 128,-1,12
 72 356 72 356 87 500 c 1,13,-1
 356 500 l 1,14,15
 316 283 316 283 314 83 c 1,16,17
 356 45 356 45 435 45 c 128,-1,18
 514 45 514 45 556 73 c 1,19,20
 558 106 558 106 558 168 c 0,0,1
354 680 m 1,21,22
 385 597 385 597 457 550 c 1,23,-1
 391 550 l 1,24,25
 354 567 354 567 331 580 c 128,-1,26
 308 593 308 593 282.5 616 c 128,-1,27
 257 639 257 639 243 666 c 1,28,-1
 354 680 l 1,21,22
EndSplineSet
EndChar

StartChar: uacute
Encoding: 250 250 189
Width: 701
Flags: W
LayerCount: 2
Fore
SplineSet
658 500 m 1,0,1
 662 435 662 435 662 310.5 c 128,-1,2
 662 186 662 186 646 45 c 1,3,4
 542 -22 542 -22 397 -22 c 0,5,6
 204 -22 204 -22 85 45 c 1,7,8
 72 153 72 153 72 254.5 c 128,-1,9
 72 356 72 356 87 500 c 1,10,-1
 356 500 l 1,11,12
 316 283 316 283 314 83 c 1,13,14
 356 45 356 45 435 45 c 128,-1,15
 514 45 514 45 556 73 c 1,16,17
 558 106 558 106 558 168 c 0,18,19
 558 326 558 326 530 500 c 1,20,-1
 658 500 l 1,0,1
346 680 m 1,21,-1
 457 666 l 1,22,23
 443 639 443 639 417.5 616 c 128,-1,24
 392 593 392 593 369 580 c 128,-1,25
 346 567 346 567 309 550 c 1,26,-1
 243 550 l 1,27,28
 315 597 315 597 346 680 c 1,21,-1
EndSplineSet
EndChar

StartChar: ucircumflex
Encoding: 251 251 190
Width: 701
Flags: W
LayerCount: 2
Fore
SplineSet
558 168 m 0,0,1
 558 326 558 326 530 500 c 1,2,-1
 658 500 l 1,3,4
 662 435 662 435 662 310.5 c 128,-1,5
 662 186 662 186 646 45 c 1,6,7
 542 -22 542 -22 397 -22 c 0,8,9
 204 -22 204 -22 85 45 c 1,10,11
 72 153 72 153 72 254.5 c 128,-1,12
 72 356 72 356 87 500 c 1,13,-1
 356 500 l 1,14,15
 316 283 316 283 314 83 c 1,16,17
 356 45 356 45 435 45 c 128,-1,18
 514 45 514 45 556 73 c 1,19,20
 558 106 558 106 558 168 c 0,0,1
236 558 m 1,21,-1
 326 673 l 1,22,-1
 375 673 l 1,23,-1
 465 558 l 1,24,-1
 433 558 l 1,25,-1
 350 620 l 1,26,-1
 268 558 l 1,27,-1
 236 558 l 1,21,-1
EndSplineSet
EndChar

StartChar: udieresis
Encoding: 252 252 191
Width: 701
Flags: W
LayerCount: 2
Fore
SplineSet
658 500 m 1,0,1
 662 435 662 435 662 310.5 c 128,-1,2
 662 186 662 186 646 45 c 1,3,4
 542 -22 542 -22 397 -22 c 0,5,6
 204 -22 204 -22 85 45 c 1,7,8
 72 153 72 153 72 254.5 c 128,-1,9
 72 356 72 356 87 500 c 1,10,-1
 356 500 l 1,11,12
 316 283 316 283 314 83 c 1,13,14
 356 45 356 45 435 45 c 128,-1,15
 514 45 514 45 556 73 c 1,16,17
 558 106 558 106 558 168 c 0,18,19
 558 326 558 326 530 500 c 1,20,-1
 658 500 l 1,0,1
293 576 m 1,21,-1
 253 575 l 2,22,23
 233 575 233 575 195 577 c 1,24,25
 220 636 220 636 225 678 c 1,26,27
 278 673 278 673 327 672 c 1,28,29
 315 618 315 618 293 576 c 1,21,-1
472 576 m 1,30,-1
 431 575 l 2,31,32
 412 575 412 575 374 577 c 1,33,34
 398 638 398 638 404 678 c 1,35,36
 456 673 456 673 506 672 c 1,37,38
 492 616 492 616 472 576 c 1,30,-1
EndSplineSet
EndChar

StartChar: yacute
Encoding: 253 253 192
Width: 732
Flags: W
LayerCount: 2
Fore
SplineSet
704 481 m 1,0,1
 670 473 670 473 647 473 c 128,-1,2
 624 473 624 473 603 476 c 1,3,4
 572 439 572 439 547 377 c 128,-1,5
 522 315 522 315 509.5 266 c 128,-1,6
 497 217 497 217 482 146 c 0,7,8
 406 -216 406 -216 330 -368 c 1,9,10
 280 -383 280 -383 206 -397 c 1,11,12
 306 -226 306 -226 368 0 c 1,13,-1
 161 0 l 1,14,15
 82 256 82 256 79 500 c 1,16,-1
 371 500 l 1,17,18
 350 407 350 407 350 302.5 c 128,-1,19
 350 198 350 198 384 64 c 1,20,21
 391 91 391 91 408 158.5 c 128,-1,22
 425 226 425 226 433 255 c 128,-1,23
 441 284 441 284 457.5 337 c 128,-1,24
 474 390 474 390 487.5 416.5 c 128,-1,25
 501 443 501 443 521 476 c 0,26,27
 557 535 557 535 616 556 c 0,28,29
 633 561 633 561 685 566.5 c 128,-1,30
 737 572 737 572 760 587 c 1,31,32
 733 525 733 525 704 481 c 1,0,1
362 680 m 1,33,-1
 473 666 l 1,34,35
 459 639 459 639 433.5 616 c 128,-1,36
 408 593 408 593 385 580 c 128,-1,37
 362 567 362 567 325 550 c 1,38,-1
 259 550 l 1,39,40
 331 597 331 597 362 680 c 1,33,-1
EndSplineSet
EndChar

StartChar: thorn
Encoding: 254 254 193
Width: 676
Flags: W
LayerCount: 2
Fore
SplineSet
87 156 m 0,0,1
 87 386 87 386 45 616 c 1,2,3
 142 599 142 599 334 567 c 1,4,-1
 338 500 l 1,5,-1
 603 500 l 1,6,7
 636 412 636 412 636 322 c 0,8,9
 636 280 636 280 628 226 c 1,10,11
 508 167 508 167 344 152 c 1,12,13
 341 75 341 75 335 0 c 1,14,-1
 82 0 l 1,15,16
 87 64 87 64 87 156 c 0,0,1
345 274 m 2,17,-1
 345 222 l 1,18,19
 398 227 398 227 436 242 c 1,20,21
 429 285 429 285 400.5 339.5 c 128,-1,22
 372 394 372 394 342 432 c 1,23,24
 345 352 345 352 345 274 c 2,17,-1
EndSplineSet
EndChar

StartChar: ydieresis
Encoding: 255 255 194
Width: 732
Flags: W
LayerCount: 2
Fore
SplineSet
704 481 m 1,0,1
 670 473 670 473 647 473 c 128,-1,2
 624 473 624 473 603 476 c 1,3,4
 572 439 572 439 547 377 c 128,-1,5
 522 315 522 315 509.5 266 c 128,-1,6
 497 217 497 217 482 146 c 0,7,8
 406 -216 406 -216 330 -368 c 1,9,10
 280 -383 280 -383 206 -397 c 1,11,12
 306 -226 306 -226 368 0 c 1,13,-1
 161 0 l 1,14,15
 82 256 82 256 79 500 c 1,16,-1
 371 500 l 1,17,18
 350 407 350 407 350 302.5 c 128,-1,19
 350 198 350 198 384 64 c 1,20,21
 391 91 391 91 408 158.5 c 128,-1,22
 425 226 425 226 433 255 c 128,-1,23
 441 284 441 284 457.5 337 c 128,-1,24
 474 390 474 390 487.5 416.5 c 128,-1,25
 501 443 501 443 521 476 c 0,26,27
 557 535 557 535 616 556 c 0,28,29
 633 561 633 561 685 566.5 c 128,-1,30
 737 572 737 572 760 587 c 1,31,32
 733 525 733 525 704 481 c 1,0,1
308 576 m 1,33,-1
 268 575 l 2,34,35
 248 575 248 575 210 577 c 1,36,37
 235 636 235 636 240 678 c 1,38,39
 293 673 293 673 342 672 c 1,40,41
 330 618 330 618 308 576 c 1,33,-1
487 576 m 1,42,-1
 446 575 l 2,43,44
 427 575 427 575 389 577 c 1,45,46
 413 638 413 638 419 678 c 1,47,48
 471 673 471 673 521 672 c 1,49,50
 507 616 507 616 487 576 c 1,42,-1
EndSplineSet
EndChar

StartChar: Amacron
Encoding: 256 256 195
Width: 767
Flags: W
LayerCount: 2
Fore
SplineSet
82 655 m 1,0,1
 239 650 239 650 357 650 c 128,-1,2
 475 650 475 650 645 655 c 1,3,-1
 645 580 l 1,4,5
 466 587 466 587 358 587 c 128,-1,6
 250 587 250 587 82 580 c 1,7,-1
 82 655 l 1,0,1
690 8 m 2,8,-1
 690 0 l 1,9,-1
 458 0 l 1,10,11
 454 57 454 57 441 118 c 1,12,13
 379 55 379 55 301 0 c 1,14,-1
 68 0 l 1,15,16
 61 41 61 41 61 108.5 c 128,-1,17
 61 176 61 176 81 244 c 1,18,19
 153 265 153 265 219.5 315 c 128,-1,20
 286 365 286 365 316 423 c 1,21,22
 289 465 289 465 259 500 c 1,23,-1
 591 500 l 1,24,25
 690 285 690 285 690 8 c 2,8,-1
423 191 m 1,26,27
 397 280 397 280 355 359 c 1,28,29
 308 221 308 221 301 98 c 1,30,31
 373 135 373 135 423 191 c 1,26,27
EndSplineSet
EndChar

StartChar: amacron
Encoding: 257 257 196
Width: 767
Flags: W
LayerCount: 2
Fore
SplineSet
82 655 m 1,0,1
 239 650 239 650 357 650 c 128,-1,2
 475 650 475 650 645 655 c 1,3,-1
 645 580 l 1,4,5
 466 587 466 587 358 587 c 128,-1,6
 250 587 250 587 82 580 c 1,7,-1
 82 655 l 1,0,1
690 8 m 2,8,-1
 690 0 l 1,9,-1
 458 0 l 1,10,11
 454 57 454 57 441 118 c 1,12,13
 379 55 379 55 301 0 c 1,14,-1
 68 0 l 1,15,16
 61 41 61 41 61 108.5 c 128,-1,17
 61 176 61 176 81 244 c 1,18,19
 153 265 153 265 219.5 315 c 128,-1,20
 286 365 286 365 316 423 c 1,21,22
 289 465 289 465 259 500 c 1,23,-1
 591 500 l 1,24,25
 690 285 690 285 690 8 c 2,8,-1
423 191 m 1,26,27
 397 280 397 280 355 359 c 1,28,29
 308 221 308 221 301 98 c 1,30,31
 373 135 373 135 423 191 c 1,26,27
EndSplineSet
EndChar

StartChar: Abreve
Encoding: 258 258 197
Width: 767
Flags: W
LayerCount: 2
Fore
SplineSet
690 8 m 2,0,-1
 690 0 l 1,1,-1
 458 0 l 1,2,3
 454 57 454 57 441 118 c 1,4,5
 379 55 379 55 301 0 c 1,6,-1
 68 0 l 1,7,8
 61 41 61 41 61 108.5 c 128,-1,9
 61 176 61 176 81 244 c 1,10,11
 153 265 153 265 219.5 315 c 128,-1,12
 286 365 286 365 316 423 c 1,13,14
 289 465 289 465 259 500 c 1,15,-1
 591 500 l 1,16,17
 690 285 690 285 690 8 c 2,0,-1
423 191 m 1,18,19
 397 280 397 280 355 359 c 1,20,21
 308 221 308 221 301 98 c 1,22,23
 373 135 373 135 423 191 c 1,18,19
362 615 m 1,24,25
 397 593 397 593 444.5 593 c 128,-1,26
 492 593 492 593 530 626 c 1,27,28
 532 626 532 626 521 606.5 c 128,-1,29
 510 587 510 587 484 566 c 0,30,31
 451 538 451 538 396.5 538 c 128,-1,32
 342 538 342 538 292 569 c 1,33,-1
 278 577 l 1,34,35
 283 607 283 607 296.5 643.5 c 128,-1,36
 310 680 310 680 311 680 c 2,37,-1
 362 615 l 1,24,25
EndSplineSet
EndChar

StartChar: abreve
Encoding: 259 259 198
Width: 767
Flags: W
LayerCount: 2
Fore
SplineSet
690 8 m 2,0,-1
 690 0 l 1,1,-1
 458 0 l 1,2,3
 454 57 454 57 441 118 c 1,4,5
 379 55 379 55 301 0 c 1,6,-1
 68 0 l 1,7,8
 61 41 61 41 61 108.5 c 128,-1,9
 61 176 61 176 81 244 c 1,10,11
 153 265 153 265 219.5 315 c 128,-1,12
 286 365 286 365 316 423 c 1,13,14
 289 465 289 465 259 500 c 1,15,-1
 591 500 l 1,16,17
 690 285 690 285 690 8 c 2,0,-1
423 191 m 1,18,19
 397 280 397 280 355 359 c 1,20,21
 308 221 308 221 301 98 c 1,22,23
 373 135 373 135 423 191 c 1,18,19
362 615 m 1,24,25
 397 593 397 593 444.5 593 c 128,-1,26
 492 593 492 593 530 626 c 1,27,28
 532 626 532 626 521 606.5 c 128,-1,29
 510 587 510 587 484 566 c 0,30,31
 451 538 451 538 396.5 538 c 128,-1,32
 342 538 342 538 292 569 c 1,33,-1
 278 577 l 1,34,35
 283 607 283 607 296.5 643.5 c 128,-1,36
 310 680 310 680 311 680 c 2,37,-1
 362 615 l 1,24,25
EndSplineSet
EndChar

StartChar: Aogonek
Encoding: 260 260 199
Width: 749
Flags: W
LayerCount: 2
Fore
SplineSet
559 -96 m 0,0,1
 559 -136 559 -136 595 -136 c 0,2,3
 613 -136 613 -136 632 -118 c 1,4,5
 634 -128 634 -128 637 -139 c 1,6,7
 611 -174 611 -174 573.5 -174 c 128,-1,8
 536 -174 536 -174 515 -153 c 128,-1,9
 494 -132 494 -132 494 -106 c 0,10,11
 494 -47 494 -47 563 0 c 1,12,-1
 454 0 l 1,13,14
 450 57 450 57 437 118 c 1,15,16
 375 55 375 55 297 0 c 1,17,-1
 64 0 l 1,18,19
 57 41 57 41 57 108.5 c 128,-1,20
 57 176 57 176 77 244 c 1,21,22
 149 265 149 265 215.5 315 c 128,-1,23
 282 365 282 365 312 423 c 1,24,25
 285 465 285 465 255 500 c 1,26,-1
 587 500 l 1,27,28
 686 285 686 285 686 8 c 2,29,-1
 686 0 l 1,30,-1
 611 0 l 1,31,32
 559 -42 559 -42 559 -96 c 0,0,1
419 191 m 1,33,34
 393 280 393 280 351 359 c 1,35,36
 304 221 304 221 297 98 c 1,37,38
 369 135 369 135 419 191 c 1,33,34
EndSplineSet
EndChar

StartChar: aogonek
Encoding: 261 261 200
Width: 749
Flags: W
LayerCount: 2
Fore
SplineSet
559 -96 m 0,0,1
 559 -136 559 -136 595 -136 c 0,2,3
 613 -136 613 -136 632 -118 c 1,4,5
 634 -128 634 -128 637 -139 c 1,6,7
 611 -174 611 -174 573.5 -174 c 128,-1,8
 536 -174 536 -174 515 -153 c 128,-1,9
 494 -132 494 -132 494 -106 c 0,10,11
 494 -47 494 -47 563 0 c 1,12,-1
 454 0 l 1,13,14
 450 57 450 57 437 118 c 1,15,16
 375 55 375 55 297 0 c 1,17,-1
 64 0 l 1,18,19
 57 41 57 41 57 108.5 c 128,-1,20
 57 176 57 176 77 244 c 1,21,22
 149 265 149 265 215.5 315 c 128,-1,23
 282 365 282 365 312 423 c 1,24,25
 285 465 285 465 255 500 c 1,26,-1
 587 500 l 1,27,28
 686 285 686 285 686 8 c 2,29,-1
 686 0 l 1,30,-1
 611 0 l 1,31,32
 559 -42 559 -42 559 -96 c 0,0,1
419 191 m 1,33,34
 393 280 393 280 351 359 c 1,35,36
 304 221 304 221 297 98 c 1,37,38
 369 135 369 135 419 191 c 1,33,34
EndSplineSet
EndChar

StartChar: Cacute
Encoding: 262 262 201
Width: 632
Flags: W
LayerCount: 2
Fore
SplineSet
449 439 m 1,0,1
 414 445 414 445 381.5 445 c 128,-1,2
 349 445 349 445 303 434 c 1,3,4
 288 371 288 371 288 311 c 0,5,6
 288 156 288 156 426 73 c 1,7,8
 518 134 518 134 592 225 c 1,9,10
 595 185 595 185 597 103 c 1,11,12
 523 45 523 45 446 12 c 128,-1,13
 369 -21 369 -21 254 -21 c 2,14,-1
 231 -21 l 1,15,16
 141 18 141 18 89.5 94 c 128,-1,17
 38 170 38 170 38 254 c 0,18,19
 38 366 38 366 130 444.5 c 128,-1,20
 222 523 222 523 397 523 c 0,21,22
 495 523 495 523 602 498 c 1,23,24
 586 435 586 435 562 379 c 1,25,26
 499 373 499 373 432 373 c 1,27,28
 442 401 442 401 449 439 c 1,0,1
312 680 m 1,29,-1
 423 666 l 1,30,31
 409 639 409 639 383.5 616 c 128,-1,32
 358 593 358 593 335 580 c 128,-1,33
 312 567 312 567 275 550 c 1,34,-1
 209 550 l 1,35,36
 281 597 281 597 312 680 c 1,29,-1
EndSplineSet
EndChar

StartChar: cacute
Encoding: 263 263 202
Width: 632
Flags: W
LayerCount: 2
Fore
SplineSet
449 439 m 1,0,1
 414 445 414 445 381.5 445 c 128,-1,2
 349 445 349 445 303 434 c 1,3,4
 288 371 288 371 288 311 c 0,5,6
 288 156 288 156 426 73 c 1,7,8
 518 134 518 134 592 225 c 1,9,10
 595 185 595 185 597 103 c 1,11,12
 523 45 523 45 446 12 c 128,-1,13
 369 -21 369 -21 254 -21 c 2,14,-1
 231 -21 l 1,15,16
 141 18 141 18 89.5 94 c 128,-1,17
 38 170 38 170 38 254 c 0,18,19
 38 366 38 366 130 444.5 c 128,-1,20
 222 523 222 523 397 523 c 0,21,22
 495 523 495 523 602 498 c 1,23,24
 586 435 586 435 562 379 c 1,25,26
 499 373 499 373 432 373 c 1,27,28
 442 401 442 401 449 439 c 1,0,1
312 680 m 1,29,-1
 423 666 l 1,30,31
 409 639 409 639 383.5 616 c 128,-1,32
 358 593 358 593 335 580 c 128,-1,33
 312 567 312 567 275 550 c 1,34,-1
 209 550 l 1,35,36
 281 597 281 597 312 680 c 1,29,-1
EndSplineSet
EndChar

StartChar: Ccircumflex
Encoding: 264 264 203
Width: 632
Flags: W
LayerCount: 2
Fore
SplineSet
397 523 m 0,0,1
 495 523 495 523 602 498 c 1,2,3
 586 435 586 435 562 379 c 1,4,5
 499 373 499 373 432 373 c 1,6,7
 442 401 442 401 449 439 c 1,8,9
 414 445 414 445 381.5 445 c 128,-1,10
 349 445 349 445 303 434 c 1,11,12
 288 371 288 371 288 311 c 0,13,14
 288 156 288 156 426 73 c 1,15,16
 518 134 518 134 592 225 c 1,17,18
 595 185 595 185 597 103 c 1,19,20
 523 45 523 45 446 12 c 128,-1,21
 369 -21 369 -21 254 -21 c 2,22,-1
 231 -21 l 1,23,24
 141 18 141 18 89.5 94 c 128,-1,25
 38 170 38 170 38 254 c 0,26,27
 38 366 38 366 130 444.5 c 128,-1,28
 222 523 222 523 397 523 c 0,0,1
201 558 m 1,29,-1
 291 673 l 1,30,-1
 340 673 l 1,31,-1
 430 558 l 1,32,-1
 398 558 l 1,33,-1
 315 620 l 1,34,-1
 233 558 l 1,35,-1
 201 558 l 1,29,-1
EndSplineSet
EndChar

StartChar: ccircumflex
Encoding: 265 265 204
Width: 632
Flags: W
LayerCount: 2
Fore
SplineSet
397 523 m 0,0,1
 495 523 495 523 602 498 c 1,2,3
 586 435 586 435 562 379 c 1,4,5
 499 373 499 373 432 373 c 1,6,7
 442 401 442 401 449 439 c 1,8,9
 414 445 414 445 381.5 445 c 128,-1,10
 349 445 349 445 303 434 c 1,11,12
 288 371 288 371 288 311 c 0,13,14
 288 156 288 156 426 73 c 1,15,16
 518 134 518 134 592 225 c 1,17,18
 595 185 595 185 597 103 c 1,19,20
 523 45 523 45 446 12 c 128,-1,21
 369 -21 369 -21 254 -21 c 2,22,-1
 231 -21 l 1,23,24
 141 18 141 18 89.5 94 c 128,-1,25
 38 170 38 170 38 254 c 0,26,27
 38 366 38 366 130 444.5 c 128,-1,28
 222 523 222 523 397 523 c 0,0,1
201 558 m 1,29,-1
 291 673 l 1,30,-1
 340 673 l 1,31,-1
 430 558 l 1,32,-1
 398 558 l 1,33,-1
 315 620 l 1,34,-1
 233 558 l 1,35,-1
 201 558 l 1,29,-1
EndSplineSet
EndChar

StartChar: Cdotaccent
Encoding: 266 266 205
Width: 632
Flags: W
LayerCount: 2
Fore
SplineSet
449 439 m 1,0,1
 414 445 414 445 381.5 445 c 128,-1,2
 349 445 349 445 303 434 c 1,3,4
 288 371 288 371 288 311 c 0,5,6
 288 156 288 156 426 73 c 1,7,8
 518 134 518 134 592 225 c 1,9,10
 595 185 595 185 597 103 c 1,11,12
 523 45 523 45 446 12 c 128,-1,13
 369 -21 369 -21 254 -21 c 2,14,-1
 231 -21 l 1,15,16
 141 18 141 18 89.5 94 c 128,-1,17
 38 170 38 170 38 254 c 0,18,19
 38 366 38 366 130 444.5 c 128,-1,20
 222 523 222 523 397 523 c 0,21,22
 495 523 495 523 602 498 c 1,23,24
 586 435 586 435 562 379 c 1,25,26
 499 373 499 373 432 373 c 1,27,28
 442 401 442 401 449 439 c 1,0,1
348 576 m 1,29,-1
 308 575 l 2,30,31
 288 575 288 575 250 577 c 1,32,33
 275 636 275 636 280 678 c 1,34,35
 333 673 333 673 382 672 c 1,36,37
 370 618 370 618 348 576 c 1,29,-1
EndSplineSet
EndChar

StartChar: cdotaccent
Encoding: 267 267 206
Width: 632
Flags: W
LayerCount: 2
Fore
SplineSet
449 439 m 1,0,1
 414 445 414 445 381.5 445 c 128,-1,2
 349 445 349 445 303 434 c 1,3,4
 288 371 288 371 288 311 c 0,5,6
 288 156 288 156 426 73 c 1,7,8
 518 134 518 134 592 225 c 1,9,10
 595 185 595 185 597 103 c 1,11,12
 523 45 523 45 446 12 c 128,-1,13
 369 -21 369 -21 254 -21 c 2,14,-1
 231 -21 l 1,15,16
 141 18 141 18 89.5 94 c 128,-1,17
 38 170 38 170 38 254 c 0,18,19
 38 366 38 366 130 444.5 c 128,-1,20
 222 523 222 523 397 523 c 0,21,22
 495 523 495 523 602 498 c 1,23,24
 586 435 586 435 562 379 c 1,25,26
 499 373 499 373 432 373 c 1,27,28
 442 401 442 401 449 439 c 1,0,1
348 576 m 1,29,-1
 308 575 l 2,30,31
 288 575 288 575 250 577 c 1,32,33
 275 636 275 636 280 678 c 1,34,35
 333 673 333 673 382 672 c 1,36,37
 370 618 370 618 348 576 c 1,29,-1
EndSplineSet
EndChar

StartChar: Ccaron
Encoding: 268 268 207
Width: 632
Flags: W
LayerCount: 2
Fore
SplineSet
449 439 m 1,0,1
 414 445 414 445 381.5 445 c 128,-1,2
 349 445 349 445 303 434 c 1,3,4
 288 371 288 371 288 311 c 0,5,6
 288 156 288 156 426 73 c 1,7,8
 518 134 518 134 592 225 c 1,9,10
 595 185 595 185 597 103 c 1,11,12
 523 45 523 45 446 12 c 128,-1,13
 369 -21 369 -21 254 -21 c 2,14,-1
 231 -21 l 1,15,16
 141 18 141 18 89.5 94 c 128,-1,17
 38 170 38 170 38 254 c 0,18,19
 38 366 38 366 130 444.5 c 128,-1,20
 222 523 222 523 397 523 c 0,21,22
 495 523 495 523 602 498 c 1,23,24
 586 435 586 435 562 379 c 1,25,26
 499 373 499 373 432 373 c 1,27,28
 442 401 442 401 449 439 c 1,0,1
291 554 m 1,29,-1
 201 669 l 1,30,-1
 233 669 l 1,31,-1
 315 607 l 1,32,-1
 398 669 l 1,33,-1
 430 669 l 1,34,-1
 340 554 l 1,35,-1
 291 554 l 1,29,-1
EndSplineSet
EndChar

StartChar: ccaron
Encoding: 269 269 208
Width: 632
Flags: W
LayerCount: 2
Fore
SplineSet
449 439 m 1,0,1
 414 445 414 445 381.5 445 c 128,-1,2
 349 445 349 445 303 434 c 1,3,4
 288 371 288 371 288 311 c 0,5,6
 288 156 288 156 426 73 c 1,7,8
 518 134 518 134 592 225 c 1,9,10
 595 185 595 185 597 103 c 1,11,12
 523 45 523 45 446 12 c 128,-1,13
 369 -21 369 -21 254 -21 c 2,14,-1
 231 -21 l 1,15,16
 141 18 141 18 89.5 94 c 128,-1,17
 38 170 38 170 38 254 c 0,18,19
 38 366 38 366 130 444.5 c 128,-1,20
 222 523 222 523 397 523 c 0,21,22
 495 523 495 523 602 498 c 1,23,24
 586 435 586 435 562 379 c 1,25,26
 499 373 499 373 432 373 c 1,27,28
 442 401 442 401 449 439 c 1,0,1
291 554 m 1,29,-1
 201 669 l 1,30,-1
 233 669 l 1,31,-1
 315 607 l 1,32,-1
 398 669 l 1,33,-1
 430 669 l 1,34,-1
 340 554 l 1,35,-1
 291 554 l 1,29,-1
EndSplineSet
EndChar

StartChar: Dcaron
Encoding: 270 270 209
Width: 813
Flags: W
LayerCount: 2
Fore
SplineSet
315 523 m 0,0,1
 508 523 508 523 629 475 c 1,2,3
 672 389 672 389 672 301 c 0,4,5
 672 188 672 188 595 105 c 0,6,7
 483 -14 483 -14 292 -14 c 0,8,9
 226 -14 226 -14 113 1 c 1,10,11
 74 202 74 202 74 372 c 0,12,13
 74 431 74 431 80 500 c 1,14,15
 241 523 241 523 315 523 c 0,0,1
345 448 m 1,16,17
 327 260 327 260 327 178.5 c 128,-1,18
 327 97 327 97 330 46 c 1,19,20
 384 75 384 75 414.5 143.5 c 128,-1,21
 445 212 445 212 445 282.5 c 128,-1,22
 445 353 445 353 419.5 398 c 128,-1,23
 394 443 394 443 345 448 c 1,16,17
633 688 m 1,24,25
 695 677 695 677 798 677 c 1,26,27
 779 576 779 576 729 502 c 1,28,29
 699 506 699 506 683 510 c 1,30,31
 704 549 704 549 706 582 c 1,32,33
 644 582 644 582 611 588 c 1,34,35
 631 633 631 633 633 688 c 1,24,25
EndSplineSet
EndChar

StartChar: dcaron
Encoding: 271 271 210
Width: 813
Flags: W
LayerCount: 2
Fore
SplineSet
315 523 m 0,0,1
 508 523 508 523 629 475 c 1,2,3
 672 389 672 389 672 301 c 0,4,5
 672 188 672 188 595 105 c 0,6,7
 483 -14 483 -14 292 -14 c 0,8,9
 226 -14 226 -14 113 1 c 1,10,11
 74 202 74 202 74 372 c 0,12,13
 74 431 74 431 80 500 c 1,14,15
 241 523 241 523 315 523 c 0,0,1
345 448 m 1,16,17
 327 260 327 260 327 178.5 c 128,-1,18
 327 97 327 97 330 46 c 1,19,20
 384 75 384 75 414.5 143.5 c 128,-1,21
 445 212 445 212 445 282.5 c 128,-1,22
 445 353 445 353 419.5 398 c 128,-1,23
 394 443 394 443 345 448 c 1,16,17
633 688 m 1,24,25
 695 677 695 677 798 677 c 1,26,27
 779 576 779 576 729 502 c 1,28,29
 699 506 699 506 683 510 c 1,30,31
 704 549 704 549 706 582 c 1,32,33
 644 582 644 582 611 588 c 1,34,35
 631 633 631 633 633 688 c 1,24,25
EndSplineSet
EndChar

StartChar: Dcroat
Encoding: 272 272 211
Width: 730
Flags: W
LayerCount: 2
Fore
SplineSet
339 523 m 0,0,1
 534 523 534 523 659 474 c 1,2,3
 704 387 704 387 704 298 c 0,4,5
 704 182 704 182 627 99 c 0,6,7
 515 -22 515 -22 320 -22 c 0,8,9
 258 -22 258 -22 166 -10 c 2,10,-1
 136 -6 l 1,11,12
 111 118 111 118 101 233 c 1,13,14
 18 239 18 239 0 242 c 1,15,16
 6 246 6 246 18 256 c 0,17,18
 44 278 44 278 58 284 c 1,19,-1
 97 284 l 1,20,21
 95 313 95 313 95 375.5 c 128,-1,22
 95 438 95 438 101 506 c 1,23,24
 220 523 220 523 339 523 c 0,0,1
355 228 m 1,25,26
 353 172 353 172 353 132.5 c 128,-1,27
 353 93 353 93 356 39 c 1,28,29
 411 68 411 68 442 137 c 128,-1,30
 473 206 473 206 473 277.5 c 128,-1,31
 473 349 473 349 446.5 396 c 128,-1,32
 420 443 420 443 371 448 c 1,33,34
 365 385 365 385 358 288 c 1,35,36
 420 290 420 290 442 296 c 1,37,38
 418 254 418 254 391 228 c 1,39,-1
 355 228 l 1,25,26
EndSplineSet
EndChar

StartChar: dcroat
Encoding: 273 273 212
Width: 730
Flags: W
LayerCount: 2
Fore
SplineSet
339 523 m 0,0,1
 534 523 534 523 659 474 c 1,2,3
 704 387 704 387 704 298 c 0,4,5
 704 182 704 182 627 99 c 0,6,7
 515 -22 515 -22 320 -22 c 0,8,9
 258 -22 258 -22 166 -10 c 2,10,-1
 136 -6 l 1,11,12
 111 118 111 118 101 233 c 1,13,14
 18 239 18 239 0 242 c 1,15,16
 6 246 6 246 18 256 c 0,17,18
 44 278 44 278 58 284 c 1,19,-1
 97 284 l 1,20,21
 95 313 95 313 95 375.5 c 128,-1,22
 95 438 95 438 101 506 c 1,23,24
 220 523 220 523 339 523 c 0,0,1
355 228 m 1,25,26
 353 172 353 172 353 132.5 c 128,-1,27
 353 93 353 93 356 39 c 1,28,29
 411 68 411 68 442 137 c 128,-1,30
 473 206 473 206 473 277.5 c 128,-1,31
 473 349 473 349 446.5 396 c 128,-1,32
 420 443 420 443 371 448 c 1,33,34
 365 385 365 385 358 288 c 1,35,36
 420 290 420 290 442 296 c 1,37,38
 418 254 418 254 391 228 c 1,39,-1
 355 228 l 1,25,26
EndSplineSet
EndChar

StartChar: Emacron
Encoding: 274 274 213
Width: 671
Flags: W
LayerCount: 2
Fore
SplineSet
70 655 m 1,0,1
 227 650 227 650 345 650 c 128,-1,2
 463 650 463 650 633 655 c 1,3,-1
 633 580 l 1,4,5
 455 587 455 587 346.5 587 c 128,-1,6
 238 587 238 587 70 580 c 1,7,-1
 70 655 l 1,0,1
415 299 m 1,8,-1
 509 293 l 2,9,10
 523 293 523 293 530 294 c 1,11,-1
 483 206 l 1,12,-1
 474 206 l 2,13,14
 455 206 455 206 420 216.5 c 128,-1,15
 385 227 385 227 370 227 c 0,16,17
 329 227 329 227 305 174 c 1,18,19
 301 125 301 125 299 76 c 1,20,21
 351 66 351 66 381 66 c 2,22,-1
 390 66 l 2,23,24
 433 66 433 66 458.5 85 c 128,-1,25
 484 104 484 104 495 153 c 1,26,-1
 615 148 l 1,27,28
 600 62 600 62 575 0 c 1,29,-1
 84 0 l 1,30,31
 64 135 64 135 64 268 c 128,-1,32
 64 401 64 401 78 500 c 1,33,-1
 614 500 l 1,34,35
 596 392 596 392 582 348 c 1,36,37
 523 345 523 345 474 344 c 1,38,39
 482 367 482 367 482 387 c 0,40,41
 482 435 482 435 410 435 c 0,42,43
 383 435 383 435 350 429 c 1,44,45
 328 334 328 334 316 262 c 1,46,47
 356 299 356 299 415 299 c 1,8,-1
EndSplineSet
EndChar

StartChar: emacron
Encoding: 275 275 214
Width: 671
Flags: W
LayerCount: 2
Fore
SplineSet
70 655 m 1,0,1
 227 650 227 650 345 650 c 128,-1,2
 463 650 463 650 633 655 c 1,3,-1
 633 580 l 1,4,5
 455 587 455 587 346.5 587 c 128,-1,6
 238 587 238 587 70 580 c 1,7,-1
 70 655 l 1,0,1
415 299 m 1,8,-1
 509 293 l 2,9,10
 523 293 523 293 530 294 c 1,11,-1
 483 206 l 1,12,-1
 474 206 l 2,13,14
 455 206 455 206 420 216.5 c 128,-1,15
 385 227 385 227 370 227 c 0,16,17
 329 227 329 227 305 174 c 1,18,19
 301 125 301 125 299 76 c 1,20,21
 351 66 351 66 381 66 c 2,22,-1
 390 66 l 2,23,24
 433 66 433 66 458.5 85 c 128,-1,25
 484 104 484 104 495 153 c 1,26,-1
 615 148 l 1,27,28
 600 62 600 62 575 0 c 1,29,-1
 84 0 l 1,30,31
 64 135 64 135 64 268 c 128,-1,32
 64 401 64 401 78 500 c 1,33,-1
 614 500 l 1,34,35
 596 392 596 392 582 348 c 1,36,37
 523 345 523 345 474 344 c 1,38,39
 482 367 482 367 482 387 c 0,40,41
 482 435 482 435 410 435 c 0,42,43
 383 435 383 435 350 429 c 1,44,45
 328 334 328 334 316 262 c 1,46,47
 356 299 356 299 415 299 c 1,8,-1
EndSplineSet
EndChar

StartChar: Edotaccent
Encoding: 278 278 215
Width: 671
Flags: W
LayerCount: 2
Fore
SplineSet
415 299 m 1,0,-1
 509 293 l 2,1,2
 523 293 523 293 530 294 c 1,3,-1
 483 206 l 1,4,-1
 474 206 l 2,5,6
 455 206 455 206 420 216.5 c 128,-1,7
 385 227 385 227 370 227 c 0,8,9
 329 227 329 227 305 174 c 1,10,11
 301 125 301 125 299 76 c 1,12,13
 351 66 351 66 381 66 c 2,14,-1
 390 66 l 2,15,16
 433 66 433 66 458.5 85 c 128,-1,17
 484 104 484 104 495 153 c 1,18,-1
 615 148 l 1,19,20
 600 62 600 62 575 0 c 1,21,-1
 84 0 l 1,22,23
 64 135 64 135 64 268 c 128,-1,24
 64 401 64 401 78 500 c 1,25,-1
 614 500 l 1,26,27
 596 392 596 392 582 348 c 1,28,29
 523 345 523 345 474 344 c 1,30,31
 482 367 482 367 482 387 c 0,32,33
 482 435 482 435 410 435 c 0,34,35
 383 435 383 435 350 429 c 1,36,37
 328 334 328 334 316 262 c 1,38,39
 356 299 356 299 415 299 c 1,0,-1
367 576 m 1,40,-1
 327 575 l 2,41,42
 307 575 307 575 269 577 c 1,43,44
 294 636 294 636 299 678 c 1,45,46
 352 673 352 673 401 672 c 1,47,48
 389 618 389 618 367 576 c 1,40,-1
EndSplineSet
EndChar

StartChar: edotaccent
Encoding: 279 279 216
Width: 671
Flags: W
LayerCount: 2
Fore
SplineSet
415 299 m 1,0,-1
 509 293 l 2,1,2
 523 293 523 293 530 294 c 1,3,-1
 483 206 l 1,4,-1
 474 206 l 2,5,6
 455 206 455 206 420 216.5 c 128,-1,7
 385 227 385 227 370 227 c 0,8,9
 329 227 329 227 305 174 c 1,10,11
 301 125 301 125 299 76 c 1,12,13
 351 66 351 66 381 66 c 2,14,-1
 390 66 l 2,15,16
 433 66 433 66 458.5 85 c 128,-1,17
 484 104 484 104 495 153 c 1,18,-1
 615 148 l 1,19,20
 600 62 600 62 575 0 c 1,21,-1
 84 0 l 1,22,23
 64 135 64 135 64 268 c 128,-1,24
 64 401 64 401 78 500 c 1,25,-1
 614 500 l 1,26,27
 596 392 596 392 582 348 c 1,28,29
 523 345 523 345 474 344 c 1,30,31
 482 367 482 367 482 387 c 0,32,33
 482 435 482 435 410 435 c 0,34,35
 383 435 383 435 350 429 c 1,36,37
 328 334 328 334 316 262 c 1,38,39
 356 299 356 299 415 299 c 1,0,-1
367 576 m 1,40,-1
 327 575 l 2,41,42
 307 575 307 575 269 577 c 1,43,44
 294 636 294 636 299 678 c 1,45,46
 352 673 352 673 401 672 c 1,47,48
 389 618 389 618 367 576 c 1,40,-1
EndSplineSet
EndChar

StartChar: Eogonek
Encoding: 280 280 217
Width: 671
Flags: W
LayerCount: 2
Fore
SplineSet
415 299 m 1,0,-1
 509 293 l 2,1,2
 523 293 523 293 530 294 c 1,3,-1
 483 206 l 1,4,-1
 474 206 l 2,5,6
 455 206 455 206 420 216.5 c 128,-1,7
 385 227 385 227 370 227 c 0,8,9
 329 227 329 227 305 174 c 1,10,11
 301 125 301 125 299 76 c 1,12,13
 351 66 351 66 381 66 c 2,14,-1
 390 66 l 2,15,16
 433 66 433 66 458.5 85 c 128,-1,17
 484 104 484 104 495 153 c 1,18,-1
 615 148 l 1,19,20
 600 62 600 62 575 0 c 1,21,-1
 378 0 l 1,22,23
 326 -42 326 -42 326 -96 c 0,24,25
 326 -116 326 -116 335 -126 c 128,-1,26
 344 -136 344 -136 362 -136 c 128,-1,27
 380 -136 380 -136 399 -118 c 1,28,29
 400 -129 400 -129 404 -139 c 1,30,31
 378 -174 378 -174 340.5 -174 c 128,-1,32
 303 -174 303 -174 282 -153 c 128,-1,33
 261 -132 261 -132 261 -106 c 0,34,35
 261 -47 261 -47 330 0 c 1,36,-1
 84 0 l 1,37,38
 64 135 64 135 64 268 c 128,-1,39
 64 401 64 401 78 500 c 1,40,-1
 614 500 l 1,41,42
 596 392 596 392 582 348 c 1,43,44
 523 345 523 345 474 344 c 1,45,46
 482 367 482 367 482 387 c 0,47,48
 482 435 482 435 410 435 c 0,49,50
 383 435 383 435 350 429 c 1,51,52
 328 334 328 334 316 262 c 1,53,54
 356 299 356 299 415 299 c 1,0,-1
EndSplineSet
EndChar

StartChar: eogonek
Encoding: 281 281 218
Width: 671
Flags: W
LayerCount: 2
Fore
SplineSet
415 299 m 1,0,-1
 509 293 l 2,1,2
 523 293 523 293 530 294 c 1,3,-1
 483 206 l 1,4,-1
 474 206 l 2,5,6
 455 206 455 206 420 216.5 c 128,-1,7
 385 227 385 227 370 227 c 0,8,9
 329 227 329 227 305 174 c 1,10,11
 301 125 301 125 299 76 c 1,12,13
 351 66 351 66 381 66 c 2,14,-1
 390 66 l 2,15,16
 433 66 433 66 458.5 85 c 128,-1,17
 484 104 484 104 495 153 c 1,18,-1
 615 148 l 1,19,20
 600 62 600 62 575 0 c 1,21,-1
 378 0 l 1,22,23
 326 -42 326 -42 326 -96 c 0,24,25
 326 -116 326 -116 335 -126 c 128,-1,26
 344 -136 344 -136 362 -136 c 128,-1,27
 380 -136 380 -136 399 -118 c 1,28,29
 400 -129 400 -129 404 -139 c 1,30,31
 378 -174 378 -174 340.5 -174 c 128,-1,32
 303 -174 303 -174 282 -153 c 128,-1,33
 261 -132 261 -132 261 -106 c 0,34,35
 261 -47 261 -47 330 0 c 1,36,-1
 84 0 l 1,37,38
 64 135 64 135 64 268 c 128,-1,39
 64 401 64 401 78 500 c 1,40,-1
 614 500 l 1,41,42
 596 392 596 392 582 348 c 1,43,44
 523 345 523 345 474 344 c 1,45,46
 482 367 482 367 482 387 c 0,47,48
 482 435 482 435 410 435 c 0,49,50
 383 435 383 435 350 429 c 1,51,52
 328 334 328 334 316 262 c 1,53,54
 356 299 356 299 415 299 c 1,0,-1
EndSplineSet
EndChar

StartChar: Ecaron
Encoding: 282 282 219
Width: 671
Flags: W
LayerCount: 2
Fore
SplineSet
415 299 m 1,0,-1
 509 293 l 2,1,2
 523 293 523 293 530 294 c 1,3,-1
 483 206 l 1,4,-1
 474 206 l 2,5,6
 455 206 455 206 420 216.5 c 128,-1,7
 385 227 385 227 370 227 c 0,8,9
 329 227 329 227 305 174 c 1,10,11
 301 125 301 125 299 76 c 1,12,13
 351 66 351 66 381 66 c 2,14,-1
 390 66 l 2,15,16
 433 66 433 66 458.5 85 c 128,-1,17
 484 104 484 104 495 153 c 1,18,-1
 615 148 l 1,19,20
 600 62 600 62 575 0 c 1,21,-1
 84 0 l 1,22,23
 64 135 64 135 64 268 c 128,-1,24
 64 401 64 401 78 500 c 1,25,-1
 614 500 l 1,26,27
 596 392 596 392 582 348 c 1,28,29
 523 345 523 345 474 344 c 1,30,31
 482 367 482 367 482 387 c 0,32,33
 482 435 482 435 410 435 c 0,34,35
 383 435 383 435 350 429 c 1,36,37
 328 334 328 334 316 262 c 1,38,39
 356 299 356 299 415 299 c 1,0,-1
311 554 m 1,40,-1
 221 669 l 1,41,-1
 253 669 l 1,42,-1
 335 607 l 1,43,-1
 418 669 l 1,44,-1
 450 669 l 1,45,-1
 360 554 l 1,46,-1
 311 554 l 1,40,-1
EndSplineSet
EndChar

StartChar: ecaron
Encoding: 283 283 220
Width: 671
Flags: W
LayerCount: 2
Fore
SplineSet
415 299 m 1,0,-1
 509 293 l 2,1,2
 523 293 523 293 530 294 c 1,3,-1
 483 206 l 1,4,-1
 474 206 l 2,5,6
 455 206 455 206 420 216.5 c 128,-1,7
 385 227 385 227 370 227 c 0,8,9
 329 227 329 227 305 174 c 1,10,11
 301 125 301 125 299 76 c 1,12,13
 351 66 351 66 381 66 c 2,14,-1
 390 66 l 2,15,16
 433 66 433 66 458.5 85 c 128,-1,17
 484 104 484 104 495 153 c 1,18,-1
 615 148 l 1,19,20
 600 62 600 62 575 0 c 1,21,-1
 84 0 l 1,22,23
 64 135 64 135 64 268 c 128,-1,24
 64 401 64 401 78 500 c 1,25,-1
 614 500 l 1,26,27
 596 392 596 392 582 348 c 1,28,29
 523 345 523 345 474 344 c 1,30,31
 482 367 482 367 482 387 c 0,32,33
 482 435 482 435 410 435 c 0,34,35
 383 435 383 435 350 429 c 1,36,37
 328 334 328 334 316 262 c 1,38,39
 356 299 356 299 415 299 c 1,0,-1
311 554 m 1,40,-1
 221 669 l 1,41,-1
 253 669 l 1,42,-1
 335 607 l 1,43,-1
 418 669 l 1,44,-1
 450 669 l 1,45,-1
 360 554 l 1,46,-1
 311 554 l 1,40,-1
EndSplineSet
EndChar

StartChar: Gcircumflex
Encoding: 284 284 221
Width: 675
Flags: W
LayerCount: 2
Fore
SplineSet
388 523 m 0,0,1
 480 523 480 523 593 498 c 1,2,3
 576 430 576 430 554 378 c 1,4,5
 494 374 494 374 423 372 c 1,6,7
 434 406 434 406 439 439 c 1,8,9
 408 445 408 445 374 445 c 128,-1,10
 340 445 340 445 294 434 c 1,11,12
 278 366 278 366 278 311 c 0,13,14
 278 228 278 228 315.5 155.5 c 128,-1,15
 353 83 353 83 416 49 c 1,16,17
 416 56 416 56 416.5 70.5 c 128,-1,18
 417 85 417 85 417 123.5 c 128,-1,19
 417 162 417 162 405 260 c 1,20,-1
 621 260 l 1,21,22
 621 118 621 118 607 0 c 1,23,24
 452 -22 452 -22 286 -22 c 2,25,-1
 222 -22 l 1,26,27
 131 17 131 17 80 92.5 c 128,-1,28
 29 168 29 168 29 253 c 0,29,30
 29 366 29 366 120.5 444.5 c 128,-1,31
 212 523 212 523 388 523 c 0,0,1
223 558 m 1,32,-1
 313 673 l 1,33,-1
 362 673 l 1,34,-1
 452 558 l 1,35,-1
 420 558 l 1,36,-1
 337 620 l 1,37,-1
 255 558 l 1,38,-1
 223 558 l 1,32,-1
EndSplineSet
EndChar

StartChar: gcircumflex
Encoding: 285 285 222
Width: 675
Flags: W
LayerCount: 2
Fore
SplineSet
388 523 m 0,0,1
 480 523 480 523 593 498 c 1,2,3
 576 430 576 430 554 378 c 1,4,5
 494 374 494 374 423 372 c 1,6,7
 434 406 434 406 439 439 c 1,8,9
 408 445 408 445 374 445 c 128,-1,10
 340 445 340 445 294 434 c 1,11,12
 278 366 278 366 278 311 c 0,13,14
 278 228 278 228 315.5 155.5 c 128,-1,15
 353 83 353 83 416 49 c 1,16,17
 416 56 416 56 416.5 70.5 c 128,-1,18
 417 85 417 85 417 123.5 c 128,-1,19
 417 162 417 162 405 260 c 1,20,-1
 621 260 l 1,21,22
 621 118 621 118 607 0 c 1,23,24
 452 -22 452 -22 286 -22 c 2,25,-1
 222 -22 l 1,26,27
 131 17 131 17 80 92.5 c 128,-1,28
 29 168 29 168 29 253 c 0,29,30
 29 366 29 366 120.5 444.5 c 128,-1,31
 212 523 212 523 388 523 c 0,0,1
223 558 m 1,32,-1
 313 673 l 1,33,-1
 362 673 l 1,34,-1
 452 558 l 1,35,-1
 420 558 l 1,36,-1
 337 620 l 1,37,-1
 255 558 l 1,38,-1
 223 558 l 1,32,-1
EndSplineSet
EndChar

StartChar: Gbreve
Encoding: 286 286 223
Width: 675
Flags: W
LayerCount: 2
Fore
SplineSet
416 49 m 1,0,-1
 417 91 l 1,1,2
 417 162 417 162 405 260 c 1,3,-1
 621 260 l 1,4,5
 621 118 621 118 607 0 c 1,6,7
 452 -22 452 -22 286 -22 c 2,8,-1
 222 -22 l 1,9,10
 131 17 131 17 80 92.5 c 128,-1,11
 29 168 29 168 29 253 c 0,12,13
 29 366 29 366 120.5 444.5 c 128,-1,14
 212 523 212 523 388 523 c 0,15,16
 480 523 480 523 593 498 c 1,17,18
 576 430 576 430 554 378 c 1,19,20
 493 374 493 374 423 372 c 1,21,22
 434 406 434 406 439 439 c 1,23,24
 407 445 407 445 373.5 445 c 128,-1,25
 340 445 340 445 294 434 c 1,26,27
 278 366 278 366 278 311 c 0,28,29
 278 228 278 228 315.5 155.5 c 128,-1,30
 353 83 353 83 416 49 c 1,0,-1
296 615 m 1,31,32
 330 593 330 593 378 593 c 128,-1,33
 426 593 426 593 463 626 c 1,34,35
 465 626 465 626 454 606.5 c 128,-1,36
 443 587 443 587 417 566 c 0,37,38
 384 538 384 538 329.5 538 c 128,-1,39
 275 538 275 538 225 569 c 1,40,-1
 211 577 l 1,41,42
 216 607 216 607 229.5 643.5 c 128,-1,43
 243 680 243 680 244 680 c 2,44,-1
 296 615 l 1,31,32
EndSplineSet
EndChar

StartChar: gbreve
Encoding: 287 287 224
Width: 675
Flags: W
LayerCount: 2
Fore
SplineSet
416 49 m 1,0,-1
 417 91 l 1,1,2
 417 162 417 162 405 260 c 1,3,-1
 621 260 l 1,4,5
 621 118 621 118 607 0 c 1,6,7
 452 -22 452 -22 286 -22 c 2,8,-1
 222 -22 l 1,9,10
 131 17 131 17 80 92.5 c 128,-1,11
 29 168 29 168 29 253 c 0,12,13
 29 366 29 366 120.5 444.5 c 128,-1,14
 212 523 212 523 388 523 c 0,15,16
 480 523 480 523 593 498 c 1,17,18
 576 430 576 430 554 378 c 1,19,20
 493 374 493 374 423 372 c 1,21,22
 434 406 434 406 439 439 c 1,23,24
 407 445 407 445 373.5 445 c 128,-1,25
 340 445 340 445 294 434 c 1,26,27
 278 366 278 366 278 311 c 0,28,29
 278 228 278 228 315.5 155.5 c 128,-1,30
 353 83 353 83 416 49 c 1,0,-1
296 615 m 1,31,32
 330 593 330 593 378 593 c 128,-1,33
 426 593 426 593 463 626 c 1,34,35
 465 626 465 626 454 606.5 c 128,-1,36
 443 587 443 587 417 566 c 0,37,38
 384 538 384 538 329.5 538 c 128,-1,39
 275 538 275 538 225 569 c 1,40,-1
 211 577 l 1,41,42
 216 607 216 607 229.5 643.5 c 128,-1,43
 243 680 243 680 244 680 c 2,44,-1
 296 615 l 1,31,32
EndSplineSet
EndChar

StartChar: Gdotaccent
Encoding: 288 288 225
Width: 675
Flags: W
LayerCount: 2
Fore
SplineSet
416 49 m 1,0,-1
 417 91 l 1,1,2
 417 162 417 162 405 260 c 1,3,-1
 621 260 l 1,4,5
 621 118 621 118 607 0 c 1,6,7
 452 -22 452 -22 286 -22 c 2,8,-1
 222 -22 l 1,9,10
 131 17 131 17 80 92.5 c 128,-1,11
 29 168 29 168 29 253 c 0,12,13
 29 366 29 366 120.5 444.5 c 128,-1,14
 212 523 212 523 388 523 c 0,15,16
 480 523 480 523 593 498 c 1,17,18
 576 430 576 430 554 378 c 1,19,20
 493 374 493 374 423 372 c 1,21,22
 434 406 434 406 439 439 c 1,23,24
 407 445 407 445 373.5 445 c 128,-1,25
 340 445 340 445 294 434 c 1,26,27
 278 366 278 366 278 311 c 0,28,29
 278 228 278 228 315.5 155.5 c 128,-1,30
 353 83 353 83 416 49 c 1,0,-1
369 576 m 1,31,-1
 329 575 l 2,32,33
 309 575 309 575 271 577 c 1,34,35
 296 636 296 636 301 678 c 1,36,37
 354 673 354 673 403 672 c 1,38,39
 391 618 391 618 369 576 c 1,31,-1
EndSplineSet
EndChar

StartChar: gdotaccent
Encoding: 289 289 226
Width: 675
Flags: W
LayerCount: 2
Fore
SplineSet
416 49 m 1,0,-1
 417 91 l 1,1,2
 417 162 417 162 405 260 c 1,3,-1
 621 260 l 1,4,5
 621 118 621 118 607 0 c 1,6,7
 452 -22 452 -22 286 -22 c 2,8,-1
 222 -22 l 1,9,10
 131 17 131 17 80 92.5 c 128,-1,11
 29 168 29 168 29 253 c 0,12,13
 29 366 29 366 120.5 444.5 c 128,-1,14
 212 523 212 523 388 523 c 0,15,16
 480 523 480 523 593 498 c 1,17,18
 576 430 576 430 554 378 c 1,19,20
 493 374 493 374 423 372 c 1,21,22
 434 406 434 406 439 439 c 1,23,24
 407 445 407 445 373.5 445 c 128,-1,25
 340 445 340 445 294 434 c 1,26,27
 278 366 278 366 278 311 c 0,28,29
 278 228 278 228 315.5 155.5 c 128,-1,30
 353 83 353 83 416 49 c 1,0,-1
369 576 m 1,31,-1
 329 575 l 2,32,33
 309 575 309 575 271 577 c 1,34,35
 296 636 296 636 301 678 c 1,36,37
 354 673 354 673 403 672 c 1,38,39
 391 618 391 618 369 576 c 1,31,-1
EndSplineSet
EndChar

StartChar: uni0122
Encoding: 290 290 227
Width: 666
Flags: W
LayerCount: 2
Fore
SplineSet
129 3 m 1,0,1
 40 117 40 117 40 236.5 c 128,-1,2
 40 356 40 356 140 439.5 c 128,-1,3
 240 523 240 523 396 523 c 0,4,5
 482 523 482 523 560 499 c 1,6,7
 633 407 633 407 633 302 c 0,8,9
 633 159 633 159 508 59 c 1,10,11
 519 61 519 61 548 69 c 128,-1,12
 577 77 577 77 595.5 77 c 128,-1,13
 614 77 614 77 635 70 c 1,14,-1
 707 -23 l 1,15,16
 687 1 687 1 648.5 1 c 128,-1,17
 610 1 610 1 546 -10 c 128,-1,18
 482 -21 482 -21 459 -22 c 1,19,20
 439 -13 439 -13 419 8 c 1,21,22
 346 -22 346 -22 274 -22 c 128,-1,23
 202 -22 202 -22 129 3 c 1,0,1
281 435 m 1,24,25
 245 373 245 373 245 293.5 c 128,-1,26
 245 214 245 214 281 145.5 c 128,-1,27
 317 77 317 77 379 47 c 1,28,29
 426 107 426 107 426 186 c 128,-1,30
 426 265 426 265 387.5 333 c 128,-1,31
 349 401 349 401 281 435 c 1,24,25
341 -151 m 1,32,33
 278 -151 278 -151 245 -145 c 1,34,35
 265 -100 265 -100 267 -43 c 1,36,37
 329 -54 329 -54 435 -54 c 1,38,39
 417 -153 417 -153 365 -233 c 1,40,41
 340 -230 340 -230 318 -224 c 1,42,43
 341 -185 341 -185 341 -151 c 1,32,33
EndSplineSet
EndChar

StartChar: uni0123
Encoding: 291 291 228
Width: 666
Flags: W
LayerCount: 2
Fore
SplineSet
129 3 m 1,0,1
 40 117 40 117 40 236.5 c 128,-1,2
 40 356 40 356 140 439.5 c 128,-1,3
 240 523 240 523 396 523 c 0,4,5
 482 523 482 523 560 499 c 1,6,7
 633 407 633 407 633 302 c 0,8,9
 633 159 633 159 508 59 c 1,10,11
 519 61 519 61 548 69 c 128,-1,12
 577 77 577 77 595.5 77 c 128,-1,13
 614 77 614 77 635 70 c 1,14,-1
 707 -23 l 1,15,16
 687 1 687 1 648.5 1 c 128,-1,17
 610 1 610 1 546 -10 c 128,-1,18
 482 -21 482 -21 459 -22 c 1,19,20
 439 -13 439 -13 419 8 c 1,21,22
 346 -22 346 -22 274 -22 c 128,-1,23
 202 -22 202 -22 129 3 c 1,0,1
281 435 m 1,24,25
 245 373 245 373 245 293.5 c 128,-1,26
 245 214 245 214 281 145.5 c 128,-1,27
 317 77 317 77 379 47 c 1,28,29
 426 107 426 107 426 186 c 128,-1,30
 426 265 426 265 387.5 333 c 128,-1,31
 349 401 349 401 281 435 c 1,24,25
341 -151 m 1,32,33
 278 -151 278 -151 245 -145 c 1,34,35
 265 -100 265 -100 267 -43 c 1,36,37
 329 -54 329 -54 435 -54 c 1,38,39
 417 -153 417 -153 365 -233 c 1,40,41
 340 -230 340 -230 318 -224 c 1,42,43
 341 -185 341 -185 341 -151 c 1,32,33
EndSplineSet
EndChar

StartChar: Hcircumflex
Encoding: 292 292 229
Width: 740
Flags: W
LayerCount: 2
Fore
SplineSet
63 500 m 1,0,1
 63 500 63 500 327 500 c 1,2,3
 329 459 329 459 329 378 c 1,4,5
 387 360 387 360 444 329 c 1,6,7
 444 422 444 422 437 500 c 1,8,-1
 697 500 l 1,9,10
 699 444 699 444 699 417 c 0,11,12
 699 221 699 221 661 0 c 1,13,-1
 422 0 l 1,14,15
 438 118 438 118 443 254 c 1,16,17
 391 286 391 286 327 293 c 1,18,19
 321 146 321 146 295 0 c 1,20,-1
 68 0 l 1,21,22
 81 98 81 98 81 234.5 c 128,-1,23
 81 371 81 371 63 500 c 1,0,1
255 558 m 1,24,-1
 345 673 l 1,25,-1
 394 673 l 1,26,-1
 484 558 l 1,27,-1
 452 558 l 1,28,-1
 369 620 l 1,29,-1
 287 558 l 1,30,-1
 255 558 l 1,24,-1
EndSplineSet
EndChar

StartChar: hcircumflex
Encoding: 293 293 230
Width: 740
Flags: W
LayerCount: 2
Fore
SplineSet
63 500 m 1,0,1
 63 500 63 500 327 500 c 1,2,3
 329 459 329 459 329 378 c 1,4,5
 387 360 387 360 444 329 c 1,6,7
 444 422 444 422 437 500 c 1,8,-1
 697 500 l 1,9,10
 699 444 699 444 699 417 c 0,11,12
 699 221 699 221 661 0 c 1,13,-1
 422 0 l 1,14,15
 438 118 438 118 443 254 c 1,16,17
 391 286 391 286 327 293 c 1,18,19
 321 146 321 146 295 0 c 1,20,-1
 68 0 l 1,21,22
 81 98 81 98 81 234.5 c 128,-1,23
 81 371 81 371 63 500 c 1,0,1
255 558 m 1,24,-1
 345 673 l 1,25,-1
 394 673 l 1,26,-1
 484 558 l 1,27,-1
 452 558 l 1,28,-1
 369 620 l 1,29,-1
 287 558 l 1,30,-1
 255 558 l 1,24,-1
EndSplineSet
EndChar

StartChar: Itilde
Encoding: 296 296 231
Width: 396
Flags: W
LayerCount: 2
Fore
SplineSet
341 500 m 1,0,-1
 341 473 l 2,1,2
 341 209 341 209 308 0 c 1,3,-1
 68 0 l 1,4,5
 87 92 87 92 87 212.5 c 128,-1,6
 87 333 87 333 71 500 c 1,7,-1
 341 500 l 1,0,-1
283.5 586.5 m 128,-1,9
 263 575 263 575 233.5 575 c 128,-1,10
 204 575 204 575 170 595.5 c 128,-1,11
 136 616 136 616 120 616 c 0,12,13
 83 616 83 616 54 583 c 1,14,-1
 67 623 l 1,15,16
 79 637 79 637 97.5 648.5 c 128,-1,17
 116 660 116 660 137.5 660 c 128,-1,18
 159 660 159 660 189.5 649 c 128,-1,19
 220 638 220 638 242 638 c 0,20,21
 296 638 296 638 341 685 c 1,22,23
 337 677 337 677 327 648 c 128,-1,24
 317 619 317 619 310.5 608.5 c 128,-1,8
 304 598 304 598 283.5 586.5 c 128,-1,9
EndSplineSet
EndChar

StartChar: itilde
Encoding: 297 297 232
Width: 396
Flags: W
LayerCount: 2
Fore
SplineSet
341 500 m 1,0,-1
 341 473 l 2,1,2
 341 209 341 209 308 0 c 1,3,-1
 68 0 l 1,4,5
 87 92 87 92 87 212.5 c 128,-1,6
 87 333 87 333 71 500 c 1,7,-1
 341 500 l 1,0,-1
283.5 586.5 m 128,-1,9
 263 575 263 575 233.5 575 c 128,-1,10
 204 575 204 575 170 595.5 c 128,-1,11
 136 616 136 616 120 616 c 0,12,13
 83 616 83 616 54 583 c 1,14,-1
 67 623 l 1,15,16
 79 637 79 637 97.5 648.5 c 128,-1,17
 116 660 116 660 137.5 660 c 128,-1,18
 159 660 159 660 189.5 649 c 128,-1,19
 220 638 220 638 242 638 c 0,20,21
 296 638 296 638 341 685 c 1,22,23
 337 677 337 677 327 648 c 128,-1,24
 317 619 317 619 310.5 608.5 c 128,-1,8
 304 598 304 598 283.5 586.5 c 128,-1,9
EndSplineSet
EndChar

StartChar: Imacron
Encoding: 298 298 233
Width: 396
Flags: W
LayerCount: 2
Fore
SplineSet
7 655 m 1,0,1
 117 650 117 650 201 650 c 128,-1,2
 285 650 285 650 405 655 c 1,3,-1
 405 581 l 1,4,5
 279 588 279 588 202.5 588 c 128,-1,6
 126 588 126 588 7 581 c 1,7,-1
 7 655 l 1,0,1
341 500 m 1,8,-1
 341 473 l 2,9,10
 341 209 341 209 308 0 c 1,11,-1
 68 0 l 1,12,13
 87 92 87 92 87 212.5 c 128,-1,14
 87 333 87 333 71 500 c 1,15,-1
 341 500 l 1,8,-1
EndSplineSet
EndChar

StartChar: imacron
Encoding: 299 299 234
Width: 396
Flags: W
LayerCount: 2
Fore
SplineSet
7 655 m 1,0,1
 117 650 117 650 201 650 c 128,-1,2
 285 650 285 650 405 655 c 1,3,-1
 405 581 l 1,4,5
 279 588 279 588 202.5 588 c 128,-1,6
 126 588 126 588 7 581 c 1,7,-1
 7 655 l 1,0,1
341 500 m 1,8,-1
 341 473 l 2,9,10
 341 209 341 209 308 0 c 1,11,-1
 68 0 l 1,12,13
 87 92 87 92 87 212.5 c 128,-1,14
 87 333 87 333 71 500 c 1,15,-1
 341 500 l 1,8,-1
EndSplineSet
EndChar

StartChar: Iogonek
Encoding: 302 302 235
Width: 396
Flags: W
LayerCount: 2
Fore
SplineSet
179 -96 m 0,0,1
 179 -136 179 -136 215 -136 c 0,2,3
 233 -136 233 -136 252 -118 c 1,4,5
 254 -128 254 -128 257 -139 c 1,6,7
 231 -174 231 -174 193.5 -174 c 128,-1,8
 156 -174 156 -174 135 -153 c 128,-1,9
 114 -132 114 -132 114 -106 c 0,10,11
 114 -47 114 -47 183 0 c 1,12,-1
 68 0 l 1,13,14
 87 92 87 92 87 212.5 c 128,-1,15
 87 333 87 333 71 500 c 1,16,-1
 341 500 l 1,17,-1
 341 473 l 2,18,19
 341 209 341 209 308 0 c 1,20,-1
 231 0 l 1,21,22
 179 -42 179 -42 179 -96 c 0,0,1
EndSplineSet
EndChar

StartChar: iogonek
Encoding: 303 303 236
Width: 396
Flags: W
LayerCount: 2
Fore
SplineSet
179 -96 m 0,0,1
 179 -136 179 -136 215 -136 c 0,2,3
 233 -136 233 -136 252 -118 c 1,4,5
 254 -128 254 -128 257 -139 c 1,6,7
 231 -174 231 -174 193.5 -174 c 128,-1,8
 156 -174 156 -174 135 -153 c 128,-1,9
 114 -132 114 -132 114 -106 c 0,10,11
 114 -47 114 -47 183 0 c 1,12,-1
 68 0 l 1,13,14
 87 92 87 92 87 212.5 c 128,-1,15
 87 333 87 333 71 500 c 1,16,-1
 341 500 l 1,17,-1
 341 473 l 2,18,19
 341 209 341 209 308 0 c 1,20,-1
 231 0 l 1,21,22
 179 -42 179 -42 179 -96 c 0,0,1
EndSplineSet
EndChar

StartChar: Idotaccent
Encoding: 304 304 237
Width: 396
Flags: W
LayerCount: 2
Fore
SplineSet
332 398 m 0,0,1
 332 189 332 189 298 0 c 1,2,-1
 71 0 l 1,3,4
 85 107 85 107 85 235.5 c 128,-1,5
 85 364 85 364 66 500 c 1,6,-1
 330 500 l 1,7,8
 332 432 332 432 332 398 c 0,0,1
165 678 m 1,9,10
 218 673 218 673 269 672 c 1,11,12
 257 619 257 619 234 575 c 1,13,14
 167 575 167 575 134 576 c 1,15,16
 159 636 159 636 165 678 c 1,9,10
EndSplineSet
EndChar

StartChar: dotlessi
Encoding: 305 305 238
Width: 396
Flags: W
LayerCount: 2
Fore
SplineSet
341 500 m 1,0,-1
 341 473 l 2,1,2
 341 210 341 210 308 0 c 1,3,-1
 68 0 l 1,4,5
 87 86 87 86 87 208.5 c 128,-1,6
 87 331 87 331 71 500 c 1,7,-1
 341 500 l 1,0,-1
EndSplineSet
EndChar

StartChar: Jcircumflex
Encoding: 308 308 239
Width: 531
Flags: W
LayerCount: 2
Fore
SplineSet
192 -45 m 1,0,1
 199 33 199 33 199 170.5 c 128,-1,2
 199 308 199 308 176 500 c 1,3,-1
 446 500 l 1,4,5
 448 462 448 462 448 383 c 0,6,7
 448 171 448 171 420 0 c 1,8,9
 381 -37 381 -37 348 -54.5 c 128,-1,10
 315 -72 315 -72 303 -78.5 c 128,-1,11
 291 -85 291 -85 260 -98.5 c 128,-1,12
 229 -112 229 -112 223 -115 c 1,13,14
 95 -105 95 -105 5 -70 c 1,15,16
 7 -4 7 -4 11 52 c 1,17,18
 104 -15 104 -15 192 -45 c 1,0,1
201 558 m 1,19,-1
 291 673 l 1,20,-1
 340 673 l 1,21,-1
 430 558 l 1,22,-1
 398 558 l 1,23,-1
 315 620 l 1,24,-1
 233 558 l 1,25,-1
 201 558 l 1,19,-1
EndSplineSet
EndChar

StartChar: jcircumflex
Encoding: 309 309 240
Width: 531
Flags: W
LayerCount: 2
Fore
SplineSet
192 -45 m 1,0,1
 199 33 199 33 199 170.5 c 128,-1,2
 199 308 199 308 176 500 c 1,3,-1
 446 500 l 1,4,5
 448 462 448 462 448 383 c 0,6,7
 448 171 448 171 420 0 c 1,8,9
 381 -37 381 -37 348 -54.5 c 128,-1,10
 315 -72 315 -72 303 -78.5 c 128,-1,11
 291 -85 291 -85 260 -98.5 c 128,-1,12
 229 -112 229 -112 223 -115 c 1,13,14
 95 -105 95 -105 5 -70 c 1,15,16
 7 -4 7 -4 11 52 c 1,17,18
 104 -15 104 -15 192 -45 c 1,0,1
201 558 m 1,19,-1
 291 673 l 1,20,-1
 340 673 l 1,21,-1
 430 558 l 1,22,-1
 398 558 l 1,23,-1
 315 620 l 1,24,-1
 233 558 l 1,25,-1
 201 558 l 1,19,-1
EndSplineSet
EndChar

StartChar: uni0136
Encoding: 310 310 241
Width: 707
Flags: W
LayerCount: 2
Fore
SplineSet
570 507 m 2,0,-1
 603 507 l 2,1,2
 667 507 667 507 698 522 c 1,3,4
 654 457 654 457 613 409 c 1,5,-1
 597 409 l 2,6,7
 546 409 546 409 498 425 c 1,8,9
 430 369 430 369 389 276 c 1,10,11
 495 249 495 249 625 244 c 1,12,13
 655 168 655 168 666 0 c 1,14,-1
 407 0 l 1,15,16
 390 74 390 74 355.5 136.5 c 128,-1,17
 321 199 321 199 284 222 c 1,18,19
 277 140 277 140 277 90 c 128,-1,20
 277 40 277 40 280 0 c 1,21,-1
 60 0 l 1,22,23
 41 147 41 147 41 248.5 c 128,-1,24
 41 350 41 350 56 500 c 1,25,-1
 334 500 l 1,26,27
 304 376 304 376 293 292 c 1,28,29
 338 366 338 366 387.5 416.5 c 128,-1,30
 437 467 437 467 505 502 c 1,31,32
 531 507 531 507 570 507 c 2,0,-1
272 -33 m 1,33,-1
 437 -33 l 1,34,35
 416 -144 416 -144 368 -215 c 1,36,37
 338 -211 338 -211 322 -207 c 1,38,39
 343 -168 343 -168 345 -135 c 1,40,41
 283 -135 283 -135 250 -129 c 1,42,43
 270 -84 270 -84 272 -33 c 1,33,-1
EndSplineSet
EndChar

StartChar: uni0137
Encoding: 311 311 242
Width: 707
Flags: W
LayerCount: 2
Fore
SplineSet
570 507 m 2,0,-1
 603 507 l 2,1,2
 669 507 669 507 698 522 c 1,3,4
 650 450 650 450 613 409 c 1,5,-1
 597 409 l 2,6,7
 545 409 545 409 498 425 c 1,8,9
 429 367 429 367 389 276 c 1,10,11
 495 249 495 249 625 244 c 1,12,13
 655 175 655 175 666 0 c 1,14,-1
 407 0 l 1,15,16
 391 73 391 73 356.5 135.5 c 128,-1,17
 322 198 322 198 284 222 c 1,18,19
 277 140 277 140 277 90 c 128,-1,20
 277 40 277 40 280 0 c 1,21,-1
 60 0 l 1,22,23
 41 147 41 147 41 248.5 c 128,-1,24
 41 350 41 350 56 500 c 1,25,-1
 334 500 l 1,26,27
 303 370 303 370 293 292 c 1,28,29
 385 442 385 442 505 502 c 1,30,31
 531 507 531 507 570 507 c 2,0,-1
272 -33 m 1,32,-1
 437 -33 l 1,33,34
 417 -144 417 -144 368 -215 c 1,35,36
 364 -214 364 -214 347.5 -211.5 c 128,-1,37
 331 -209 331 -209 322 -207 c 1,38,39
 343 -166 343 -166 345 -135 c 1,40,41
 284 -135 284 -135 250 -129 c 1,42,43
 270 -84 270 -84 272 -33 c 1,32,-1
EndSplineSet
EndChar

StartChar: kgreenlandic
Encoding: 312 312 243
Width: 707
Flags: W
LayerCount: 2
Fore
SplineSet
570 507 m 2,0,-1
 603 507 l 2,1,2
 667 507 667 507 698 522 c 1,3,4
 654 457 654 457 613 409 c 1,5,-1
 597 409 l 2,6,7
 546 409 546 409 498 425 c 1,8,9
 430 369 430 369 389 276 c 1,10,11
 495 249 495 249 625 244 c 1,12,13
 655 168 655 168 666 0 c 1,14,-1
 407 0 l 1,15,16
 390 74 390 74 355.5 136.5 c 128,-1,17
 321 199 321 199 284 222 c 1,18,19
 277 140 277 140 277 90 c 128,-1,20
 277 40 277 40 280 0 c 1,21,-1
 60 0 l 1,22,23
 41 147 41 147 41 248.5 c 128,-1,24
 41 350 41 350 56 500 c 1,25,-1
 334 500 l 1,26,27
 304 376 304 376 293 292 c 1,28,29
 338 366 338 366 387.5 416.5 c 128,-1,30
 437 467 437 467 505 502 c 1,31,32
 531 507 531 507 570 507 c 2,0,-1
EndSplineSet
EndChar

StartChar: Lacute
Encoding: 313 313 244
Width: 602
Flags: W
LayerCount: 2
Fore
SplineSet
364 66 m 128,-1,1
 407 66 407 66 432.5 85.5 c 128,-1,2
 458 105 458 105 470 153 c 1,3,-1
 590 149 l 1,4,5
 575 59 575 59 550 0 c 1,6,-1
 59 0 l 1,7,8
 40 128 40 128 40 265 c 128,-1,9
 40 402 40 402 54 500 c 1,10,-1
 342 500 l 1,11,12
 276 247 276 247 274 77 c 1,13,0
 321 66 321 66 364 66 c 128,-1,1
248 680 m 1,14,-1
 359 666 l 1,15,16
 345 639 345 639 319.5 616 c 128,-1,17
 294 593 294 593 271 580 c 128,-1,18
 248 567 248 567 211 550 c 1,19,-1
 145 550 l 1,20,21
 217 597 217 597 248 680 c 1,14,-1
EndSplineSet
EndChar

StartChar: lacute
Encoding: 314 314 245
Width: 602
Flags: W
LayerCount: 2
Fore
SplineSet
364 66 m 128,-1,1
 407 66 407 66 432.5 85.5 c 128,-1,2
 458 105 458 105 470 153 c 1,3,-1
 590 149 l 1,4,5
 575 59 575 59 550 0 c 1,6,-1
 59 0 l 1,7,8
 40 128 40 128 40 265 c 128,-1,9
 40 402 40 402 54 500 c 1,10,-1
 342 500 l 1,11,12
 276 247 276 247 274 77 c 1,13,0
 321 66 321 66 364 66 c 128,-1,1
248 680 m 1,14,-1
 359 666 l 1,15,16
 345 639 345 639 319.5 616 c 128,-1,17
 294 593 294 593 271 580 c 128,-1,18
 248 567 248 567 211 550 c 1,19,-1
 145 550 l 1,20,21
 217 597 217 597 248 680 c 1,14,-1
EndSplineSet
EndChar

StartChar: uni013B
Encoding: 315 315 246
Width: 602
Flags: W
LayerCount: 2
Fore
SplineSet
364 66 m 128,-1,1
 407 66 407 66 432.5 85.5 c 128,-1,2
 458 105 458 105 470 153 c 1,3,-1
 590 149 l 1,4,5
 575 59 575 59 550 0 c 1,6,-1
 59 0 l 1,7,8
 40 128 40 128 40 265 c 128,-1,9
 40 402 40 402 54 500 c 1,10,-1
 342 500 l 1,11,12
 276 247 276 247 274 77 c 1,13,0
 321 66 321 66 364 66 c 128,-1,1
233 -33 m 1,14,-1
 398 -33 l 1,15,16
 377 -144 377 -144 329 -215 c 1,17,18
 299 -211 299 -211 283 -207 c 1,19,20
 304 -168 304 -168 306 -135 c 1,21,22
 244 -135 244 -135 211 -129 c 1,23,24
 231 -84 231 -84 233 -33 c 1,14,-1
EndSplineSet
EndChar

StartChar: uni013C
Encoding: 316 316 247
Width: 602
Flags: W
LayerCount: 2
Fore
SplineSet
364 66 m 128,-1,1
 407 66 407 66 432.5 85.5 c 128,-1,2
 458 105 458 105 470 153 c 1,3,-1
 590 149 l 1,4,5
 575 59 575 59 550 0 c 1,6,-1
 59 0 l 1,7,8
 40 128 40 128 40 265 c 128,-1,9
 40 402 40 402 54 500 c 1,10,-1
 342 500 l 1,11,12
 276 247 276 247 274 77 c 1,13,0
 321 66 321 66 364 66 c 128,-1,1
233 -33 m 1,14,-1
 398 -33 l 1,15,16
 377 -144 377 -144 329 -215 c 1,17,18
 299 -211 299 -211 283 -207 c 1,19,20
 304 -168 304 -168 306 -135 c 1,21,22
 244 -135 244 -135 211 -129 c 1,23,24
 231 -84 231 -84 233 -33 c 1,14,-1
EndSplineSet
EndChar

StartChar: Lcaron
Encoding: 317 317 248
Width: 602
Flags: W
LayerCount: 2
Fore
SplineSet
186 554 m 1,0,-1
 96 669 l 1,1,-1
 128 669 l 1,2,-1
 210 607 l 1,3,-1
 293 669 l 1,4,-1
 325 669 l 1,5,-1
 235 554 l 1,6,-1
 186 554 l 1,0,-1
364 66 m 128,-1,8
 407 66 407 66 432.5 85.5 c 128,-1,9
 458 105 458 105 470 153 c 1,10,-1
 590 149 l 1,11,12
 575 59 575 59 550 0 c 1,13,-1
 59 0 l 1,14,15
 40 128 40 128 40 265 c 128,-1,16
 40 402 40 402 54 500 c 1,17,-1
 342 500 l 1,18,19
 276 247 276 247 274 77 c 1,20,7
 321 66 321 66 364 66 c 128,-1,8
EndSplineSet
EndChar

StartChar: lcaron
Encoding: 318 318 249
Width: 615
Flags: W
LayerCount: 2
Fore
SplineSet
364 66 m 128,-1,1
 407 66 407 66 432.5 85.5 c 128,-1,2
 458 105 458 105 470 153 c 1,3,-1
 590 149 l 1,4,5
 575 59 575 59 550 0 c 1,6,-1
 59 0 l 1,7,8
 40 128 40 128 40 265 c 128,-1,9
 40 402 40 402 54 500 c 1,10,-1
 342 500 l 1,11,12
 276 247 276 247 274 77 c 1,13,0
 321 66 321 66 364 66 c 128,-1,1
401 687 m 1,14,15
 463 676 463 676 566 676 c 1,16,17
 547 575 547 575 497 501 c 1,18,19
 467 505 467 505 451 509 c 1,20,21
 472 548 472 548 474 581 c 1,22,23
 412 581 412 581 379 587 c 1,24,25
 399 632 399 632 401 687 c 1,14,15
EndSplineSet
EndChar

StartChar: Lslash
Encoding: 321 321 250
Width: 617
Flags: W
LayerCount: 2
Fore
SplineSet
12 116 m 1,0,-1
 11 148 l 2,1,2
 11 160 11 160 13 188 c 0,3,4
 13 192 13 192 55 208 c 1,5,6
 54 230 54 230 54 314.5 c 128,-1,7
 54 399 54 399 68 500 c 1,8,-1
 357 500 l 1,9,10
 335 417 335 417 319 335 c 1,11,12
 389 374 389 374 428 406 c 1,13,14
 414 352 414 352 392 307 c 1,15,16
 359 293 359 293 307 269 c 1,17,18
 290 161 290 161 289 76 c 1,19,20
 342 65 342 65 382 65 c 128,-1,21
 422 65 422 65 447.5 85 c 128,-1,22
 473 105 473 105 484 153 c 1,23,-1
 605 148 l 1,24,25
 590 60 590 60 565 0 c 1,26,-1
 74 0 l 1,27,28
 64 63 64 63 59 143 c 1,29,-1
 12 116 l 1,0,-1
EndSplineSet
EndChar

StartChar: lslash
Encoding: 322 322 251
Width: 617
Flags: W
LayerCount: 2
Fore
SplineSet
12 116 m 1,0,-1
 11 148 l 2,1,2
 11 160 11 160 13 188 c 0,3,4
 13 192 13 192 55 208 c 1,5,6
 54 230 54 230 54 314.5 c 128,-1,7
 54 399 54 399 68 500 c 1,8,-1
 357 500 l 1,9,10
 335 417 335 417 319 335 c 1,11,12
 389 374 389 374 428 406 c 1,13,14
 414 352 414 352 392 307 c 1,15,16
 359 293 359 293 307 269 c 1,17,18
 290 161 290 161 289 76 c 1,19,20
 342 65 342 65 382 65 c 128,-1,21
 422 65 422 65 447.5 85 c 128,-1,22
 473 105 473 105 484 153 c 1,23,-1
 605 148 l 1,24,25
 590 60 590 60 565 0 c 1,26,-1
 74 0 l 1,27,28
 64 63 64 63 59 143 c 1,29,-1
 12 116 l 1,0,-1
EndSplineSet
EndChar

StartChar: Nacute
Encoding: 323 323 252
Width: 715
Flags: W
LayerCount: 2
Fore
SplineSet
646 500 m 1,0,1
 652 395 652 395 652 278.5 c 128,-1,2
 652 162 652 162 642 0 c 1,3,-1
 546 0 l 1,4,5
 352 104 352 104 190 283 c 1,6,7
 198 216 198 216 198 145.5 c 128,-1,8
 198 75 198 75 193 0 c 1,9,-1
 76 0 l 1,10,11
 96 123 96 123 96 227.5 c 128,-1,12
 96 332 96 332 86 393 c 1,13,14
 46 453 46 453 23 500 c 1,15,-1
 307 500 l 1,16,17
 349 428 349 428 421.5 351.5 c 128,-1,18
 494 275 494 275 560 232 c 1,19,20
 560 378 560 378 527 500 c 1,21,-1
 646 500 l 1,0,1
353 680 m 1,22,-1
 464 666 l 1,23,24
 450 639 450 639 424.5 616 c 128,-1,25
 399 593 399 593 376 580 c 128,-1,26
 353 567 353 567 316 550 c 1,27,-1
 250 550 l 1,28,29
 322 597 322 597 353 680 c 1,22,-1
EndSplineSet
EndChar

StartChar: nacute
Encoding: 324 324 253
Width: 715
Flags: W
LayerCount: 2
Fore
SplineSet
646 500 m 1,0,1
 652 395 652 395 652 278.5 c 128,-1,2
 652 162 652 162 642 0 c 1,3,-1
 546 0 l 1,4,5
 352 104 352 104 190 283 c 1,6,7
 198 216 198 216 198 145.5 c 128,-1,8
 198 75 198 75 193 0 c 1,9,-1
 76 0 l 1,10,11
 96 123 96 123 96 227.5 c 128,-1,12
 96 332 96 332 86 393 c 1,13,14
 46 453 46 453 23 500 c 1,15,-1
 307 500 l 1,16,17
 349 428 349 428 421.5 351.5 c 128,-1,18
 494 275 494 275 560 232 c 1,19,20
 560 378 560 378 527 500 c 1,21,-1
 646 500 l 1,0,1
353 680 m 1,22,-1
 464 666 l 1,23,24
 450 639 450 639 424.5 616 c 128,-1,25
 399 593 399 593 376 580 c 128,-1,26
 353 567 353 567 316 550 c 1,27,-1
 250 550 l 1,28,29
 322 597 322 597 353 680 c 1,22,-1
EndSplineSet
EndChar

StartChar: uni0145
Encoding: 325 325 254
Width: 715
Flags: W
LayerCount: 2
Fore
SplineSet
646 500 m 1,0,1
 652 395 652 395 652 267 c 128,-1,2
 652 139 652 139 642 0 c 1,3,-1
 546 0 l 1,4,5
 358 99 358 99 190 283 c 1,6,7
 198 214 198 214 198 144.5 c 128,-1,8
 198 75 198 75 193 0 c 1,9,-1
 76 0 l 1,10,11
 96 123 96 123 96 227.5 c 128,-1,12
 96 332 96 332 86 393 c 1,13,14
 42 461 42 461 23 500 c 1,15,-1
 307 500 l 1,16,17
 348 428 348 428 421.5 351 c 128,-1,18
 495 274 495 274 560 232 c 1,19,20
 560 378 560 378 527 500 c 1,21,-1
 646 500 l 1,0,1
281 -33 m 1,22,-1
 446 -33 l 1,23,24
 426 -144 426 -144 377 -215 c 1,25,26
 373 -214 373 -214 356.5 -211.5 c 128,-1,27
 340 -209 340 -209 331 -207 c 1,28,29
 352 -166 352 -166 354 -135 c 1,30,31
 294 -135 294 -135 259 -129 c 1,32,33
 279 -84 279 -84 281 -33 c 1,22,-1
EndSplineSet
EndChar

StartChar: uni0146
Encoding: 326 326 255
Width: 715
Flags: W
LayerCount: 2
Fore
SplineSet
646 500 m 1,0,1
 652 395 652 395 652 278.5 c 128,-1,2
 652 162 652 162 642 0 c 1,3,-1
 546 0 l 1,4,5
 352 104 352 104 190 283 c 1,6,7
 198 216 198 216 198 145.5 c 128,-1,8
 198 75 198 75 193 0 c 1,9,-1
 76 0 l 1,10,11
 96 123 96 123 96 227.5 c 128,-1,12
 96 332 96 332 86 393 c 1,13,14
 46 453 46 453 23 500 c 1,15,-1
 307 500 l 1,16,17
 349 428 349 428 421.5 351.5 c 128,-1,18
 494 275 494 275 560 232 c 1,19,20
 560 378 560 378 527 500 c 1,21,-1
 646 500 l 1,0,1
281 -33 m 1,22,23
 281 -33 281 -33 446 -33 c 1,24,25
 425 -144 425 -144 377 -215 c 1,26,27
 347 -211 347 -211 331 -207 c 1,28,29
 352 -168 352 -168 354 -135 c 1,30,31
 292 -135 292 -135 259 -129 c 1,32,33
 279 -84 279 -84 281 -33 c 1,22,23
EndSplineSet
EndChar

StartChar: Ncaron
Encoding: 327 327 256
Width: 715
Flags: W
LayerCount: 2
Fore
SplineSet
646 500 m 1,0,1
 652 395 652 395 652 278.5 c 128,-1,2
 652 162 652 162 642 0 c 1,3,-1
 546 0 l 1,4,5
 352 104 352 104 190 283 c 1,6,7
 198 216 198 216 198 145.5 c 128,-1,8
 198 75 198 75 193 0 c 1,9,-1
 76 0 l 1,10,11
 96 123 96 123 96 227.5 c 128,-1,12
 96 332 96 332 86 393 c 1,13,14
 46 453 46 453 23 500 c 1,15,-1
 307 500 l 1,16,17
 349 428 349 428 421.5 351.5 c 128,-1,18
 494 275 494 275 560 232 c 1,19,20
 560 378 560 378 527 500 c 1,21,-1
 646 500 l 1,0,1
333 554 m 1,22,-1
 243 669 l 1,23,-1
 275 669 l 1,24,-1
 357 607 l 1,25,-1
 440 669 l 1,26,-1
 472 669 l 1,27,-1
 382 554 l 1,28,-1
 333 554 l 1,22,-1
EndSplineSet
EndChar

StartChar: ncaron
Encoding: 328 328 257
Width: 715
Flags: W
LayerCount: 2
Fore
SplineSet
646 500 m 1,0,1
 652 395 652 395 652 278.5 c 128,-1,2
 652 162 652 162 642 0 c 1,3,-1
 546 0 l 1,4,5
 352 104 352 104 190 283 c 1,6,7
 198 216 198 216 198 145.5 c 128,-1,8
 198 75 198 75 193 0 c 1,9,-1
 76 0 l 1,10,11
 96 123 96 123 96 227.5 c 128,-1,12
 96 332 96 332 86 393 c 1,13,14
 46 453 46 453 23 500 c 1,15,-1
 307 500 l 1,16,17
 349 428 349 428 421.5 351.5 c 128,-1,18
 494 275 494 275 560 232 c 1,19,20
 560 378 560 378 527 500 c 1,21,-1
 646 500 l 1,0,1
333 554 m 1,22,-1
 243 669 l 1,23,-1
 275 669 l 1,24,-1
 357 607 l 1,25,-1
 440 669 l 1,26,-1
 472 669 l 1,27,-1
 382 554 l 1,28,-1
 333 554 l 1,22,-1
EndSplineSet
EndChar

StartChar: Omacron
Encoding: 332 332 258
Width: 658
Flags: W
LayerCount: 2
Fore
SplineSet
54 655 m 1,0,1
 211 650 211 650 329 650 c 128,-1,2
 447 650 447 650 617 655 c 1,3,-1
 617 580 l 1,4,5
 439 587 439 587 330.5 587 c 128,-1,6
 222 587 222 587 54 580 c 1,7,-1
 54 655 l 1,0,1
123 3 m 1,8,9
 34 117 34 117 34 237 c 128,-1,10
 34 357 34 357 134 440 c 128,-1,11
 234 523 234 523 390 523 c 0,12,13
 473 523 473 523 555 498 c 1,14,15
 627 407 627 407 627 303 c 0,16,17
 627 172 627 172 520 75 c 128,-1,18
 413 -22 413 -22 261 -22 c 0,19,20
 196 -22 196 -22 123 3 c 1,8,9
275 436 m 1,21,22
 240 376 240 376 240 295 c 128,-1,23
 240 214 240 214 275.5 145.5 c 128,-1,24
 311 77 311 77 373 47 c 1,25,26
 420 107 420 107 420 186 c 128,-1,27
 420 265 420 265 381.5 333 c 128,-1,28
 343 401 343 401 275 436 c 1,21,22
EndSplineSet
EndChar

StartChar: omacron
Encoding: 333 333 259
Width: 658
Flags: W
LayerCount: 2
Fore
SplineSet
54 655 m 1,0,1
 212 650 212 650 330.5 650 c 128,-1,2
 449 650 449 650 617 655 c 1,3,-1
 617 580 l 1,4,5
 379 587 379 587 300.5 587 c 128,-1,6
 222 587 222 587 54 580 c 1,7,-1
 54 655 l 1,0,1
123 3 m 1,8,9
 34 118 34 118 34 237.5 c 128,-1,10
 34 357 34 357 133.5 440 c 128,-1,11
 233 523 233 523 390 523 c 0,12,13
 473 523 473 523 555 498 c 1,14,15
 627 408 627 408 627 303 c 0,16,17
 627 172 627 172 520 75 c 128,-1,18
 413 -22 413 -22 261 -22 c 0,19,20
 195 -22 195 -22 123 3 c 1,8,9
275 436 m 1,21,22
 240 376 240 376 240 294.5 c 128,-1,23
 240 213 240 213 275.5 144.5 c 128,-1,24
 311 76 311 76 373 47 c 1,25,26
 420 107 420 107 420 186 c 128,-1,27
 420 265 420 265 381.5 333 c 128,-1,28
 343 401 343 401 275 436 c 1,21,22
EndSplineSet
EndChar

StartChar: Ohungarumlaut
Encoding: 336 336 260
Width: 658
Flags: W
LayerCount: 2
Fore
SplineSet
123 3 m 1,0,1
 34 117 34 117 34 237 c 128,-1,2
 34 357 34 357 134 440 c 128,-1,3
 234 523 234 523 390 523 c 0,4,5
 473 523 473 523 555 498 c 1,6,7
 627 407 627 407 627 303 c 0,8,9
 627 172 627 172 520 75 c 128,-1,10
 413 -22 413 -22 261 -22 c 0,11,12
 196 -22 196 -22 123 3 c 1,0,1
275 436 m 1,13,14
 240 376 240 376 240 295 c 128,-1,15
 240 214 240 214 275.5 145.5 c 128,-1,16
 311 77 311 77 373 47 c 1,17,18
 420 107 420 107 420 186 c 128,-1,19
 420 265 420 265 381.5 333 c 128,-1,20
 343 401 343 401 275 436 c 1,13,14
244 680 m 1,21,-1
 355 666 l 1,22,23
 341 639 341 639 315.5 616 c 128,-1,24
 290 593 290 593 267 580 c 128,-1,25
 244 567 244 567 207 550 c 1,26,-1
 141 550 l 1,27,28
 213 597 213 597 244 680 c 1,21,-1
405 680 m 1,29,-1
 516 666 l 1,30,31
 502 639 502 639 476.5 616 c 128,-1,32
 451 593 451 593 428 580 c 128,-1,33
 405 567 405 567 368 550 c 1,34,-1
 302 550 l 1,35,36
 374 597 374 597 405 680 c 1,29,-1
EndSplineSet
EndChar

StartChar: ohungarumlaut
Encoding: 337 337 261
Width: 658
Flags: W
LayerCount: 2
Fore
SplineSet
123 3 m 1,0,1
 34 117 34 117 34 237 c 128,-1,2
 34 357 34 357 134 440 c 128,-1,3
 234 523 234 523 390 523 c 0,4,5
 473 523 473 523 555 498 c 1,6,7
 627 407 627 407 627 303 c 0,8,9
 627 172 627 172 520 75 c 128,-1,10
 413 -22 413 -22 261 -22 c 0,11,12
 196 -22 196 -22 123 3 c 1,0,1
275 436 m 1,13,14
 240 376 240 376 240 295 c 128,-1,15
 240 214 240 214 275.5 145.5 c 128,-1,16
 311 77 311 77 373 47 c 1,17,18
 420 107 420 107 420 186 c 128,-1,19
 420 265 420 265 381.5 333 c 128,-1,20
 343 401 343 401 275 436 c 1,13,14
244 680 m 1,21,-1
 355 666 l 1,22,23
 341 639 341 639 315.5 616 c 128,-1,24
 290 593 290 593 267 580 c 128,-1,25
 244 567 244 567 207 550 c 1,26,-1
 141 550 l 1,27,28
 213 597 213 597 244 680 c 1,21,-1
405 680 m 1,29,-1
 516 666 l 1,30,31
 502 639 502 639 476.5 616 c 128,-1,32
 451 593 451 593 428 580 c 128,-1,33
 405 567 405 567 368 550 c 1,34,-1
 302 550 l 1,35,36
 374 597 374 597 405 680 c 1,29,-1
EndSplineSet
EndChar

StartChar: OE
Encoding: 338 338 262
Width: 952
Flags: W
LayerCount: 2
Fore
SplineSet
695 299 m 1,0,-1
 789 293 l 2,1,2
 803 293 803 293 810 294 c 1,3,-1
 763 206 l 1,4,-1
 754 206 l 2,5,6
 735 206 735 206 700 216.5 c 128,-1,7
 665 227 665 227 650 227 c 0,8,9
 609 227 609 227 585 174 c 1,10,11
 581 125 581 125 579 76 c 1,12,13
 631 66 631 66 661 66 c 2,14,-1
 670 66 l 2,15,16
 713 66 713 66 738.5 85 c 128,-1,17
 764 104 764 104 775 153 c 1,18,-1
 895 148 l 1,19,20
 880 62 880 62 855 0 c 1,21,-1
 439 0 l 1,22,23
 339 -22 339 -22 263.5 -22 c 128,-1,24
 188 -22 188 -22 117 1 c 1,25,26
 30 114 30 114 30 233.5 c 128,-1,27
 30 353 30 353 127 438 c 128,-1,28
 224 523 224 523 375 523 c 0,29,30
 413 523 413 523 457 512.5 c 128,-1,31
 501 502 501 502 510 500 c 1,32,-1
 894 500 l 1,33,34
 877 395 877 395 862 348 c 1,35,36
 803 345 803 345 754 344 c 1,37,38
 763 369 763 369 763 392 c 0,39,40
 763 435 763 435 690 435 c 0,41,42
 658 435 658 435 630 430 c 1,43,44
 608 337 608 337 596 262 c 1,45,46
 636 299 636 299 695 299 c 1,0,-1
266 431 m 1,47,48
 231 370 231 370 231 291.5 c 128,-1,49
 231 213 231 213 266 146.5 c 128,-1,50
 301 80 301 80 361 51 c 1,51,52
 413 118 413 118 413 200.5 c 128,-1,53
 413 283 413 283 375.5 343.5 c 128,-1,54
 338 404 338 404 266 431 c 1,47,48
EndSplineSet
EndChar

StartChar: oe
Encoding: 339 339 263
Width: 952
Flags: W
LayerCount: 2
Fore
SplineSet
695 299 m 1,0,-1
 789 293 l 2,1,2
 803 293 803 293 810 294 c 1,3,-1
 763 206 l 1,4,-1
 754 206 l 2,5,6
 735 206 735 206 700 216.5 c 128,-1,7
 665 227 665 227 650 227 c 0,8,9
 609 227 609 227 585 174 c 1,10,11
 581 125 581 125 579 76 c 1,12,13
 631 66 631 66 661 66 c 2,14,-1
 670 66 l 2,15,16
 713 66 713 66 738.5 85 c 128,-1,17
 764 104 764 104 775 153 c 1,18,-1
 895 148 l 1,19,20
 880 62 880 62 855 0 c 1,21,-1
 439 0 l 1,22,23
 339 -22 339 -22 263.5 -22 c 128,-1,24
 188 -22 188 -22 117 1 c 1,25,26
 30 114 30 114 30 233.5 c 128,-1,27
 30 353 30 353 127 438 c 128,-1,28
 224 523 224 523 375 523 c 0,29,30
 413 523 413 523 457 512.5 c 128,-1,31
 501 502 501 502 510 500 c 1,32,-1
 894 500 l 1,33,34
 877 395 877 395 862 348 c 1,35,36
 803 345 803 345 754 344 c 1,37,38
 763 369 763 369 763 392 c 0,39,40
 763 435 763 435 690 435 c 0,41,42
 658 435 658 435 630 430 c 1,43,44
 608 337 608 337 596 262 c 1,45,46
 636 299 636 299 695 299 c 1,0,-1
266 431 m 1,47,48
 231 370 231 370 231 291.5 c 128,-1,49
 231 213 231 213 266 146.5 c 128,-1,50
 301 80 301 80 361 51 c 1,51,52
 413 118 413 118 413 200.5 c 128,-1,53
 413 283 413 283 375.5 343.5 c 128,-1,54
 338 404 338 404 266 431 c 1,47,48
EndSplineSet
EndChar

StartChar: Racute
Encoding: 340 340 264
Width: 706
Flags: W
LayerCount: 2
Fore
SplineSet
622 326 m 1,0,-1
 621 292 l 1,1,2
 541 249 541 249 421 225 c 1,3,4
 507 202 507 202 587 202 c 2,5,-1
 608 202 l 1,6,7
 663 121 663 121 679 0 c 1,8,-1
 420 0 l 1,9,10
 410 70 410 70 379.5 120.5 c 128,-1,11
 349 171 349 171 305 189 c 1,12,13
 304 172 304 172 304 121 c 128,-1,14
 304 70 304 70 310 0 c 1,15,-1
 92 0 l 1,16,17
 63 145 63 145 63 269.5 c 128,-1,18
 63 394 63 394 77 500 c 1,19,-1
 599 500 l 1,20,21
 622 399 622 399 622 326 c 1,0,-1
326 433 m 1,22,23
 314 345 314 345 308 260 c 1,24,25
 363 268 363 268 398 299 c 1,26,27
 379 366 379 366 326 433 c 1,22,23
349 680 m 1,28,-1
 460 666 l 1,29,30
 446 639 446 639 420.5 616 c 128,-1,31
 395 593 395 593 372 580 c 128,-1,32
 349 567 349 567 312 550 c 1,33,-1
 246 550 l 1,34,35
 318 597 318 597 349 680 c 1,28,-1
EndSplineSet
EndChar

StartChar: racute
Encoding: 341 341 265
Width: 706
Flags: W
LayerCount: 2
Fore
SplineSet
622 326 m 1,0,-1
 621 292 l 1,1,2
 541 249 541 249 421 225 c 1,3,4
 507 202 507 202 587 202 c 2,5,-1
 608 202 l 1,6,7
 663 121 663 121 679 0 c 1,8,-1
 420 0 l 1,9,10
 410 70 410 70 379.5 120.5 c 128,-1,11
 349 171 349 171 305 189 c 1,12,13
 304 172 304 172 304 121 c 128,-1,14
 304 70 304 70 310 0 c 1,15,-1
 92 0 l 1,16,17
 63 145 63 145 63 269.5 c 128,-1,18
 63 394 63 394 77 500 c 1,19,-1
 599 500 l 1,20,21
 622 399 622 399 622 326 c 1,0,-1
326 433 m 1,22,23
 314 345 314 345 308 260 c 1,24,25
 363 268 363 268 398 299 c 1,26,27
 379 366 379 366 326 433 c 1,22,23
349 680 m 1,28,-1
 460 666 l 1,29,30
 446 639 446 639 420.5 616 c 128,-1,31
 395 593 395 593 372 580 c 128,-1,32
 349 567 349 567 312 550 c 1,33,-1
 246 550 l 1,34,35
 318 597 318 597 349 680 c 1,28,-1
EndSplineSet
EndChar

StartChar: uni0156
Encoding: 342 342 266
Width: 706
Flags: W
LayerCount: 2
Fore
SplineSet
622 326 m 1,0,-1
 621 292 l 1,1,2
 541 249 541 249 421 225 c 1,3,4
 507 202 507 202 587 202 c 2,5,-1
 608 202 l 1,6,7
 663 121 663 121 679 0 c 1,8,-1
 420 0 l 1,9,10
 410 70 410 70 379.5 120.5 c 128,-1,11
 349 171 349 171 305 189 c 1,12,13
 304 172 304 172 304 121 c 128,-1,14
 304 70 304 70 310 0 c 1,15,-1
 92 0 l 1,16,17
 63 145 63 145 63 269.5 c 128,-1,18
 63 394 63 394 77 500 c 1,19,-1
 599 500 l 1,20,21
 622 399 622 399 622 326 c 1,0,-1
326 433 m 1,22,23
 314 345 314 345 308 260 c 1,24,25
 363 268 363 268 398 299 c 1,26,27
 379 366 379 366 326 433 c 1,22,23
281 -33 m 1,28,-1
 446 -33 l 1,29,30
 425 -144 425 -144 377 -215 c 1,31,32
 347 -211 347 -211 331 -207 c 1,33,34
 352 -168 352 -168 354 -135 c 1,35,36
 292 -135 292 -135 259 -129 c 1,37,38
 279 -84 279 -84 281 -33 c 1,28,-1
EndSplineSet
EndChar

StartChar: uni0157
Encoding: 343 343 267
Width: 706
Flags: W
LayerCount: 2
Fore
SplineSet
622 326 m 1,0,-1
 621 292 l 1,1,2
 541 249 541 249 421 225 c 1,3,4
 507 202 507 202 587 202 c 2,5,-1
 608 202 l 1,6,7
 663 121 663 121 679 0 c 1,8,-1
 420 0 l 1,9,10
 410 70 410 70 379.5 120.5 c 128,-1,11
 349 171 349 171 305 189 c 1,12,13
 304 172 304 172 304 121 c 128,-1,14
 304 70 304 70 310 0 c 1,15,-1
 92 0 l 1,16,17
 63 145 63 145 63 269.5 c 128,-1,18
 63 394 63 394 77 500 c 1,19,-1
 599 500 l 1,20,21
 622 399 622 399 622 326 c 1,0,-1
326 433 m 1,22,23
 314 345 314 345 308 260 c 1,24,25
 363 268 363 268 398 299 c 1,26,27
 379 366 379 366 326 433 c 1,22,23
281 -33 m 1,28,-1
 446 -33 l 1,29,30
 425 -144 425 -144 377 -215 c 1,31,32
 347 -211 347 -211 331 -207 c 1,33,34
 352 -168 352 -168 354 -135 c 1,35,36
 292 -135 292 -135 259 -129 c 1,37,38
 279 -84 279 -84 281 -33 c 1,28,-1
EndSplineSet
EndChar

StartChar: Rcaron
Encoding: 344 344 268
Width: 706
Flags: W
LayerCount: 2
Fore
SplineSet
622 326 m 1,0,-1
 621 292 l 1,1,2
 544 249 544 249 421 225 c 1,3,4
 507 202 507 202 587 202 c 2,5,-1
 608 202 l 1,6,7
 663 122 663 122 679 0 c 1,8,-1
 420 0 l 1,9,10
 410 70 410 70 379.5 120.5 c 128,-1,11
 349 171 349 171 305 189 c 1,12,13
 304 172 304 172 304 121 c 128,-1,14
 304 70 304 70 310 0 c 1,15,-1
 92 0 l 1,16,17
 63 148 63 148 63 271 c 128,-1,18
 63 394 63 394 77 500 c 1,19,-1
 599 500 l 1,20,21
 622 398 622 398 622 326 c 1,0,-1
326 433 m 1,22,23
 314 343 314 343 308 260 c 1,24,25
 362 268 362 268 398 299 c 1,26,27
 380 365 380 365 326 433 c 1,22,23
328 554 m 1,28,-1
 238 669 l 1,29,-1
 270 669 l 1,30,-1
 352 607 l 1,31,-1
 435 669 l 1,32,-1
 467 669 l 1,33,-1
 377 554 l 1,34,-1
 328 554 l 1,28,-1
EndSplineSet
EndChar

StartChar: rcaron
Encoding: 345 345 269
Width: 706
Flags: W
LayerCount: 2
Fore
SplineSet
622 326 m 1,0,-1
 621 292 l 1,1,2
 544 249 544 249 421 225 c 1,3,4
 507 202 507 202 587 202 c 2,5,-1
 608 202 l 1,6,7
 663 122 663 122 679 0 c 1,8,-1
 420 0 l 1,9,10
 410 70 410 70 379.5 120.5 c 128,-1,11
 349 171 349 171 305 189 c 1,12,13
 304 172 304 172 304 121 c 128,-1,14
 304 70 304 70 310 0 c 1,15,-1
 92 0 l 1,16,17
 63 148 63 148 63 271 c 128,-1,18
 63 394 63 394 77 500 c 1,19,-1
 599 500 l 1,20,21
 622 398 622 398 622 326 c 1,0,-1
326 433 m 1,22,23
 314 343 314 343 308 260 c 1,24,25
 362 268 362 268 398 299 c 1,26,27
 380 365 380 365 326 433 c 1,22,23
328 554 m 1,28,-1
 238 669 l 1,29,-1
 270 669 l 1,30,-1
 352 607 l 1,31,-1
 435 669 l 1,32,-1
 467 669 l 1,33,-1
 377 554 l 1,34,-1
 328 554 l 1,28,-1
EndSplineSet
EndChar

